<svg xmlns="http://www.w3.org/2000/svg" viewBox="0 0 320 128" width="1280" height="512" shape-rendering="crispEdges" role="img" aria-label="DOCKET: a pixel-art title screen with a tree, a house and Fremont city hall, a neighbor walking and a bird carrying a page"><title>DOCKET: a pixel-art title screen with a tree, a house and Fremont city hall, a neighbor walking and a bird carrying a page</title><style>.cl0{animation:cl0 95s steps(368) -15.0s infinite}@keyframes cl0{from{transform:translateX(-58px)}to{transform:translateX(310px)}}.cl1{animation:cl1 120s steps(368) -62.0s infinite}@keyframes cl1{from{transform:translateX(-190px)}to{transform:translateX(178px)}}.cl2{animation:cl2 80s steps(368) -60.0s infinite}@keyframes cl2{from{transform:translateX(-276px)}to{transform:translateX(92px)}}.walk{animation:walk 18s steps(88) infinite alternate}@keyframes walk{to{transform:translateX(84px)}}.bob{animation:bob .5s step-end infinite}@keyframes bob{50%{transform:translateY(-1px)}}.heart{transform-box:fill-box;transform-origin:20% 100%;transform:scale(0);animation:heart 6s steps(6) infinite}@keyframes heart{0%,40%{transform:scale(0)}46%,78%{transform:scale(1)}84%,100%{transform:scale(0)}}.courier{animation:courier 11s steps(120) infinite}@keyframes courier{0%{transform:translate(0,0);opacity:0}4%{opacity:1}50%{transform:translate(-150px,-2px)}88%{opacity:1}94%{transform:translate(-172px,2px);opacity:0}100%{transform:translate(-172px,2px);opacity:0}}.pulse{animation:pulse .45s ease-in-out infinite alternate}@keyframes pulse{from{transform:scale(1)}to{transform:scale(1.09)}}.sp0{opacity:1;animation:sp0 17.5s step-end infinite}@keyframes sp0{0%{opacity:1}20%{opacity:0}}.sp1{opacity:0;animation:sp1 17.5s step-end infinite}@keyframes sp1{0%{opacity:0}20%{opacity:1}40%{opacity:0}}.sp2{opacity:0;animation:sp2 17.5s step-end infinite}@keyframes sp2{0%{opacity:0}40%{opacity:1}60%{opacity:0}}.sp3{opacity:0;animation:sp3 17.5s step-end infinite}@keyframes sp3{0%{opacity:0}60%{opacity:1}80%{opacity:0}}.sp4{opacity:0;animation:sp4 17.5s step-end infinite}@keyframes sp4{0%{opacity:0}80%{opacity:1}100%{opacity:0}}.wu{animation:wu .36s step-end infinite}.wd{opacity:0;animation:wd .36s step-end infinite}@keyframes wu{0%{opacity:1}50%{opacity:0}}@keyframes wd{0%{opacity:0}50%{opacity:1}}.blink{animation:blink 5s step-end infinite}@keyframes blink{0%{opacity:1}92%{opacity:0}96%{opacity:1}}@media (prefers-reduced-motion: reduce){*{animation:none!important}}</style><defs><pattern id="grass" patternUnits="userSpaceOnUse" width="8" height="8"><path fill="#8CC63F" d="M0 0h1v1h-1zM4 0h1v1h-1zM3 1h1v1h-1zM6 1h1v1h-1z"/><path fill="#6DB33F" d="M1 0h1v1h-1zM3 0h1v1h-1zM5 0h1v1h-1zM7 0h1v1h-1zM0 1h1v1h-1zM2 1h1v1h-1zM4 1h1v1h-1zM7 1h1v1h-1zM1 2h1v1h-1zM3 2h1v1h-1zM5 2h1v1h-1zM4 3h1v1h-1z"/><path fill="#4E9A3A" d="M2 0h1v1h-1zM6 0h1v1h-1zM1 1h1v1h-1zM5 1h1v1h-1zM0 2h1v1h-1zM2 2h1v1h-1zM4 2h1v1h-1zM7 2h1v1h-1zM1 3h1v1h-1zM6 3h1v1h-1z"/><path fill="#8B5A2B" d="M6 2h1v1h-1zM0 3h1v1h-1zM2 3h1v1h-1zM5 3h1v1h-1zM7 3h1v1h-1zM0 4h1v1h-1zM3 4h1v1h-1zM5 4h1v1h-1zM7 4h1v1h-1zM1 5h1v1h-1zM3 5h1v1h-1zM6 5h1v1h-1zM1 6h1v1h-1zM3 6h1v1h-1zM6 6h2v1h-2zM0 7h1v1h-1zM3 7h3v1h-3z"/><path fill="#6B4423" d="M3 3h1v1h-1zM1 4h1v1h-1zM4 4h1v1h-1zM2 5h1v1h-1zM5 5h1v1h-1zM7 5h1v1h-1zM0 6h1v1h-1zM4 6h1v1h-1zM2 7h1v1h-1zM7 7h1v1h-1z"/><path fill="#A0703F" d="M2 4h1v1h-1zM6 4h1v1h-1zM0 5h1v1h-1zM4 5h1v1h-1zM2 6h1v1h-1zM5 6h1v1h-1zM1 7h1v1h-1zM6 7h1v1h-1z"/></pattern><pattern id="dirt" patternUnits="userSpaceOnUse" width="8" height="8"><path fill="#8B5A2B" d="M0 0h1v1h-1zM3 0h1v1h-1zM5 0h1v1h-1zM7 0h1v1h-1zM1 1h1v1h-1zM3 1h1v1h-1zM6 1h1v1h-1zM1 2h1v1h-1zM3 2h1v1h-1zM6 2h2v1h-2zM0 3h1v1h-1zM3 3h3v1h-3zM0 4h1v1h-1zM2 4h1v1h-1zM5 4h2v1h-2zM1 5h1v1h-1zM3 5h2v1h-2zM7 5h1v1h-1zM0 6h2v1h-2zM4 6h1v1h-1zM7 6h1v1h-1zM2 7h1v1h-1zM4 7h2v1h-2zM7 7h1v1h-1z"/><path fill="#6B4423" d="M1 0h1v1h-1zM4 0h1v1h-1zM2 1h1v1h-1zM5 1h1v1h-1zM7 1h1v1h-1zM0 2h1v1h-1zM4 2h1v1h-1zM2 3h1v1h-1zM7 3h1v1h-1zM3 4h1v1h-1zM7 4h1v1h-1zM0 5h1v1h-1zM5 5h1v1h-1zM2 6h1v1h-1zM6 6h1v1h-1zM1 7h1v1h-1zM3 7h1v1h-1z"/><path fill="#A0703F" d="M2 0h1v1h-1zM6 0h1v1h-1zM0 1h1v1h-1zM4 1h1v1h-1zM2 2h1v1h-1zM5 2h1v1h-1zM1 3h1v1h-1zM6 3h1v1h-1zM1 4h1v1h-1zM4 4h1v1h-1zM2 5h1v1h-1zM6 5h1v1h-1zM3 6h1v1h-1zM5 6h1v1h-1zM0 7h1v1h-1zM6 7h1v1h-1z"/></pattern><pattern id="leaves" patternUnits="userSpaceOnUse" width="8" height="8"><path fill="#4E9A3A" d="M0 0h1v1h-1zM3 0h1v1h-1zM5 0h1v1h-1zM7 0h1v1h-1zM1 1h1v1h-1zM6 1h1v1h-1zM2 2h2v1h-2zM7 2h1v1h-1zM0 3h1v1h-1zM4 3h2v1h-2zM1 4h1v1h-1zM6 4h1v1h-1zM2 5h1v1h-1zM5 5h1v1h-1zM0 6h1v1h-1zM4 6h1v1h-1zM7 6h1v1h-1zM1 7h1v1h-1zM4 7h1v1h-1zM7 7h1v1h-1z"/><path fill="#6DB33F" d="M1 0h1v1h-1zM4 0h1v1h-1zM2 1h1v1h-1zM5 1h1v1h-1zM7 1h1v1h-1zM0 2h1v1h-1zM4 2h1v1h-1zM2 3h1v1h-1zM6 3h1v1h-1zM0 4h1v1h-1zM3 4h1v1h-1zM7 4h1v1h-1zM1 5h1v1h-1zM4 5h1v1h-1zM6 5h1v1h-1zM3 6h1v1h-1zM6 6h1v1h-1zM0 7h1v1h-1zM2 7h1v1h-1z"/><path fill="#2F6A31" d="M2 0h1v1h-1zM6 0h1v1h-1zM0 1h1v1h-1zM4 1h1v1h-1zM1 2h1v1h-1zM5 2h1v1h-1zM3 3h1v1h-1zM7 3h1v1h-1zM2 4h1v1h-1zM5 4h1v1h-1zM0 5h1v1h-1zM3 5h1v1h-1zM1 6h1v1h-1zM5 6h1v1h-1zM3 7h1v1h-1zM6 7h1v1h-1z"/><path fill="#1F3D1A" d="M3 1h1v1h-1zM6 2h1v1h-1zM1 3h1v1h-1zM4 4h1v1h-1zM7 5h1v1h-1zM2 6h1v1h-1zM5 7h1v1h-1z"/></pattern><pattern id="log" patternUnits="userSpaceOnUse" width="8" height="8"><path fill="#6B4A2E" d="M0 0h1v1h-1zM3 0h1v1h-1zM5 0h1v1h-1zM0 1h1v1h-1zM2 1h2v1h-2zM6 1h1v1h-1zM2 2h2v1h-2zM5 2h2v1h-2zM0 3h1v1h-1zM2 3h1v1h-1zM5 3h2v1h-2zM0 4h1v1h-1zM2 4h2v1h-2zM5 4h1v1h-1zM0 5h1v1h-1zM3 5h1v1h-1zM5 5h2v1h-2zM0 6h1v1h-1zM2 6h2v1h-2zM6 6h1v1h-1zM2 7h2v1h-2zM5 7h2v1h-2z"/><path fill="#4A3320" d="M1 0h1v1h-1zM4 0h1v1h-1zM7 0h1v1h-1zM1 1h1v1h-1zM4 1h1v1h-1zM7 1h1v1h-1zM1 2h1v1h-1zM4 2h1v1h-1zM7 2h1v1h-1zM1 3h1v1h-1zM4 3h1v1h-1zM7 3h1v1h-1zM1 4h1v1h-1zM4 4h1v1h-1zM7 4h1v1h-1zM1 5h1v1h-1zM4 5h1v1h-1zM7 5h1v1h-1zM1 6h1v1h-1zM4 6h1v1h-1zM7 6h1v1h-1zM1 7h1v1h-1zM4 7h1v1h-1zM7 7h1v1h-1z"/><path fill="#8A6440" d="M2 0h1v1h-1zM6 0h1v1h-1zM5 1h1v1h-1zM0 2h1v1h-1zM3 3h1v1h-1zM6 4h1v1h-1zM2 5h1v1h-1zM5 6h1v1h-1zM0 7h1v1h-1z"/></pattern><pattern id="planks" patternUnits="userSpaceOnUse" width="8" height="8"><path fill="#C99A5B" d="M0 0h1v1h-1zM7 0h1v1h-1zM2 1h1v1h-1zM3 2h1v1h-1zM3 4h1v1h-1zM4 5h1v1h-1zM0 6h1v1h-1zM7 6h1v1h-1z"/><path fill="#B0834A" d="M1 0h4v1h-4zM6 0h1v1h-1zM0 1h2v1h-2zM3 1h2v1h-2zM6 1h2v1h-2zM0 2h3v1h-3zM4 2h1v1h-1zM6 2h2v1h-2zM0 4h1v1h-1zM2 4h1v1h-1zM4 4h4v1h-4zM0 5h1v1h-1zM2 5h2v1h-2zM5 5h3v1h-3zM2 6h5v1h-5z"/><path fill="#8A6336" d="M5 0h1v1h-1zM5 1h1v1h-1zM5 2h1v1h-1zM0 3h8v1h-8zM1 4h1v1h-1zM1 5h1v1h-1zM1 6h1v1h-1zM0 7h8v1h-8z"/></pattern><pattern id="roof" patternUnits="userSpaceOnUse" width="8" height="8"><path fill="#7A5436" d="M0 0h1v1h-1zM7 0h1v1h-1zM2 1h1v1h-1zM3 2h1v1h-1zM3 4h1v1h-1zM4 5h1v1h-1zM0 6h1v1h-1zM7 6h1v1h-1z"/><path fill="#63432A" d="M1 0h4v1h-4zM6 0h1v1h-1zM0 1h2v1h-2zM3 1h2v1h-2zM6 1h2v1h-2zM0 2h3v1h-3zM4 2h1v1h-1zM6 2h2v1h-2zM0 4h1v1h-1zM2 4h1v1h-1zM4 4h4v1h-4zM0 5h1v1h-1zM2 5h2v1h-2zM5 5h3v1h-3zM2 6h5v1h-5z"/><path fill="#45301E" d="M5 0h1v1h-1zM5 1h1v1h-1zM5 2h1v1h-1zM0 3h8v1h-8zM1 4h1v1h-1zM1 5h1v1h-1zM1 6h1v1h-1zM0 7h8v1h-8z"/></pattern><pattern id="stone" patternUnits="userSpaceOnUse" width="8" height="8"><path fill="#B5B5B5" d="M0 0h1v1h-1zM4 1h1v1h-1zM1 4h1v1h-1zM6 5h1v1h-1z"/><path fill="#9A9A9A" d="M1 0h6v1h-6zM0 1h2v1h-2zM3 1h1v1h-1zM5 1h2v1h-2zM0 2h3v1h-3zM4 2h3v1h-3zM0 4h1v1h-1zM2 4h1v1h-1zM5 4h3v1h-3zM0 5h3v1h-3zM4 5h2v1h-2zM7 5h1v1h-1zM0 6h1v1h-1zM2 6h1v1h-1zM4 6h1v1h-1zM6 6h2v1h-2z"/><path fill="#6E6E6E" d="M7 0h1v1h-1zM7 1h1v1h-1zM7 2h1v1h-1zM0 3h8v1h-8zM3 4h1v1h-1zM3 5h1v1h-1zM3 6h1v1h-1zM0 7h8v1h-8z"/><path fill="#858585" d="M2 1h1v1h-1zM3 2h1v1h-1zM4 4h1v1h-1zM1 6h1v1h-1zM5 6h1v1h-1z"/></pattern><pattern id="title" patternUnits="userSpaceOnUse" width="8" height="8"><path fill="#F2F2F2" d="M0 0h1v1h-1zM4 1h1v1h-1zM1 4h1v1h-1zM6 5h1v1h-1z"/><path fill="#DCDCDC" d="M1 0h6v1h-6zM0 1h2v1h-2zM3 1h1v1h-1zM5 1h2v1h-2zM0 2h3v1h-3zM4 2h3v1h-3zM0 4h1v1h-1zM2 4h1v1h-1zM5 4h3v1h-3zM0 5h3v1h-3zM4 5h2v1h-2zM7 5h1v1h-1zM0 6h1v1h-1zM2 6h1v1h-1zM4 6h1v1h-1zM6 6h2v1h-2z"/><path fill="#AFAFAF" d="M7 0h1v1h-1zM7 1h1v1h-1zM7 2h1v1h-1zM0 3h8v1h-8zM3 4h1v1h-1zM3 5h1v1h-1zM3 6h1v1h-1zM0 7h8v1h-8z"/><path fill="#C8C8C8" d="M2 1h1v1h-1zM3 2h1v1h-1zM4 4h1v1h-1zM1 6h1v1h-1zM5 6h1v1h-1z"/></pattern></defs><rect x="0" y="0" width="320" height="19" fill="#7FB8F0"/><rect x="0" y="19" width="320" height="19" fill="#8DC2F5"/><rect x="0" y="38" width="320" height="19" fill="#9ECBF5"/><rect x="0" y="57" width="320" height="19" fill="#B3D6F6"/><rect x="0" y="76" width="320" height="19" fill="#C6E0F6"/><rect x="0" y="95" width="320" height="19" fill="#DDEBF6"/><rect x="282" y="8" width="16" height="16" fill="#FFF3B0"/><rect x="285" y="11" width="10" height="10" fill="#FFE680"/><g transform="translate(18 14)"><g class="cl0"><rect x="0" y="4" width="32" height="5" fill="#FFFFFF"/><rect x="8" y="0" width="16" height="4" fill="#FFFFFF"/><rect x="0" y="9" width="32" height="2" fill="#E6F0F8"/></g></g><g transform="translate(150 60)"><g class="cl1"><rect x="0" y="4" width="32" height="5" fill="#FFFFFF"/><rect x="8" y="0" width="16" height="4" fill="#FFFFFF"/><rect x="0" y="9" width="32" height="2" fill="#E6F0F8"/></g></g><g transform="translate(236 30)"><g class="cl2"><rect x="0" y="4" width="32" height="5" fill="#FFFFFF"/><rect x="8" y="0" width="16" height="4" fill="#FFFFFF"/><rect x="0" y="9" width="32" height="2" fill="#E6F0F8"/></g></g><path fill="#B7D3C0" d="M0 100h8v12h-8zM8 100h8v12h-8zM16 96h8v16h-8zM24 96h8v16h-8zM32 96h8v16h-8zM40 96h8v16h-8zM48 96h8v16h-8zM56 100h8v12h-8zM64 100h8v12h-8zM72 100h8v12h-8zM80 100h8v12h-8zM88 100h8v12h-8zM96 96h8v16h-8zM104 96h8v16h-8zM112 100h8v12h-8zM120 100h8v12h-8zM128 100h8v12h-8zM136 100h8v12h-8zM144 100h8v12h-8zM152 96h8v16h-8zM160 100h8v12h-8zM168 96h8v16h-8zM176 100h8v12h-8zM184 100h8v12h-8zM192 100h8v12h-8zM200 100h8v12h-8zM208 100h8v12h-8zM216 96h8v16h-8zM224 100h8v12h-8zM232 96h8v16h-8zM240 96h8v16h-8zM248 96h8v16h-8zM256 96h8v16h-8zM264 92h8v20h-8zM272 92h8v20h-8zM280 88h8v24h-8zM288 84h8v28h-8zM296 88h8v24h-8zM304 92h8v20h-8zM312 92h8v20h-8z"/><path fill="#98C2A2" d="M0 108h8v4h-8zM8 108h8v4h-8zM16 108h8v4h-8zM24 104h8v8h-8zM32 100h8v12h-8zM40 100h8v12h-8zM48 100h8v12h-8zM56 100h8v12h-8zM64 100h8v12h-8zM72 96h8v16h-8zM80 100h8v12h-8zM88 100h8v12h-8zM96 100h8v12h-8zM104 100h8v12h-8zM112 100h8v12h-8zM120 104h8v8h-8zM128 108h8v4h-8zM136 108h8v4h-8zM144 108h8v4h-8zM152 104h8v8h-8zM160 104h8v8h-8zM168 108h8v4h-8zM176 108h8v4h-8zM184 108h8v4h-8zM192 108h8v4h-8zM200 108h8v4h-8zM208 108h8v4h-8zM216 104h8v8h-8zM224 104h8v8h-8zM232 100h8v12h-8zM240 96h8v16h-8zM248 96h8v16h-8zM256 100h8v12h-8zM264 100h8v12h-8zM272 96h8v16h-8zM280 92h8v20h-8zM288 96h8v16h-8zM296 96h8v16h-8zM304 92h8v20h-8zM312 92h8v20h-8z"/><rect x="0" y="112" width="320" height="8" fill="url(#grass)"/><rect x="0" y="120" width="320" height="8" fill="url(#dirt)"/><rect x="24" y="100" width="8" height="12" fill="url(#log)"/><rect x="8" y="84" width="40" height="16" fill="url(#leaves)"/><rect x="16" y="76" width="24" height="8" fill="url(#leaves)"/><g transform="translate(30 69)"><path fill="#C8352B" d="M4 0h3v1h-3zM3 1h4v1h-4zM2 2h5v1h-5zM5 3h1v1h-1z"/><path fill="#F2A33A" d="M7 1h1v1h-1z"/><path fill="#8F2019" d="M1 3h4v1h-4zM0 4h4v1h-4zM0 5h1v1h-1z"/><path fill="#E0645A" d="M6 3h1v1h-1zM4 4h3v1h-3zM2 5h4v1h-4z"/><path fill="#5A3A1A" d="M3 6h1v1h-1zM5 6h1v1h-1z"/><g class="blink"><rect x="5" y="1" width="1" height="1" fill="#111111"/></g></g><rect x="56" y="88" width="32" height="24" fill="url(#planks)"/><rect x="52" y="84" width="40" height="4" fill="url(#roof)"/><rect x="56" y="80" width="32" height="4" fill="url(#roof)"/><rect x="60" y="76" width="24" height="4" fill="url(#roof)"/><rect x="64" y="72" width="16" height="4" fill="url(#roof)"/><rect x="68" y="100" width="8" height="12" fill="#5A3A1A"/><rect x="74" y="105" width="1" height="1" fill="#F2C230"/><rect x="59" y="92" width="7" height="7" fill="#262626"/><rect x="60" y="93" width="5" height="5" fill="#8DC2F5"/><rect x="78" y="92" width="7" height="7" fill="#262626"/><rect x="79" y="93" width="5" height="5" fill="#8DC2F5"/><rect x="228" y="88" width="64" height="24" fill="url(#stone)"/><rect x="224" y="84" width="72" height="4" fill="url(#stone)"/><rect x="232" y="80" width="56" height="4" fill="url(#stone)"/><rect x="244" y="76" width="32" height="4" fill="url(#stone)"/><rect x="234" y="90" width="4" height="22" fill="#EDEDED"/><rect x="237" y="90" width="1" height="22" fill="#C8C8C8"/><rect x="244" y="90" width="4" height="22" fill="#EDEDED"/><rect x="247" y="90" width="1" height="22" fill="#C8C8C8"/><rect x="272" y="90" width="4" height="22" fill="#EDEDED"/><rect x="275" y="90" width="1" height="22" fill="#C8C8C8"/><rect x="282" y="90" width="4" height="22" fill="#EDEDED"/><rect x="285" y="90" width="1" height="22" fill="#C8C8C8"/><rect x="254" y="98" width="12" height="14" fill="#4A3320"/><rect x="259" y="98" width="1" height="14" fill="#2F2014"/><rect x="259" y="66" width="1" height="10" fill="#5F6368"/><g class="wu" style="animation-duration:.9s"><path fill="#B3261E" d="M260 66h6v1h-6zM260 67h10v1h-10zM260 68h4v1h-4zM266 68h4v1h-4zM260 69h10v1h-10zM264 70h6v1h-6z"/><path fill="#FFFFFF" d="M264 68h2v1h-2z"/></g><g class="wd" style="animation-duration:.9s"><path fill="#B3261E" d="M264 66h6v1h-6zM260 67h10v1h-10zM260 68h4v1h-4zM266 68h4v1h-4zM260 69h10v1h-10zM260 70h6v1h-6z"/><path fill="#FFFFFF" d="M264 68h2v1h-2z"/></g><rect x="5" y="109" width="1" height="3" fill="#2F6A31"/><rect x="6" y="110" width="1" height="1" fill="#4E9A3A"/><rect x="4" y="107" width="3" height="2" fill="#E53935"/><rect x="5" y="106" width="1" height="1" fill="#E53935"/><rect x="45" y="109" width="1" height="3" fill="#2F6A31"/><rect x="46" y="110" width="1" height="1" fill="#4E9A3A"/><rect x="44" y="107" width="3" height="2" fill="#F2C230"/><rect x="45" y="106" width="1" height="1" fill="#F2C230"/><rect x="101" y="109" width="1" height="3" fill="#2F6A31"/><rect x="102" y="110" width="1" height="1" fill="#4E9A3A"/><rect x="100" y="107" width="3" height="2" fill="#E53935"/><rect x="101" y="106" width="1" height="1" fill="#E53935"/><rect x="133" y="109" width="1" height="3" fill="#2F6A31"/><rect x="134" y="110" width="1" height="1" fill="#4E9A3A"/><rect x="132" y="107" width="3" height="2" fill="#F2C230"/><rect x="133" y="106" width="1" height="1" fill="#F2C230"/><rect x="209" y="109" width="1" height="3" fill="#2F6A31"/><rect x="210" y="110" width="1" height="1" fill="#4E9A3A"/><rect x="208" y="107" width="3" height="2" fill="#E53935"/><rect x="209" y="106" width="1" height="1" fill="#E53935"/><rect x="305" y="109" width="1" height="3" fill="#2F6A31"/><rect x="306" y="110" width="1" height="1" fill="#4E9A3A"/><rect x="304" y="107" width="3" height="2" fill="#F2C230"/><rect x="305" y="106" width="1" height="1" fill="#F2C230"/><g fill="#3F8A35"><rect x="36" y="110" width="1" height="2" fill="#3F8A35"/><rect x="38" y="109" width="1" height="3" fill="#3F8A35"/><rect x="40" y="110" width="1" height="2" fill="#3F8A35"/></g><g fill="#3F8A35"><rect x="94" y="110" width="1" height="2" fill="#3F8A35"/><rect x="96" y="109" width="1" height="3" fill="#3F8A35"/><rect x="98" y="110" width="1" height="2" fill="#3F8A35"/></g><g fill="#3F8A35"><rect x="118" y="110" width="1" height="2" fill="#3F8A35"/><rect x="120" y="109" width="1" height="3" fill="#3F8A35"/><rect x="122" y="110" width="1" height="2" fill="#3F8A35"/></g><g fill="#3F8A35"><rect x="160" y="110" width="1" height="2" fill="#3F8A35"/><rect x="162" y="109" width="1" height="3" fill="#3F8A35"/><rect x="164" y="110" width="1" height="2" fill="#3F8A35"/></g><g fill="#3F8A35"><rect x="188" y="110" width="1" height="2" fill="#3F8A35"/><rect x="190" y="109" width="1" height="3" fill="#3F8A35"/><rect x="192" y="110" width="1" height="2" fill="#3F8A35"/></g><g fill="#3F8A35"><rect x="216" y="110" width="1" height="2" fill="#3F8A35"/><rect x="218" y="109" width="1" height="3" fill="#3F8A35"/><rect x="220" y="110" width="1" height="2" fill="#3F8A35"/></g><g fill="#3F8A35"><rect x="300" y="110" width="1" height="2" fill="#3F8A35"/><rect x="302" y="109" width="1" height="3" fill="#3F8A35"/><rect x="304" y="110" width="1" height="2" fill="#3F8A35"/></g><g fill="#3F8A35"><rect x="312" y="110" width="1" height="2" fill="#3F8A35"/><rect x="314" y="109" width="1" height="3" fill="#3F8A35"/><rect x="316" y="110" width="1" height="2" fill="#3F8A35"/></g><g transform="translate(114 99)"><g class="walk"><g class="bob"><path fill="#4A3320" d="M2 0h2v1h-2zM1 1h4v1h-4zM1 2h1v1h-1zM4 2h1v1h-1z"/><path fill="#E0B08A" d="M2 2h2v1h-2zM1 3h4v1h-4zM2 4h2v1h-2zM0 7h1v1h-1zM5 7h1v1h-1zM0 8h1v1h-1zM5 8h1v1h-1z"/><path fill="#2F6A31" d="M1 5h4v1h-4zM0 6h6v1h-6zM1 7h4v1h-4zM1 8h4v1h-4z"/><path fill="#2A3A5A" d="M1 9h4v1h-4zM1 10h1v1h-1zM4 10h1v1h-1zM1 11h1v1h-1zM4 11h1v1h-1z"/><path fill="#262626" d="M1 12h1v1h-1zM4 12h1v1h-1z"/></g><g transform="translate(4 -13)"><g class="heart"><path fill="#262626" d="M1 0h9v1h-9zM0 1h1v1h-1zM10 1h1v1h-1zM0 2h1v1h-1zM10 2h1v1h-1zM0 3h1v1h-1zM10 3h1v1h-1zM0 4h1v1h-1zM10 4h1v1h-1zM0 5h1v1h-1zM10 5h1v1h-1zM0 6h1v1h-1zM10 6h1v1h-1zM0 7h1v1h-1zM10 7h1v1h-1zM1 8h9v1h-9zM3 9h2v1h-2zM3 10h1v1h-1z"/><path fill="#FFFFFF" d="M1 1h9v1h-9zM1 2h2v1h-2zM5 2h1v1h-1zM8 2h2v1h-2zM1 3h1v1h-1zM9 3h1v1h-1zM1 4h2v1h-2zM8 4h2v1h-2zM1 5h3v1h-3zM7 5h3v1h-3zM1 6h4v1h-4zM6 6h4v1h-4zM1 7h9v1h-9z"/><path fill="#B3261E" d="M3 2h2v1h-2zM6 2h2v1h-2zM2 3h7v1h-7zM3 4h5v1h-5zM4 5h3v1h-3zM5 6h1v1h-1z"/></g></g></g></g><g transform="translate(250 78)"><g class="courier"><g class="wu"><path fill="#111111" d="M5 0h2v1h-2zM4 1h2v1h-2zM3 2h2v1h-2zM7 3h1v1h-1zM6 4h2v1h-2z"/><path fill="#262626" d="M1 2h2v1h-2zM1 3h6v1h-6z"/><path fill="#F2A33A" d="M0 3h1v1h-1z"/><path fill="#5F6368" d="M2 4h3v1h-3z"/><rect x="1" y="2" width="1" height="1" fill="#111111"/></g><g class="wd"><path fill="#262626" d="M1 2h2v1h-2zM1 3h6v1h-6z"/><path fill="#F2A33A" d="M0 3h1v1h-1z"/><path fill="#111111" d="M7 3h1v1h-1zM3 4h2v1h-2zM6 4h2v1h-2zM3 5h2v1h-2zM5 6h1v1h-1z"/><path fill="#5F6368" d="M2 4h1v1h-1z"/><rect x="1" y="2" width="1" height="1" fill="#111111"/></g><rect x="0" y="5" width="3" height="3" fill="#FFFFFF"/><rect x="0" y="6" width="3" height="1" fill="#7A7F85"/></g></g><path fill="#262626" d="M89 7h16v4h-16zM89 11h4v4h-4zM105 11h4v4h-4zM89 15h4v4h-4zM105 15h4v4h-4zM89 19h4v4h-4zM105 19h4v4h-4zM89 23h4v4h-4zM105 23h4v4h-4zM89 27h4v4h-4zM105 27h4v4h-4zM89 31h16v4h-16zM117 7h12v4h-12zM113 11h4v4h-4zM129 11h4v4h-4zM113 15h4v4h-4zM129 15h4v4h-4zM113 19h4v4h-4zM129 19h4v4h-4zM113 23h4v4h-4zM129 23h4v4h-4zM113 27h4v4h-4zM129 27h4v4h-4zM117 31h12v4h-12zM141 7h12v4h-12zM137 11h4v4h-4zM153 11h4v4h-4zM137 15h4v4h-4zM137 19h4v4h-4zM137 23h4v4h-4zM137 27h4v4h-4zM153 27h4v4h-4zM141 31h12v4h-12zM161 7h4v4h-4zM177 7h4v4h-4zM161 11h4v4h-4zM173 11h4v4h-4zM161 15h4v4h-4zM169 15h4v4h-4zM161 19h8v4h-8zM161 23h4v4h-4zM169 23h4v4h-4zM161 27h4v4h-4zM173 27h4v4h-4zM161 31h4v4h-4zM177 31h4v4h-4zM185 7h20v4h-20zM185 11h4v4h-4zM185 15h4v4h-4zM185 19h16v4h-16zM185 23h4v4h-4zM185 27h4v4h-4zM185 31h20v4h-20zM209 7h20v4h-20zM217 11h4v4h-4zM217 15h4v4h-4zM217 19h4v4h-4zM217 23h4v4h-4zM217 27h4v4h-4zM217 31h4v4h-4z"/><path fill="#262626" d="M90 7h16v4h-16zM90 11h4v4h-4zM106 11h4v4h-4zM90 15h4v4h-4zM106 15h4v4h-4zM90 19h4v4h-4zM106 19h4v4h-4zM90 23h4v4h-4zM106 23h4v4h-4zM90 27h4v4h-4zM106 27h4v4h-4zM90 31h16v4h-16zM118 7h12v4h-12zM114 11h4v4h-4zM130 11h4v4h-4zM114 15h4v4h-4zM130 15h4v4h-4zM114 19h4v4h-4zM130 19h4v4h-4zM114 23h4v4h-4zM130 23h4v4h-4zM114 27h4v4h-4zM130 27h4v4h-4zM118 31h12v4h-12zM142 7h12v4h-12zM138 11h4v4h-4zM154 11h4v4h-4zM138 15h4v4h-4zM138 19h4v4h-4zM138 23h4v4h-4zM138 27h4v4h-4zM154 27h4v4h-4zM142 31h12v4h-12zM162 7h4v4h-4zM178 7h4v4h-4zM162 11h4v4h-4zM174 11h4v4h-4zM162 15h4v4h-4zM170 15h4v4h-4zM162 19h8v4h-8zM162 23h4v4h-4zM170 23h4v4h-4zM162 27h4v4h-4zM174 27h4v4h-4zM162 31h4v4h-4zM178 31h4v4h-4zM186 7h20v4h-20zM186 11h4v4h-4zM186 15h4v4h-4zM186 19h16v4h-16zM186 23h4v4h-4zM186 27h4v4h-4zM186 31h20v4h-20zM210 7h20v4h-20zM218 11h4v4h-4zM218 15h4v4h-4zM218 19h4v4h-4zM218 23h4v4h-4zM218 27h4v4h-4zM218 31h4v4h-4z"/><path fill="#262626" d="M91 7h16v4h-16zM91 11h4v4h-4zM107 11h4v4h-4zM91 15h4v4h-4zM107 15h4v4h-4zM91 19h4v4h-4zM107 19h4v4h-4zM91 23h4v4h-4zM107 23h4v4h-4zM91 27h4v4h-4zM107 27h4v4h-4zM91 31h16v4h-16zM119 7h12v4h-12zM115 11h4v4h-4zM131 11h4v4h-4zM115 15h4v4h-4zM131 15h4v4h-4zM115 19h4v4h-4zM131 19h4v4h-4zM115 23h4v4h-4zM131 23h4v4h-4zM115 27h4v4h-4zM131 27h4v4h-4zM119 31h12v4h-12zM143 7h12v4h-12zM139 11h4v4h-4zM155 11h4v4h-4zM139 15h4v4h-4zM139 19h4v4h-4zM139 23h4v4h-4zM139 27h4v4h-4zM155 27h4v4h-4zM143 31h12v4h-12zM163 7h4v4h-4zM179 7h4v4h-4zM163 11h4v4h-4zM175 11h4v4h-4zM163 15h4v4h-4zM171 15h4v4h-4zM163 19h8v4h-8zM163 23h4v4h-4zM171 23h4v4h-4zM163 27h4v4h-4zM175 27h4v4h-4zM163 31h4v4h-4zM179 31h4v4h-4zM187 7h20v4h-20zM187 11h4v4h-4zM187 15h4v4h-4zM187 19h16v4h-16zM187 23h4v4h-4zM187 27h4v4h-4zM187 31h20v4h-20zM211 7h20v4h-20zM219 11h4v4h-4zM219 15h4v4h-4zM219 19h4v4h-4zM219 23h4v4h-4zM219 27h4v4h-4zM219 31h4v4h-4z"/><path fill="#262626" d="M89 8h16v4h-16zM89 12h4v4h-4zM105 12h4v4h-4zM89 16h4v4h-4zM105 16h4v4h-4zM89 20h4v4h-4zM105 20h4v4h-4zM89 24h4v4h-4zM105 24h4v4h-4zM89 28h4v4h-4zM105 28h4v4h-4zM89 32h16v4h-16zM117 8h12v4h-12zM113 12h4v4h-4zM129 12h4v4h-4zM113 16h4v4h-4zM129 16h4v4h-4zM113 20h4v4h-4zM129 20h4v4h-4zM113 24h4v4h-4zM129 24h4v4h-4zM113 28h4v4h-4zM129 28h4v4h-4zM117 32h12v4h-12zM141 8h12v4h-12zM137 12h4v4h-4zM153 12h4v4h-4zM137 16h4v4h-4zM137 20h4v4h-4zM137 24h4v4h-4zM137 28h4v4h-4zM153 28h4v4h-4zM141 32h12v4h-12zM161 8h4v4h-4zM177 8h4v4h-4zM161 12h4v4h-4zM173 12h4v4h-4zM161 16h4v4h-4zM169 16h4v4h-4zM161 20h8v4h-8zM161 24h4v4h-4zM169 24h4v4h-4zM161 28h4v4h-4zM173 28h4v4h-4zM161 32h4v4h-4zM177 32h4v4h-4zM185 8h20v4h-20zM185 12h4v4h-4zM185 16h4v4h-4zM185 20h16v4h-16zM185 24h4v4h-4zM185 28h4v4h-4zM185 32h20v4h-20zM209 8h20v4h-20zM217 12h4v4h-4zM217 16h4v4h-4zM217 20h4v4h-4zM217 24h4v4h-4zM217 28h4v4h-4zM217 32h4v4h-4z"/><path fill="#262626" d="M90 8h16v4h-16zM90 12h4v4h-4zM106 12h4v4h-4zM90 16h4v4h-4zM106 16h4v4h-4zM90 20h4v4h-4zM106 20h4v4h-4zM90 24h4v4h-4zM106 24h4v4h-4zM90 28h4v4h-4zM106 28h4v4h-4zM90 32h16v4h-16zM118 8h12v4h-12zM114 12h4v4h-4zM130 12h4v4h-4zM114 16h4v4h-4zM130 16h4v4h-4zM114 20h4v4h-4zM130 20h4v4h-4zM114 24h4v4h-4zM130 24h4v4h-4zM114 28h4v4h-4zM130 28h4v4h-4zM118 32h12v4h-12zM142 8h12v4h-12zM138 12h4v4h-4zM154 12h4v4h-4zM138 16h4v4h-4zM138 20h4v4h-4zM138 24h4v4h-4zM138 28h4v4h-4zM154 28h4v4h-4zM142 32h12v4h-12zM162 8h4v4h-4zM178 8h4v4h-4zM162 12h4v4h-4zM174 12h4v4h-4zM162 16h4v4h-4zM170 16h4v4h-4zM162 20h8v4h-8zM162 24h4v4h-4zM170 24h4v4h-4zM162 28h4v4h-4zM174 28h4v4h-4zM162 32h4v4h-4zM178 32h4v4h-4zM186 8h20v4h-20zM186 12h4v4h-4zM186 16h4v4h-4zM186 20h16v4h-16zM186 24h4v4h-4zM186 28h4v4h-4zM186 32h20v4h-20zM210 8h20v4h-20zM218 12h4v4h-4zM218 16h4v4h-4zM218 20h4v4h-4zM218 24h4v4h-4zM218 28h4v4h-4zM218 32h4v4h-4z"/><path fill="#262626" d="M91 8h16v4h-16zM91 12h4v4h-4zM107 12h4v4h-4zM91 16h4v4h-4zM107 16h4v4h-4zM91 20h4v4h-4zM107 20h4v4h-4zM91 24h4v4h-4zM107 24h4v4h-4zM91 28h4v4h-4zM107 28h4v4h-4zM91 32h16v4h-16zM119 8h12v4h-12zM115 12h4v4h-4zM131 12h4v4h-4zM115 16h4v4h-4zM131 16h4v4h-4zM115 20h4v4h-4zM131 20h4v4h-4zM115 24h4v4h-4zM131 24h4v4h-4zM115 28h4v4h-4zM131 28h4v4h-4zM119 32h12v4h-12zM143 8h12v4h-12zM139 12h4v4h-4zM155 12h4v4h-4zM139 16h4v4h-4zM139 20h4v4h-4zM139 24h4v4h-4zM139 28h4v4h-4zM155 28h4v4h-4zM143 32h12v4h-12zM163 8h4v4h-4zM179 8h4v4h-4zM163 12h4v4h-4zM175 12h4v4h-4zM163 16h4v4h-4zM171 16h4v4h-4zM163 20h8v4h-8zM163 24h4v4h-4zM171 24h4v4h-4zM163 28h4v4h-4zM175 28h4v4h-4zM163 32h4v4h-4zM179 32h4v4h-4zM187 8h20v4h-20zM187 12h4v4h-4zM187 16h4v4h-4zM187 20h16v4h-16zM187 24h4v4h-4zM187 28h4v4h-4zM187 32h20v4h-20zM211 8h20v4h-20zM219 12h4v4h-4zM219 16h4v4h-4zM219 20h4v4h-4zM219 24h4v4h-4zM219 28h4v4h-4zM219 32h4v4h-4z"/><path fill="#262626" d="M89 9h16v4h-16zM89 13h4v4h-4zM105 13h4v4h-4zM89 17h4v4h-4zM105 17h4v4h-4zM89 21h4v4h-4zM105 21h4v4h-4zM89 25h4v4h-4zM105 25h4v4h-4zM89 29h4v4h-4zM105 29h4v4h-4zM89 33h16v4h-16zM117 9h12v4h-12zM113 13h4v4h-4zM129 13h4v4h-4zM113 17h4v4h-4zM129 17h4v4h-4zM113 21h4v4h-4zM129 21h4v4h-4zM113 25h4v4h-4zM129 25h4v4h-4zM113 29h4v4h-4zM129 29h4v4h-4zM117 33h12v4h-12zM141 9h12v4h-12zM137 13h4v4h-4zM153 13h4v4h-4zM137 17h4v4h-4zM137 21h4v4h-4zM137 25h4v4h-4zM137 29h4v4h-4zM153 29h4v4h-4zM141 33h12v4h-12zM161 9h4v4h-4zM177 9h4v4h-4zM161 13h4v4h-4zM173 13h4v4h-4zM161 17h4v4h-4zM169 17h4v4h-4zM161 21h8v4h-8zM161 25h4v4h-4zM169 25h4v4h-4zM161 29h4v4h-4zM173 29h4v4h-4zM161 33h4v4h-4zM177 33h4v4h-4zM185 9h20v4h-20zM185 13h4v4h-4zM185 17h4v4h-4zM185 21h16v4h-16zM185 25h4v4h-4zM185 29h4v4h-4zM185 33h20v4h-20zM209 9h20v4h-20zM217 13h4v4h-4zM217 17h4v4h-4zM217 21h4v4h-4zM217 25h4v4h-4zM217 29h4v4h-4zM217 33h4v4h-4z"/><path fill="#262626" d="M90 9h16v4h-16zM90 13h4v4h-4zM106 13h4v4h-4zM90 17h4v4h-4zM106 17h4v4h-4zM90 21h4v4h-4zM106 21h4v4h-4zM90 25h4v4h-4zM106 25h4v4h-4zM90 29h4v4h-4zM106 29h4v4h-4zM90 33h16v4h-16zM118 9h12v4h-12zM114 13h4v4h-4zM130 13h4v4h-4zM114 17h4v4h-4zM130 17h4v4h-4zM114 21h4v4h-4zM130 21h4v4h-4zM114 25h4v4h-4zM130 25h4v4h-4zM114 29h4v4h-4zM130 29h4v4h-4zM118 33h12v4h-12zM142 9h12v4h-12zM138 13h4v4h-4zM154 13h4v4h-4zM138 17h4v4h-4zM138 21h4v4h-4zM138 25h4v4h-4zM138 29h4v4h-4zM154 29h4v4h-4zM142 33h12v4h-12zM162 9h4v4h-4zM178 9h4v4h-4zM162 13h4v4h-4zM174 13h4v4h-4zM162 17h4v4h-4zM170 17h4v4h-4zM162 21h8v4h-8zM162 25h4v4h-4zM170 25h4v4h-4zM162 29h4v4h-4zM174 29h4v4h-4zM162 33h4v4h-4zM178 33h4v4h-4zM186 9h20v4h-20zM186 13h4v4h-4zM186 17h4v4h-4zM186 21h16v4h-16zM186 25h4v4h-4zM186 29h4v4h-4zM186 33h20v4h-20zM210 9h20v4h-20zM218 13h4v4h-4zM218 17h4v4h-4zM218 21h4v4h-4zM218 25h4v4h-4zM218 29h4v4h-4zM218 33h4v4h-4z"/><path fill="#262626" d="M91 9h16v4h-16zM91 13h4v4h-4zM107 13h4v4h-4zM91 17h4v4h-4zM107 17h4v4h-4zM91 21h4v4h-4zM107 21h4v4h-4zM91 25h4v4h-4zM107 25h4v4h-4zM91 29h4v4h-4zM107 29h4v4h-4zM91 33h16v4h-16zM119 9h12v4h-12zM115 13h4v4h-4zM131 13h4v4h-4zM115 17h4v4h-4zM131 17h4v4h-4zM115 21h4v4h-4zM131 21h4v4h-4zM115 25h4v4h-4zM131 25h4v4h-4zM115 29h4v4h-4zM131 29h4v4h-4zM119 33h12v4h-12zM143 9h12v4h-12zM139 13h4v4h-4zM155 13h4v4h-4zM139 17h4v4h-4zM139 21h4v4h-4zM139 25h4v4h-4zM139 29h4v4h-4zM155 29h4v4h-4zM143 33h12v4h-12zM163 9h4v4h-4zM179 9h4v4h-4zM163 13h4v4h-4zM175 13h4v4h-4zM163 17h4v4h-4zM171 17h4v4h-4zM163 21h8v4h-8zM163 25h4v4h-4zM171 25h4v4h-4zM163 29h4v4h-4zM175 29h4v4h-4zM163 33h4v4h-4zM179 33h4v4h-4zM187 9h20v4h-20zM187 13h4v4h-4zM187 17h4v4h-4zM187 21h16v4h-16zM187 25h4v4h-4zM187 29h4v4h-4zM187 33h20v4h-20zM211 9h20v4h-20zM219 13h4v4h-4zM219 17h4v4h-4zM219 21h4v4h-4zM219 25h4v4h-4zM219 29h4v4h-4zM219 33h4v4h-4z"/><path fill="#262626" d="M89 10h16v4h-16zM89 14h4v4h-4zM105 14h4v4h-4zM89 18h4v4h-4zM105 18h4v4h-4zM89 22h4v4h-4zM105 22h4v4h-4zM89 26h4v4h-4zM105 26h4v4h-4zM89 30h4v4h-4zM105 30h4v4h-4zM89 34h16v4h-16zM117 10h12v4h-12zM113 14h4v4h-4zM129 14h4v4h-4zM113 18h4v4h-4zM129 18h4v4h-4zM113 22h4v4h-4zM129 22h4v4h-4zM113 26h4v4h-4zM129 26h4v4h-4zM113 30h4v4h-4zM129 30h4v4h-4zM117 34h12v4h-12zM141 10h12v4h-12zM137 14h4v4h-4zM153 14h4v4h-4zM137 18h4v4h-4zM137 22h4v4h-4zM137 26h4v4h-4zM137 30h4v4h-4zM153 30h4v4h-4zM141 34h12v4h-12zM161 10h4v4h-4zM177 10h4v4h-4zM161 14h4v4h-4zM173 14h4v4h-4zM161 18h4v4h-4zM169 18h4v4h-4zM161 22h8v4h-8zM161 26h4v4h-4zM169 26h4v4h-4zM161 30h4v4h-4zM173 30h4v4h-4zM161 34h4v4h-4zM177 34h4v4h-4zM185 10h20v4h-20zM185 14h4v4h-4zM185 18h4v4h-4zM185 22h16v4h-16zM185 26h4v4h-4zM185 30h4v4h-4zM185 34h20v4h-20zM209 10h20v4h-20zM217 14h4v4h-4zM217 18h4v4h-4zM217 22h4v4h-4zM217 26h4v4h-4zM217 30h4v4h-4zM217 34h4v4h-4z"/><path fill="#262626" d="M90 10h16v4h-16zM90 14h4v4h-4zM106 14h4v4h-4zM90 18h4v4h-4zM106 18h4v4h-4zM90 22h4v4h-4zM106 22h4v4h-4zM90 26h4v4h-4zM106 26h4v4h-4zM90 30h4v4h-4zM106 30h4v4h-4zM90 34h16v4h-16zM118 10h12v4h-12zM114 14h4v4h-4zM130 14h4v4h-4zM114 18h4v4h-4zM130 18h4v4h-4zM114 22h4v4h-4zM130 22h4v4h-4zM114 26h4v4h-4zM130 26h4v4h-4zM114 30h4v4h-4zM130 30h4v4h-4zM118 34h12v4h-12zM142 10h12v4h-12zM138 14h4v4h-4zM154 14h4v4h-4zM138 18h4v4h-4zM138 22h4v4h-4zM138 26h4v4h-4zM138 30h4v4h-4zM154 30h4v4h-4zM142 34h12v4h-12zM162 10h4v4h-4zM178 10h4v4h-4zM162 14h4v4h-4zM174 14h4v4h-4zM162 18h4v4h-4zM170 18h4v4h-4zM162 22h8v4h-8zM162 26h4v4h-4zM170 26h4v4h-4zM162 30h4v4h-4zM174 30h4v4h-4zM162 34h4v4h-4zM178 34h4v4h-4zM186 10h20v4h-20zM186 14h4v4h-4zM186 18h4v4h-4zM186 22h16v4h-16zM186 26h4v4h-4zM186 30h4v4h-4zM186 34h20v4h-20zM210 10h20v4h-20zM218 14h4v4h-4zM218 18h4v4h-4zM218 22h4v4h-4zM218 26h4v4h-4zM218 30h4v4h-4zM218 34h4v4h-4z"/><path fill="#262626" d="M91 10h16v4h-16zM91 14h4v4h-4zM107 14h4v4h-4zM91 18h4v4h-4zM107 18h4v4h-4zM91 22h4v4h-4zM107 22h4v4h-4zM91 26h4v4h-4zM107 26h4v4h-4zM91 30h4v4h-4zM107 30h4v4h-4zM91 34h16v4h-16zM119 10h12v4h-12zM115 14h4v4h-4zM131 14h4v4h-4zM115 18h4v4h-4zM131 18h4v4h-4zM115 22h4v4h-4zM131 22h4v4h-4zM115 26h4v4h-4zM131 26h4v4h-4zM115 30h4v4h-4zM131 30h4v4h-4zM119 34h12v4h-12zM143 10h12v4h-12zM139 14h4v4h-4zM155 14h4v4h-4zM139 18h4v4h-4zM139 22h4v4h-4zM139 26h4v4h-4zM139 30h4v4h-4zM155 30h4v4h-4zM143 34h12v4h-12zM163 10h4v4h-4zM179 10h4v4h-4zM163 14h4v4h-4zM175 14h4v4h-4zM163 18h4v4h-4zM171 18h4v4h-4zM163 22h8v4h-8zM163 26h4v4h-4zM171 26h4v4h-4zM163 30h4v4h-4zM175 30h4v4h-4zM163 34h4v4h-4zM179 34h4v4h-4zM187 10h20v4h-20zM187 14h4v4h-4zM187 18h4v4h-4zM187 22h16v4h-16zM187 26h4v4h-4zM187 30h4v4h-4zM187 34h20v4h-20zM211 10h20v4h-20zM219 14h4v4h-4zM219 18h4v4h-4zM219 22h4v4h-4zM219 26h4v4h-4zM219 30h4v4h-4zM219 34h4v4h-4z"/><path fill="#262626" d="M89 11h16v4h-16zM89 15h4v4h-4zM105 15h4v4h-4zM89 19h4v4h-4zM105 19h4v4h-4zM89 23h4v4h-4zM105 23h4v4h-4zM89 27h4v4h-4zM105 27h4v4h-4zM89 31h4v4h-4zM105 31h4v4h-4zM89 35h16v4h-16zM117 11h12v4h-12zM113 15h4v4h-4zM129 15h4v4h-4zM113 19h4v4h-4zM129 19h4v4h-4zM113 23h4v4h-4zM129 23h4v4h-4zM113 27h4v4h-4zM129 27h4v4h-4zM113 31h4v4h-4zM129 31h4v4h-4zM117 35h12v4h-12zM141 11h12v4h-12zM137 15h4v4h-4zM153 15h4v4h-4zM137 19h4v4h-4zM137 23h4v4h-4zM137 27h4v4h-4zM137 31h4v4h-4zM153 31h4v4h-4zM141 35h12v4h-12zM161 11h4v4h-4zM177 11h4v4h-4zM161 15h4v4h-4zM173 15h4v4h-4zM161 19h4v4h-4zM169 19h4v4h-4zM161 23h8v4h-8zM161 27h4v4h-4zM169 27h4v4h-4zM161 31h4v4h-4zM173 31h4v4h-4zM161 35h4v4h-4zM177 35h4v4h-4zM185 11h20v4h-20zM185 15h4v4h-4zM185 19h4v4h-4zM185 23h16v4h-16zM185 27h4v4h-4zM185 31h4v4h-4zM185 35h20v4h-20zM209 11h20v4h-20zM217 15h4v4h-4zM217 19h4v4h-4zM217 23h4v4h-4zM217 27h4v4h-4zM217 31h4v4h-4zM217 35h4v4h-4z"/><path fill="#262626" d="M90 11h16v4h-16zM90 15h4v4h-4zM106 15h4v4h-4zM90 19h4v4h-4zM106 19h4v4h-4zM90 23h4v4h-4zM106 23h4v4h-4zM90 27h4v4h-4zM106 27h4v4h-4zM90 31h4v4h-4zM106 31h4v4h-4zM90 35h16v4h-16zM118 11h12v4h-12zM114 15h4v4h-4zM130 15h4v4h-4zM114 19h4v4h-4zM130 19h4v4h-4zM114 23h4v4h-4zM130 23h4v4h-4zM114 27h4v4h-4zM130 27h4v4h-4zM114 31h4v4h-4zM130 31h4v4h-4zM118 35h12v4h-12zM142 11h12v4h-12zM138 15h4v4h-4zM154 15h4v4h-4zM138 19h4v4h-4zM138 23h4v4h-4zM138 27h4v4h-4zM138 31h4v4h-4zM154 31h4v4h-4zM142 35h12v4h-12zM162 11h4v4h-4zM178 11h4v4h-4zM162 15h4v4h-4zM174 15h4v4h-4zM162 19h4v4h-4zM170 19h4v4h-4zM162 23h8v4h-8zM162 27h4v4h-4zM170 27h4v4h-4zM162 31h4v4h-4zM174 31h4v4h-4zM162 35h4v4h-4zM178 35h4v4h-4zM186 11h20v4h-20zM186 15h4v4h-4zM186 19h4v4h-4zM186 23h16v4h-16zM186 27h4v4h-4zM186 31h4v4h-4zM186 35h20v4h-20zM210 11h20v4h-20zM218 15h4v4h-4zM218 19h4v4h-4zM218 23h4v4h-4zM218 27h4v4h-4zM218 31h4v4h-4zM218 35h4v4h-4z"/><path fill="#262626" d="M91 11h16v4h-16zM91 15h4v4h-4zM107 15h4v4h-4zM91 19h4v4h-4zM107 19h4v4h-4zM91 23h4v4h-4zM107 23h4v4h-4zM91 27h4v4h-4zM107 27h4v4h-4zM91 31h4v4h-4zM107 31h4v4h-4zM91 35h16v4h-16zM119 11h12v4h-12zM115 15h4v4h-4zM131 15h4v4h-4zM115 19h4v4h-4zM131 19h4v4h-4zM115 23h4v4h-4zM131 23h4v4h-4zM115 27h4v4h-4zM131 27h4v4h-4zM115 31h4v4h-4zM131 31h4v4h-4zM119 35h12v4h-12zM143 11h12v4h-12zM139 15h4v4h-4zM155 15h4v4h-4zM139 19h4v4h-4zM139 23h4v4h-4zM139 27h4v4h-4zM139 31h4v4h-4zM155 31h4v4h-4zM143 35h12v4h-12zM163 11h4v4h-4zM179 11h4v4h-4zM163 15h4v4h-4zM175 15h4v4h-4zM163 19h4v4h-4zM171 19h4v4h-4zM163 23h8v4h-8zM163 27h4v4h-4zM171 27h4v4h-4zM163 31h4v4h-4zM175 31h4v4h-4zM163 35h4v4h-4zM179 35h4v4h-4zM187 11h20v4h-20zM187 15h4v4h-4zM187 19h4v4h-4zM187 23h16v4h-16zM187 27h4v4h-4zM187 31h4v4h-4zM187 35h20v4h-20zM211 11h20v4h-20zM219 15h4v4h-4zM219 19h4v4h-4zM219 23h4v4h-4zM219 27h4v4h-4zM219 31h4v4h-4zM219 35h4v4h-4z"/><path fill="#262626" d="M89 12h16v4h-16zM89 16h4v4h-4zM105 16h4v4h-4zM89 20h4v4h-4zM105 20h4v4h-4zM89 24h4v4h-4zM105 24h4v4h-4zM89 28h4v4h-4zM105 28h4v4h-4zM89 32h4v4h-4zM105 32h4v4h-4zM89 36h16v4h-16zM117 12h12v4h-12zM113 16h4v4h-4zM129 16h4v4h-4zM113 20h4v4h-4zM129 20h4v4h-4zM113 24h4v4h-4zM129 24h4v4h-4zM113 28h4v4h-4zM129 28h4v4h-4zM113 32h4v4h-4zM129 32h4v4h-4zM117 36h12v4h-12zM141 12h12v4h-12zM137 16h4v4h-4zM153 16h4v4h-4zM137 20h4v4h-4zM137 24h4v4h-4zM137 28h4v4h-4zM137 32h4v4h-4zM153 32h4v4h-4zM141 36h12v4h-12zM161 12h4v4h-4zM177 12h4v4h-4zM161 16h4v4h-4zM173 16h4v4h-4zM161 20h4v4h-4zM169 20h4v4h-4zM161 24h8v4h-8zM161 28h4v4h-4zM169 28h4v4h-4zM161 32h4v4h-4zM173 32h4v4h-4zM161 36h4v4h-4zM177 36h4v4h-4zM185 12h20v4h-20zM185 16h4v4h-4zM185 20h4v4h-4zM185 24h16v4h-16zM185 28h4v4h-4zM185 32h4v4h-4zM185 36h20v4h-20zM209 12h20v4h-20zM217 16h4v4h-4zM217 20h4v4h-4zM217 24h4v4h-4zM217 28h4v4h-4zM217 32h4v4h-4zM217 36h4v4h-4z"/><path fill="#262626" d="M90 12h16v4h-16zM90 16h4v4h-4zM106 16h4v4h-4zM90 20h4v4h-4zM106 20h4v4h-4zM90 24h4v4h-4zM106 24h4v4h-4zM90 28h4v4h-4zM106 28h4v4h-4zM90 32h4v4h-4zM106 32h4v4h-4zM90 36h16v4h-16zM118 12h12v4h-12zM114 16h4v4h-4zM130 16h4v4h-4zM114 20h4v4h-4zM130 20h4v4h-4zM114 24h4v4h-4zM130 24h4v4h-4zM114 28h4v4h-4zM130 28h4v4h-4zM114 32h4v4h-4zM130 32h4v4h-4zM118 36h12v4h-12zM142 12h12v4h-12zM138 16h4v4h-4zM154 16h4v4h-4zM138 20h4v4h-4zM138 24h4v4h-4zM138 28h4v4h-4zM138 32h4v4h-4zM154 32h4v4h-4zM142 36h12v4h-12zM162 12h4v4h-4zM178 12h4v4h-4zM162 16h4v4h-4zM174 16h4v4h-4zM162 20h4v4h-4zM170 20h4v4h-4zM162 24h8v4h-8zM162 28h4v4h-4zM170 28h4v4h-4zM162 32h4v4h-4zM174 32h4v4h-4zM162 36h4v4h-4zM178 36h4v4h-4zM186 12h20v4h-20zM186 16h4v4h-4zM186 20h4v4h-4zM186 24h16v4h-16zM186 28h4v4h-4zM186 32h4v4h-4zM186 36h20v4h-20zM210 12h20v4h-20zM218 16h4v4h-4zM218 20h4v4h-4zM218 24h4v4h-4zM218 28h4v4h-4zM218 32h4v4h-4zM218 36h4v4h-4z"/><path fill="#262626" d="M91 12h16v4h-16zM91 16h4v4h-4zM107 16h4v4h-4zM91 20h4v4h-4zM107 20h4v4h-4zM91 24h4v4h-4zM107 24h4v4h-4zM91 28h4v4h-4zM107 28h4v4h-4zM91 32h4v4h-4zM107 32h4v4h-4zM91 36h16v4h-16zM119 12h12v4h-12zM115 16h4v4h-4zM131 16h4v4h-4zM115 20h4v4h-4zM131 20h4v4h-4zM115 24h4v4h-4zM131 24h4v4h-4zM115 28h4v4h-4zM131 28h4v4h-4zM115 32h4v4h-4zM131 32h4v4h-4zM119 36h12v4h-12zM143 12h12v4h-12zM139 16h4v4h-4zM155 16h4v4h-4zM139 20h4v4h-4zM139 24h4v4h-4zM139 28h4v4h-4zM139 32h4v4h-4zM155 32h4v4h-4zM143 36h12v4h-12zM163 12h4v4h-4zM179 12h4v4h-4zM163 16h4v4h-4zM175 16h4v4h-4zM163 20h4v4h-4zM171 20h4v4h-4zM163 24h8v4h-8zM163 28h4v4h-4zM171 28h4v4h-4zM163 32h4v4h-4zM175 32h4v4h-4zM163 36h4v4h-4zM179 36h4v4h-4zM187 12h20v4h-20zM187 16h4v4h-4zM187 20h4v4h-4zM187 24h16v4h-16zM187 28h4v4h-4zM187 32h4v4h-4zM187 36h20v4h-20zM211 12h20v4h-20zM219 16h4v4h-4zM219 20h4v4h-4zM219 24h4v4h-4zM219 28h4v4h-4zM219 32h4v4h-4zM219 36h4v4h-4z"/><path fill="#262626" d="M89 13h16v4h-16zM89 17h4v4h-4zM105 17h4v4h-4zM89 21h4v4h-4zM105 21h4v4h-4zM89 25h4v4h-4zM105 25h4v4h-4zM89 29h4v4h-4zM105 29h4v4h-4zM89 33h4v4h-4zM105 33h4v4h-4zM89 37h16v4h-16zM117 13h12v4h-12zM113 17h4v4h-4zM129 17h4v4h-4zM113 21h4v4h-4zM129 21h4v4h-4zM113 25h4v4h-4zM129 25h4v4h-4zM113 29h4v4h-4zM129 29h4v4h-4zM113 33h4v4h-4zM129 33h4v4h-4zM117 37h12v4h-12zM141 13h12v4h-12zM137 17h4v4h-4zM153 17h4v4h-4zM137 21h4v4h-4zM137 25h4v4h-4zM137 29h4v4h-4zM137 33h4v4h-4zM153 33h4v4h-4zM141 37h12v4h-12zM161 13h4v4h-4zM177 13h4v4h-4zM161 17h4v4h-4zM173 17h4v4h-4zM161 21h4v4h-4zM169 21h4v4h-4zM161 25h8v4h-8zM161 29h4v4h-4zM169 29h4v4h-4zM161 33h4v4h-4zM173 33h4v4h-4zM161 37h4v4h-4zM177 37h4v4h-4zM185 13h20v4h-20zM185 17h4v4h-4zM185 21h4v4h-4zM185 25h16v4h-16zM185 29h4v4h-4zM185 33h4v4h-4zM185 37h20v4h-20zM209 13h20v4h-20zM217 17h4v4h-4zM217 21h4v4h-4zM217 25h4v4h-4zM217 29h4v4h-4zM217 33h4v4h-4zM217 37h4v4h-4z"/><path fill="#262626" d="M90 13h16v4h-16zM90 17h4v4h-4zM106 17h4v4h-4zM90 21h4v4h-4zM106 21h4v4h-4zM90 25h4v4h-4zM106 25h4v4h-4zM90 29h4v4h-4zM106 29h4v4h-4zM90 33h4v4h-4zM106 33h4v4h-4zM90 37h16v4h-16zM118 13h12v4h-12zM114 17h4v4h-4zM130 17h4v4h-4zM114 21h4v4h-4zM130 21h4v4h-4zM114 25h4v4h-4zM130 25h4v4h-4zM114 29h4v4h-4zM130 29h4v4h-4zM114 33h4v4h-4zM130 33h4v4h-4zM118 37h12v4h-12zM142 13h12v4h-12zM138 17h4v4h-4zM154 17h4v4h-4zM138 21h4v4h-4zM138 25h4v4h-4zM138 29h4v4h-4zM138 33h4v4h-4zM154 33h4v4h-4zM142 37h12v4h-12zM162 13h4v4h-4zM178 13h4v4h-4zM162 17h4v4h-4zM174 17h4v4h-4zM162 21h4v4h-4zM170 21h4v4h-4zM162 25h8v4h-8zM162 29h4v4h-4zM170 29h4v4h-4zM162 33h4v4h-4zM174 33h4v4h-4zM162 37h4v4h-4zM178 37h4v4h-4zM186 13h20v4h-20zM186 17h4v4h-4zM186 21h4v4h-4zM186 25h16v4h-16zM186 29h4v4h-4zM186 33h4v4h-4zM186 37h20v4h-20zM210 13h20v4h-20zM218 17h4v4h-4zM218 21h4v4h-4zM218 25h4v4h-4zM218 29h4v4h-4zM218 33h4v4h-4zM218 37h4v4h-4z"/><path fill="#262626" d="M91 13h16v4h-16zM91 17h4v4h-4zM107 17h4v4h-4zM91 21h4v4h-4zM107 21h4v4h-4zM91 25h4v4h-4zM107 25h4v4h-4zM91 29h4v4h-4zM107 29h4v4h-4zM91 33h4v4h-4zM107 33h4v4h-4zM91 37h16v4h-16zM119 13h12v4h-12zM115 17h4v4h-4zM131 17h4v4h-4zM115 21h4v4h-4zM131 21h4v4h-4zM115 25h4v4h-4zM131 25h4v4h-4zM115 29h4v4h-4zM131 29h4v4h-4zM115 33h4v4h-4zM131 33h4v4h-4zM119 37h12v4h-12zM143 13h12v4h-12zM139 17h4v4h-4zM155 17h4v4h-4zM139 21h4v4h-4zM139 25h4v4h-4zM139 29h4v4h-4zM139 33h4v4h-4zM155 33h4v4h-4zM143 37h12v4h-12zM163 13h4v4h-4zM179 13h4v4h-4zM163 17h4v4h-4zM175 17h4v4h-4zM163 21h4v4h-4zM171 21h4v4h-4zM163 25h8v4h-8zM163 29h4v4h-4zM171 29h4v4h-4zM163 33h4v4h-4zM175 33h4v4h-4zM163 37h4v4h-4zM179 37h4v4h-4zM187 13h20v4h-20zM187 17h4v4h-4zM187 21h4v4h-4zM187 25h16v4h-16zM187 29h4v4h-4zM187 33h4v4h-4zM187 37h20v4h-20zM211 13h20v4h-20zM219 17h4v4h-4zM219 21h4v4h-4zM219 25h4v4h-4zM219 29h4v4h-4zM219 33h4v4h-4zM219 37h4v4h-4z"/><path fill="#4A4A4A" d="M90 12h16v4h-16zM90 16h4v4h-4zM106 16h4v4h-4zM90 20h4v4h-4zM106 20h4v4h-4zM90 24h4v4h-4zM106 24h4v4h-4zM90 28h4v4h-4zM106 28h4v4h-4zM90 32h4v4h-4zM106 32h4v4h-4zM90 36h16v4h-16zM118 12h12v4h-12zM114 16h4v4h-4zM130 16h4v4h-4zM114 20h4v4h-4zM130 20h4v4h-4zM114 24h4v4h-4zM130 24h4v4h-4zM114 28h4v4h-4zM130 28h4v4h-4zM114 32h4v4h-4zM130 32h4v4h-4zM118 36h12v4h-12zM142 12h12v4h-12zM138 16h4v4h-4zM154 16h4v4h-4zM138 20h4v4h-4zM138 24h4v4h-4zM138 28h4v4h-4zM138 32h4v4h-4zM154 32h4v4h-4zM142 36h12v4h-12zM162 12h4v4h-4zM178 12h4v4h-4zM162 16h4v4h-4zM174 16h4v4h-4zM162 20h4v4h-4zM170 20h4v4h-4zM162 24h8v4h-8zM162 28h4v4h-4zM170 28h4v4h-4zM162 32h4v4h-4zM174 32h4v4h-4zM162 36h4v4h-4zM178 36h4v4h-4zM186 12h20v4h-20zM186 16h4v4h-4zM186 20h4v4h-4zM186 24h16v4h-16zM186 28h4v4h-4zM186 32h4v4h-4zM186 36h20v4h-20zM210 12h20v4h-20zM218 16h4v4h-4zM218 20h4v4h-4zM218 24h4v4h-4zM218 28h4v4h-4zM218 32h4v4h-4zM218 36h4v4h-4z"/><path fill="#4A4A4A" d="M90 11h16v4h-16zM90 15h4v4h-4zM106 15h4v4h-4zM90 19h4v4h-4zM106 19h4v4h-4zM90 23h4v4h-4zM106 23h4v4h-4zM90 27h4v4h-4zM106 27h4v4h-4zM90 31h4v4h-4zM106 31h4v4h-4zM90 35h16v4h-16zM118 11h12v4h-12zM114 15h4v4h-4zM130 15h4v4h-4zM114 19h4v4h-4zM130 19h4v4h-4zM114 23h4v4h-4zM130 23h4v4h-4zM114 27h4v4h-4zM130 27h4v4h-4zM114 31h4v4h-4zM130 31h4v4h-4zM118 35h12v4h-12zM142 11h12v4h-12zM138 15h4v4h-4zM154 15h4v4h-4zM138 19h4v4h-4zM138 23h4v4h-4zM138 27h4v4h-4zM138 31h4v4h-4zM154 31h4v4h-4zM142 35h12v4h-12zM162 11h4v4h-4zM178 11h4v4h-4zM162 15h4v4h-4zM174 15h4v4h-4zM162 19h4v4h-4zM170 19h4v4h-4zM162 23h8v4h-8zM162 27h4v4h-4zM170 27h4v4h-4zM162 31h4v4h-4zM174 31h4v4h-4zM162 35h4v4h-4zM178 35h4v4h-4zM186 11h20v4h-20zM186 15h4v4h-4zM186 19h4v4h-4zM186 23h16v4h-16zM186 27h4v4h-4zM186 31h4v4h-4zM186 35h20v4h-20zM210 11h20v4h-20zM218 15h4v4h-4zM218 19h4v4h-4zM218 23h4v4h-4zM218 27h4v4h-4zM218 31h4v4h-4zM218 35h4v4h-4z"/><path fill="#6E6E6E" d="M90 10h16v4h-16zM90 14h4v4h-4zM106 14h4v4h-4zM90 18h4v4h-4zM106 18h4v4h-4zM90 22h4v4h-4zM106 22h4v4h-4zM90 26h4v4h-4zM106 26h4v4h-4zM90 30h4v4h-4zM106 30h4v4h-4zM90 34h16v4h-16zM118 10h12v4h-12zM114 14h4v4h-4zM130 14h4v4h-4zM114 18h4v4h-4zM130 18h4v4h-4zM114 22h4v4h-4zM130 22h4v4h-4zM114 26h4v4h-4zM130 26h4v4h-4zM114 30h4v4h-4zM130 30h4v4h-4zM118 34h12v4h-12zM142 10h12v4h-12zM138 14h4v4h-4zM154 14h4v4h-4zM138 18h4v4h-4zM138 22h4v4h-4zM138 26h4v4h-4zM138 30h4v4h-4zM154 30h4v4h-4zM142 34h12v4h-12zM162 10h4v4h-4zM178 10h4v4h-4zM162 14h4v4h-4zM174 14h4v4h-4zM162 18h4v4h-4zM170 18h4v4h-4zM162 22h8v4h-8zM162 26h4v4h-4zM170 26h4v4h-4zM162 30h4v4h-4zM174 30h4v4h-4zM162 34h4v4h-4zM178 34h4v4h-4zM186 10h20v4h-20zM186 14h4v4h-4zM186 18h4v4h-4zM186 22h16v4h-16zM186 26h4v4h-4zM186 30h4v4h-4zM186 34h20v4h-20zM210 10h20v4h-20zM218 14h4v4h-4zM218 18h4v4h-4zM218 22h4v4h-4zM218 26h4v4h-4zM218 30h4v4h-4zM218 34h4v4h-4z"/><path fill="#6E6E6E" d="M90 9h16v4h-16zM90 13h4v4h-4zM106 13h4v4h-4zM90 17h4v4h-4zM106 17h4v4h-4zM90 21h4v4h-4zM106 21h4v4h-4zM90 25h4v4h-4zM106 25h4v4h-4zM90 29h4v4h-4zM106 29h4v4h-4zM90 33h16v4h-16zM118 9h12v4h-12zM114 13h4v4h-4zM130 13h4v4h-4zM114 17h4v4h-4zM130 17h4v4h-4zM114 21h4v4h-4zM130 21h4v4h-4zM114 25h4v4h-4zM130 25h4v4h-4zM114 29h4v4h-4zM130 29h4v4h-4zM118 33h12v4h-12zM142 9h12v4h-12zM138 13h4v4h-4zM154 13h4v4h-4zM138 17h4v4h-4zM138 21h4v4h-4zM138 25h4v4h-4zM138 29h4v4h-4zM154 29h4v4h-4zM142 33h12v4h-12zM162 9h4v4h-4zM178 9h4v4h-4zM162 13h4v4h-4zM174 13h4v4h-4zM162 17h4v4h-4zM170 17h4v4h-4zM162 21h8v4h-8zM162 25h4v4h-4zM170 25h4v4h-4zM162 29h4v4h-4zM174 29h4v4h-4zM162 33h4v4h-4zM178 33h4v4h-4zM186 9h20v4h-20zM186 13h4v4h-4zM186 17h4v4h-4zM186 21h16v4h-16zM186 25h4v4h-4zM186 29h4v4h-4zM186 33h20v4h-20zM210 9h20v4h-20zM218 13h4v4h-4zM218 17h4v4h-4zM218 21h4v4h-4zM218 25h4v4h-4zM218 29h4v4h-4zM218 33h4v4h-4z"/><path fill="url(#title)" d="M90 8h16v4h-16zM90 12h4v4h-4zM106 12h4v4h-4zM90 16h4v4h-4zM106 16h4v4h-4zM90 20h4v4h-4zM106 20h4v4h-4zM90 24h4v4h-4zM106 24h4v4h-4zM90 28h4v4h-4zM106 28h4v4h-4zM90 32h16v4h-16zM118 8h12v4h-12zM114 12h4v4h-4zM130 12h4v4h-4zM114 16h4v4h-4zM130 16h4v4h-4zM114 20h4v4h-4zM130 20h4v4h-4zM114 24h4v4h-4zM130 24h4v4h-4zM114 28h4v4h-4zM130 28h4v4h-4zM118 32h12v4h-12zM142 8h12v4h-12zM138 12h4v4h-4zM154 12h4v4h-4zM138 16h4v4h-4zM138 20h4v4h-4zM138 24h4v4h-4zM138 28h4v4h-4zM154 28h4v4h-4zM142 32h12v4h-12zM162 8h4v4h-4zM178 8h4v4h-4zM162 12h4v4h-4zM174 12h4v4h-4zM162 16h4v4h-4zM170 16h4v4h-4zM162 20h8v4h-8zM162 24h4v4h-4zM170 24h4v4h-4zM162 28h4v4h-4zM174 28h4v4h-4zM162 32h4v4h-4zM178 32h4v4h-4zM186 8h20v4h-20zM186 12h4v4h-4zM186 16h4v4h-4zM186 20h16v4h-16zM186 24h4v4h-4zM186 28h4v4h-4zM186 32h20v4h-20zM210 8h20v4h-20zM218 12h4v4h-4zM218 16h4v4h-4zM218 20h4v4h-4zM218 24h4v4h-4zM218 28h4v4h-4zM218 32h4v4h-4z"/><g transform="translate(266 34) rotate(-14)" shape-rendering="geometricPrecision"><g class="pulse"><g class="sp0"><path fill="#3F3F15" d="M-37 -3h4v1h-4zM-37 -2h1v1h-1zM-33 -2h1v1h-1zM-37 -1h1v1h-1zM-33 -1h1v1h-1zM-37 0h4v1h-4zM-37 1h1v1h-1zM-35 1h1v1h-1zM-37 2h1v1h-1zM-34 2h1v1h-1zM-37 3h1v1h-1zM-33 3h1v1h-1zM-30 -1h3v1h-3zM-31 0h1v1h-1zM-27 0h1v1h-1zM-31 1h5v1h-5zM-31 2h1v1h-1zM-30 3h4v1h-4zM-24 -1h3v1h-3zM-21 0h1v1h-1zM-24 1h4v1h-4zM-25 2h1v1h-1zM-21 2h1v1h-1zM-24 3h4v1h-4zM-15 -3h1v1h-1zM-15 -2h1v1h-1zM-18 -1h2v1h-2zM-15 -1h1v1h-1zM-19 0h1v1h-1zM-16 0h2v1h-2zM-19 1h1v1h-1zM-15 1h1v1h-1zM-19 2h1v1h-1zM-15 2h1v1h-1zM-18 3h4v1h-4zM-12 -1h4v1h-4zM-13 0h1v1h-1zM-12 1h3v1h-3zM-9 2h1v1h-1zM-13 3h4v1h-4zM-2 -1h3v1h-3zM-3 0h1v1h-1zM-3 1h1v1h-1zM-3 2h1v1h-1zM1 2h1v1h-1zM-2 3h3v1h-3zM3 -3h1v1h-1zM3 -1h1v1h-1zM3 0h1v1h-1zM3 1h1v1h-1zM3 2h1v1h-1zM3 3h1v1h-1zM6 -3h1v1h-1zM6 -2h1v1h-1zM5 -1h4v1h-4zM6 0h1v1h-1zM6 1h1v1h-1zM6 2h1v1h-1zM7 3h2v1h-2zM10 -1h1v1h-1zM14 -1h1v1h-1zM10 0h1v1h-1zM14 0h1v1h-1zM10 1h1v1h-1zM14 1h1v1h-1zM11 2h4v1h-4zM14 3h1v1h-1zM10 4h4v1h-4zM20 -3h1v1h-1zM20 -2h1v1h-1zM20 -1h1v1h-1zM22 -1h2v1h-2zM20 0h2v1h-2zM24 0h1v1h-1zM20 1h1v1h-1zM24 1h1v1h-1zM20 2h1v1h-1zM24 2h1v1h-1zM20 3h1v1h-1zM24 3h1v1h-1zM27 -1h3v1h-3zM30 0h1v1h-1zM27 1h4v1h-4zM26 2h1v1h-1zM30 2h1v1h-1zM27 3h4v1h-4zM32 -3h1v1h-1zM32 -2h1v1h-1zM32 -1h1v1h-1zM32 0h1v1h-1zM32 1h1v1h-1zM32 2h1v1h-1zM33 3h1v1h-1zM35 -3h1v1h-1zM35 -2h1v1h-1zM35 -1h1v1h-1zM35 0h1v1h-1zM35 1h1v1h-1zM35 2h1v1h-1zM36 3h1v1h-1zM38 -3h1v1h-1zM38 -2h1v1h-1zM38 -1h1v1h-1zM38 0h1v1h-1zM38 1h1v1h-1zM38 3h1v1h-1z"/><path fill="#FFFF55" d="M-38 -4h4v1h-4zM-38 -3h1v1h-1zM-34 -3h1v1h-1zM-38 -2h1v1h-1zM-34 -2h1v1h-1zM-38 -1h4v1h-4zM-38 0h1v1h-1zM-36 0h1v1h-1zM-38 1h1v1h-1zM-35 1h1v1h-1zM-38 2h1v1h-1zM-34 2h1v1h-1zM-31 -2h3v1h-3zM-32 -1h1v1h-1zM-28 -1h1v1h-1zM-32 0h5v1h-5zM-32 1h1v1h-1zM-31 2h4v1h-4zM-25 -2h3v1h-3zM-22 -1h1v1h-1zM-25 0h4v1h-4zM-26 1h1v1h-1zM-22 1h1v1h-1zM-25 2h4v1h-4zM-16 -4h1v1h-1zM-16 -3h1v1h-1zM-19 -2h2v1h-2zM-16 -2h1v1h-1zM-20 -1h1v1h-1zM-17 -1h2v1h-2zM-20 0h1v1h-1zM-16 0h1v1h-1zM-20 1h1v1h-1zM-16 1h1v1h-1zM-19 2h4v1h-4zM-13 -2h4v1h-4zM-14 -1h1v1h-1zM-13 0h3v1h-3zM-10 1h1v1h-1zM-14 2h4v1h-4zM-3 -2h3v1h-3zM-4 -1h1v1h-1zM-4 0h1v1h-1zM-4 1h1v1h-1zM0 1h1v1h-1zM-3 2h3v1h-3zM2 -4h1v1h-1zM2 -2h1v1h-1zM2 -1h1v1h-1zM2 0h1v1h-1zM2 1h1v1h-1zM2 2h1v1h-1zM5 -4h1v1h-1zM5 -3h1v1h-1zM4 -2h4v1h-4zM5 -1h1v1h-1zM5 0h1v1h-1zM5 1h1v1h-1zM6 2h2v1h-2zM9 -2h1v1h-1zM13 -2h1v1h-1zM9 -1h1v1h-1zM13 -1h1v1h-1zM9 0h1v1h-1zM13 0h1v1h-1zM10 1h4v1h-4zM13 2h1v1h-1zM9 3h4v1h-4zM19 -4h1v1h-1zM19 -3h1v1h-1zM19 -2h1v1h-1zM21 -2h2v1h-2zM19 -1h2v1h-2zM23 -1h1v1h-1zM19 0h1v1h-1zM23 0h1v1h-1zM19 1h1v1h-1zM23 1h1v1h-1zM19 2h1v1h-1zM23 2h1v1h-1zM26 -2h3v1h-3zM29 -1h1v1h-1zM26 0h4v1h-4zM25 1h1v1h-1zM29 1h1v1h-1zM26 2h4v1h-4zM31 -4h1v1h-1zM31 -3h1v1h-1zM31 -2h1v1h-1zM31 -1h1v1h-1zM31 0h1v1h-1zM31 1h1v1h-1zM32 2h1v1h-1zM34 -4h1v1h-1zM34 -3h1v1h-1zM34 -2h1v1h-1zM34 -1h1v1h-1zM34 0h1v1h-1zM34 1h1v1h-1zM35 2h1v1h-1zM37 -4h1v1h-1zM37 -3h1v1h-1zM37 -2h1v1h-1zM37 -1h1v1h-1zM37 0h1v1h-1zM37 2h1v1h-1z"/></g><g class="sp1"><path fill="#3F3F15" d="M-43 -3h3v1h-3zM-44 -2h1v1h-1zM-40 -2h1v1h-1zM-40 -1h1v1h-1zM-42 0h2v1h-2zM-40 1h1v1h-1zM-44 2h1v1h-1zM-40 2h1v1h-1zM-43 3h3v1h-3zM-37 -3h3v1h-3zM-38 -2h1v1h-1zM-34 -2h1v1h-1zM-34 -1h1v1h-1zM-36 0h2v1h-2zM-37 1h1v1h-1zM-38 2h1v1h-1zM-38 3h5v1h-5zM-28 -1h4v1h-4zM-28 0h1v1h-1zM-24 0h1v1h-1zM-28 1h1v1h-1zM-24 1h1v1h-1zM-28 2h1v1h-1zM-24 2h1v1h-1zM-28 3h1v1h-1zM-24 3h1v1h-1zM-21 -1h3v1h-3zM-22 0h1v1h-1zM-18 0h1v1h-1zM-22 1h5v1h-5zM-22 2h1v1h-1zM-21 3h4v1h-4zM-16 -3h1v1h-1zM-16 -1h1v1h-1zM-16 0h1v1h-1zM-16 1h1v1h-1zM-16 2h1v1h-1zM-16 3h1v1h-1zM-13 -1h4v1h-4zM-14 0h1v1h-1zM-10 0h1v1h-1zM-14 1h1v1h-1zM-10 1h1v1h-1zM-13 2h4v1h-4zM-10 3h1v1h-1zM-14 4h4v1h-4zM-8 -3h1v1h-1zM-8 -2h1v1h-1zM-8 -1h1v1h-1zM-6 -1h2v1h-2zM-8 0h2v1h-2zM-4 0h1v1h-1zM-8 1h1v1h-1zM-4 1h1v1h-1zM-8 2h1v1h-1zM-4 2h1v1h-1zM-8 3h1v1h-1zM-4 3h1v1h-1zM-2 -3h1v1h-1zM-2 -2h1v1h-1zM-2 -1h1v1h-1zM0 -1h2v1h-2zM-2 0h2v1h-2zM2 0h1v1h-1zM-2 1h1v1h-1zM2 1h1v1h-1zM-2 2h1v1h-1zM2 2h1v1h-1zM-2 3h4v1h-4zM5 -1h3v1h-3zM4 0h1v1h-1zM8 0h1v1h-1zM4 1h1v1h-1zM8 1h1v1h-1zM4 2h1v1h-1zM8 2h1v1h-1zM5 3h3v1h-3zM10 -1h1v1h-1zM12 -1h2v1h-2zM10 0h2v1h-2zM14 0h1v1h-1zM10 1h1v1h-1zM10 2h1v1h-1zM10 3h1v1h-1zM16 -3h1v1h-1zM16 -2h1v1h-1zM16 -1h1v1h-1zM18 -1h2v1h-2zM16 0h2v1h-2zM20 0h1v1h-1zM16 1h1v1h-1zM20 1h1v1h-1zM16 2h1v1h-1zM20 2h1v1h-1zM16 3h1v1h-1zM20 3h1v1h-1zM23 -1h3v1h-3zM22 0h1v1h-1zM26 0h1v1h-1zM22 1h1v1h-1zM26 1h1v1h-1zM22 2h1v1h-1zM26 2h1v1h-1zM23 3h3v1h-3zM29 -1h3v1h-3zM28 0h1v1h-1zM32 0h1v1h-1zM28 1h1v1h-1zM32 1h1v1h-1zM28 2h1v1h-1zM32 2h1v1h-1zM29 3h3v1h-3zM38 -3h1v1h-1zM38 -2h1v1h-1zM35 -1h2v1h-2zM38 -1h1v1h-1zM34 0h1v1h-1zM37 0h2v1h-2zM34 1h1v1h-1zM38 1h1v1h-1zM34 2h1v1h-1zM38 2h1v1h-1zM35 3h4v1h-4zM41 -1h4v1h-4zM40 0h1v1h-1zM41 1h3v1h-3zM44 2h1v1h-1zM40 3h4v1h-4zM46 -3h1v1h-1zM46 -2h1v1h-1zM46 -1h1v1h-1zM46 0h1v1h-1zM46 1h1v1h-1zM46 3h1v1h-1z"/><path fill="#FFFF55" d="M-44 -4h3v1h-3zM-45 -3h1v1h-1zM-41 -3h1v1h-1zM-41 -2h1v1h-1zM-43 -1h2v1h-2zM-41 0h1v1h-1zM-45 1h1v1h-1zM-41 1h1v1h-1zM-44 2h3v1h-3zM-38 -4h3v1h-3zM-39 -3h1v1h-1zM-35 -3h1v1h-1zM-35 -2h1v1h-1zM-37 -1h2v1h-2zM-38 0h1v1h-1zM-39 1h1v1h-1zM-39 2h5v1h-5zM-29 -2h4v1h-4zM-29 -1h1v1h-1zM-25 -1h1v1h-1zM-29 0h1v1h-1zM-25 0h1v1h-1zM-29 1h1v1h-1zM-25 1h1v1h-1zM-29 2h1v1h-1zM-25 2h1v1h-1zM-22 -2h3v1h-3zM-23 -1h1v1h-1zM-19 -1h1v1h-1zM-23 0h5v1h-5zM-23 1h1v1h-1zM-22 2h4v1h-4zM-17 -4h1v1h-1zM-17 -2h1v1h-1zM-17 -1h1v1h-1zM-17 0h1v1h-1zM-17 1h1v1h-1zM-17 2h1v1h-1zM-14 -2h4v1h-4zM-15 -1h1v1h-1zM-11 -1h1v1h-1zM-15 0h1v1h-1zM-11 0h1v1h-1zM-14 1h4v1h-4zM-11 2h1v1h-1zM-15 3h4v1h-4zM-9 -4h1v1h-1zM-9 -3h1v1h-1zM-9 -2h1v1h-1zM-7 -2h2v1h-2zM-9 -1h2v1h-2zM-5 -1h1v1h-1zM-9 0h1v1h-1zM-5 0h1v1h-1zM-9 1h1v1h-1zM-5 1h1v1h-1zM-9 2h1v1h-1zM-5 2h1v1h-1zM-3 -4h1v1h-1zM-3 -3h1v1h-1zM-3 -2h1v1h-1zM-1 -2h2v1h-2zM-3 -1h2v1h-2zM1 -1h1v1h-1zM-3 0h1v1h-1zM1 0h1v1h-1zM-3 1h1v1h-1zM1 1h1v1h-1zM-3 2h4v1h-4zM4 -2h3v1h-3zM3 -1h1v1h-1zM7 -1h1v1h-1zM3 0h1v1h-1zM7 0h1v1h-1zM3 1h1v1h-1zM7 1h1v1h-1zM4 2h3v1h-3zM9 -2h1v1h-1zM11 -2h2v1h-2zM9 -1h2v1h-2zM13 -1h1v1h-1zM9 0h1v1h-1zM9 1h1v1h-1zM9 2h1v1h-1zM15 -4h1v1h-1zM15 -3h1v1h-1zM15 -2h1v1h-1zM17 -2h2v1h-2zM15 -1h2v1h-2zM19 -1h1v1h-1zM15 0h1v1h-1zM19 0h1v1h-1zM15 1h1v1h-1zM19 1h1v1h-1zM15 2h1v1h-1zM19 2h1v1h-1zM22 -2h3v1h-3zM21 -1h1v1h-1zM25 -1h1v1h-1zM21 0h1v1h-1zM25 0h1v1h-1zM21 1h1v1h-1zM25 1h1v1h-1zM22 2h3v1h-3zM28 -2h3v1h-3zM27 -1h1v1h-1zM31 -1h1v1h-1zM27 0h1v1h-1zM31 0h1v1h-1zM27 1h1v1h-1zM31 1h1v1h-1zM28 2h3v1h-3zM37 -4h1v1h-1zM37 -3h1v1h-1zM34 -2h2v1h-2zM37 -2h1v1h-1zM33 -1h1v1h-1zM36 -1h2v1h-2zM33 0h1v1h-1zM37 0h1v1h-1zM33 1h1v1h-1zM37 1h1v1h-1zM34 2h4v1h-4zM40 -2h4v1h-4zM39 -1h1v1h-1zM40 0h3v1h-3zM43 1h1v1h-1zM39 2h4v1h-4zM45 -4h1v1h-1zM45 -3h1v1h-1zM45 -2h1v1h-1zM45 -1h1v1h-1zM45 0h1v1h-1zM45 2h1v1h-1z"/></g><g class="sp2"><path fill="#3F3F15" d="M-42 -3h3v1h-3zM-43 -2h1v1h-1zM-39 -2h1v1h-1zM-43 -1h1v1h-1zM-43 0h1v1h-1zM-43 1h1v1h-1zM-43 2h1v1h-1zM-39 2h1v1h-1zM-42 3h3v1h-3zM-37 -3h1v1h-1zM-37 -1h1v1h-1zM-37 0h1v1h-1zM-37 1h1v1h-1zM-37 2h1v1h-1zM-37 3h1v1h-1zM-34 -3h1v1h-1zM-34 -2h1v1h-1zM-35 -1h4v1h-4zM-34 0h1v1h-1zM-34 1h1v1h-1zM-34 2h1v1h-1zM-33 3h2v1h-2zM-29 -1h3v1h-3zM-30 0h1v1h-1zM-26 0h1v1h-1zM-30 1h5v1h-5zM-30 2h1v1h-1zM-29 3h4v1h-4zM-23 -1h4v1h-4zM-24 0h1v1h-1zM-23 1h3v1h-3zM-20 2h1v1h-1zM-24 3h4v1h-4zM-14 -3h1v1h-1zM-14 -1h1v1h-1zM-14 0h1v1h-1zM-14 1h1v1h-1zM-14 2h1v1h-1zM-14 3h1v1h-1zM-11 -3h1v1h-1zM-11 -2h1v1h-1zM-12 -1h4v1h-4zM-11 0h1v1h-1zM-11 1h1v1h-1zM-11 2h1v1h-1zM-10 3h2v1h-2zM-6 -1h4v1h-4zM-7 0h1v1h-1zM-6 1h3v1h-3zM-3 2h1v1h-1zM-7 3h4v1h-4zM4 -1h4v1h-4zM3 0h1v1h-1zM4 1h3v1h-3zM7 2h1v1h-1zM3 3h4v1h-4zM10 -1h3v1h-3zM9 0h1v1h-1zM13 0h1v1h-1zM9 1h1v1h-1zM13 1h1v1h-1zM9 2h1v1h-1zM13 2h1v1h-1zM10 3h3v1h-3zM15 -1h1v1h-1zM19 -1h1v1h-1zM15 0h1v1h-1zM19 0h1v1h-1zM15 1h1v1h-1zM19 1h1v1h-1zM15 2h1v1h-1zM19 2h1v1h-1zM16 3h4v1h-4zM21 -1h1v1h-1zM23 -1h2v1h-2zM21 0h2v1h-2zM25 0h1v1h-1zM21 1h1v1h-1zM21 2h1v1h-1zM21 3h1v1h-1zM28 -1h3v1h-3zM27 0h1v1h-1zM27 1h1v1h-1zM27 2h1v1h-1zM31 2h1v1h-1zM28 3h3v1h-3zM34 -1h3v1h-3zM33 0h1v1h-1zM37 0h1v1h-1zM33 1h5v1h-5zM33 2h1v1h-1zM34 3h4v1h-4zM40 -1h4v1h-4zM39 0h1v1h-1zM40 1h3v1h-3zM43 2h1v1h-1zM39 3h4v1h-4zM45 -3h1v1h-1zM45 -2h1v1h-1zM45 -1h1v1h-1zM45 0h1v1h-1zM45 1h1v1h-1zM45 3h1v1h-1z"/><path fill="#FFFF55" d="M-43 -4h3v1h-3zM-44 -3h1v1h-1zM-40 -3h1v1h-1zM-44 -2h1v1h-1zM-44 -1h1v1h-1zM-44 0h1v1h-1zM-44 1h1v1h-1zM-40 1h1v1h-1zM-43 2h3v1h-3zM-38 -4h1v1h-1zM-38 -2h1v1h-1zM-38 -1h1v1h-1zM-38 0h1v1h-1zM-38 1h1v1h-1zM-38 2h1v1h-1zM-35 -4h1v1h-1zM-35 -3h1v1h-1zM-36 -2h4v1h-4zM-35 -1h1v1h-1zM-35 0h1v1h-1zM-35 1h1v1h-1zM-34 2h2v1h-2zM-30 -2h3v1h-3zM-31 -1h1v1h-1zM-27 -1h1v1h-1zM-31 0h5v1h-5zM-31 1h1v1h-1zM-30 2h4v1h-4zM-24 -2h4v1h-4zM-25 -1h1v1h-1zM-24 0h3v1h-3zM-21 1h1v1h-1zM-25 2h4v1h-4zM-15 -4h1v1h-1zM-15 -2h1v1h-1zM-15 -1h1v1h-1zM-15 0h1v1h-1zM-15 1h1v1h-1zM-15 2h1v1h-1zM-12 -4h1v1h-1zM-12 -3h1v1h-1zM-13 -2h4v1h-4zM-12 -1h1v1h-1zM-12 0h1v1h-1zM-12 1h1v1h-1zM-11 2h2v1h-2zM-7 -2h4v1h-4zM-8 -1h1v1h-1zM-7 0h3v1h-3zM-4 1h1v1h-1zM-8 2h4v1h-4zM3 -2h4v1h-4zM2 -1h1v1h-1zM3 0h3v1h-3zM6 1h1v1h-1zM2 2h4v1h-4zM9 -2h3v1h-3zM8 -1h1v1h-1zM12 -1h1v1h-1zM8 0h1v1h-1zM12 0h1v1h-1zM8 1h1v1h-1zM12 1h1v1h-1zM9 2h3v1h-3zM14 -2h1v1h-1zM18 -2h1v1h-1zM14 -1h1v1h-1zM18 -1h1v1h-1zM14 0h1v1h-1zM18 0h1v1h-1zM14 1h1v1h-1zM18 1h1v1h-1zM15 2h4v1h-4zM20 -2h1v1h-1zM22 -2h2v1h-2zM20 -1h2v1h-2zM24 -1h1v1h-1zM20 0h1v1h-1zM20 1h1v1h-1zM20 2h1v1h-1zM27 -2h3v1h-3zM26 -1h1v1h-1zM26 0h1v1h-1zM26 1h1v1h-1zM30 1h1v1h-1zM27 2h3v1h-3zM33 -2h3v1h-3zM32 -1h1v1h-1zM36 -1h1v1h-1zM32 0h5v1h-5zM32 1h1v1h-1zM33 2h4v1h-4zM39 -2h4v1h-4zM38 -1h1v1h-1zM39 0h3v1h-3zM42 1h1v1h-1zM38 2h4v1h-4zM44 -4h1v1h-1zM44 -3h1v1h-1zM44 -2h1v1h-1zM44 -1h1v1h-1zM44 0h1v1h-1zM44 2h1v1h-1z"/></g><g class="sp3"><path fill="#3F3F15" d="M-46 -3h1v1h-1zM-42 -3h1v1h-1zM-46 -2h2v1h-2zM-42 -2h1v1h-1zM-46 -1h1v1h-1zM-44 -1h1v1h-1zM-42 -1h1v1h-1zM-46 0h1v1h-1zM-43 0h2v1h-2zM-46 1h1v1h-1zM-42 1h1v1h-1zM-46 2h1v1h-1zM-42 2h1v1h-1zM-46 3h1v1h-1zM-42 3h1v1h-1zM-39 -1h3v1h-3zM-40 0h1v1h-1zM-36 0h1v1h-1zM-40 1h5v1h-5zM-40 2h1v1h-1zM-39 3h4v1h-4zM-34 -3h1v1h-1zM-34 -1h1v1h-1zM-34 0h1v1h-1zM-34 1h1v1h-1zM-34 2h1v1h-1zM-34 3h1v1h-1zM-31 -1h4v1h-4zM-32 0h1v1h-1zM-28 0h1v1h-1zM-32 1h1v1h-1zM-28 1h1v1h-1zM-31 2h4v1h-4zM-28 3h1v1h-1zM-32 4h4v1h-4zM-26 -3h1v1h-1zM-26 -2h1v1h-1zM-26 -1h1v1h-1zM-24 -1h2v1h-2zM-26 0h2v1h-2zM-22 0h1v1h-1zM-26 1h1v1h-1zM-22 1h1v1h-1zM-26 2h1v1h-1zM-22 2h1v1h-1zM-26 3h1v1h-1zM-22 3h1v1h-1zM-20 -3h1v1h-1zM-20 -2h1v1h-1zM-20 -1h1v1h-1zM-18 -1h2v1h-2zM-20 0h2v1h-2zM-16 0h1v1h-1zM-20 1h1v1h-1zM-16 1h1v1h-1zM-20 2h1v1h-1zM-16 2h1v1h-1zM-20 3h4v1h-4zM-13 -1h3v1h-3zM-14 0h1v1h-1zM-10 0h1v1h-1zM-14 1h1v1h-1zM-10 1h1v1h-1zM-14 2h1v1h-1zM-10 2h1v1h-1zM-13 3h3v1h-3zM-8 -1h1v1h-1zM-6 -1h2v1h-2zM-8 0h2v1h-2zM-4 0h1v1h-1zM-8 1h1v1h-1zM-8 2h1v1h-1zM-8 3h1v1h-1zM-1 -1h4v1h-4zM-2 0h1v1h-1zM-1 1h3v1h-3zM2 2h1v1h-1zM-2 3h4v1h-4zM8 -1h1v1h-1zM12 -1h1v1h-1zM8 0h1v1h-1zM12 0h1v1h-1zM8 1h1v1h-1zM10 1h1v1h-1zM12 1h1v1h-1zM8 2h1v1h-1zM10 2h1v1h-1zM12 2h1v1h-1zM9 3h4v1h-4zM15 -1h3v1h-3zM14 0h1v1h-1zM18 0h1v1h-1zM14 1h5v1h-5zM14 2h1v1h-1zM15 3h4v1h-4zM20 -3h1v1h-1zM20 -2h1v1h-1zM20 -1h1v1h-1zM20 0h1v1h-1zM20 1h1v1h-1zM20 2h1v1h-1zM21 3h1v1h-1zM24 -1h3v1h-3zM23 0h1v1h-1zM23 1h1v1h-1zM23 2h1v1h-1zM27 2h1v1h-1zM24 3h3v1h-3zM30 -1h3v1h-3zM29 0h1v1h-1zM33 0h1v1h-1zM29 1h1v1h-1zM33 1h1v1h-1zM29 2h1v1h-1zM33 2h1v1h-1zM30 3h3v1h-3zM35 -1h2v1h-2zM38 -1h1v1h-1zM35 0h1v1h-1zM37 0h1v1h-1zM39 0h1v1h-1zM35 1h1v1h-1zM37 1h1v1h-1zM39 1h1v1h-1zM35 2h1v1h-1zM39 2h1v1h-1zM35 3h1v1h-1zM39 3h1v1h-1zM42 -1h3v1h-3zM41 0h1v1h-1zM45 0h1v1h-1zM41 1h5v1h-5zM41 2h1v1h-1zM42 3h4v1h-4zM47 -3h1v1h-1zM47 -2h1v1h-1zM47 -1h1v1h-1zM47 0h1v1h-1zM47 1h1v1h-1zM47 3h1v1h-1z"/><path fill="#FFFF55" d="M-47 -4h1v1h-1zM-43 -4h1v1h-1zM-47 -3h2v1h-2zM-43 -3h1v1h-1zM-47 -2h1v1h-1zM-45 -2h1v1h-1zM-43 -2h1v1h-1zM-47 -1h1v1h-1zM-44 -1h2v1h-2zM-47 0h1v1h-1zM-43 0h1v1h-1zM-47 1h1v1h-1zM-43 1h1v1h-1zM-47 2h1v1h-1zM-43 2h1v1h-1zM-40 -2h3v1h-3zM-41 -1h1v1h-1zM-37 -1h1v1h-1zM-41 0h5v1h-5zM-41 1h1v1h-1zM-40 2h4v1h-4zM-35 -4h1v1h-1zM-35 -2h1v1h-1zM-35 -1h1v1h-1zM-35 0h1v1h-1zM-35 1h1v1h-1zM-35 2h1v1h-1zM-32 -2h4v1h-4zM-33 -1h1v1h-1zM-29 -1h1v1h-1zM-33 0h1v1h-1zM-29 0h1v1h-1zM-32 1h4v1h-4zM-29 2h1v1h-1zM-33 3h4v1h-4zM-27 -4h1v1h-1zM-27 -3h1v1h-1zM-27 -2h1v1h-1zM-25 -2h2v1h-2zM-27 -1h2v1h-2zM-23 -1h1v1h-1zM-27 0h1v1h-1zM-23 0h1v1h-1zM-27 1h1v1h-1zM-23 1h1v1h-1zM-27 2h1v1h-1zM-23 2h1v1h-1zM-21 -4h1v1h-1zM-21 -3h1v1h-1zM-21 -2h1v1h-1zM-19 -2h2v1h-2zM-21 -1h2v1h-2zM-17 -1h1v1h-1zM-21 0h1v1h-1zM-17 0h1v1h-1zM-21 1h1v1h-1zM-17 1h1v1h-1zM-21 2h4v1h-4zM-14 -2h3v1h-3zM-15 -1h1v1h-1zM-11 -1h1v1h-1zM-15 0h1v1h-1zM-11 0h1v1h-1zM-15 1h1v1h-1zM-11 1h1v1h-1zM-14 2h3v1h-3zM-9 -2h1v1h-1zM-7 -2h2v1h-2zM-9 -1h2v1h-2zM-5 -1h1v1h-1zM-9 0h1v1h-1zM-9 1h1v1h-1zM-9 2h1v1h-1zM-2 -2h4v1h-4zM-3 -1h1v1h-1zM-2 0h3v1h-3zM1 1h1v1h-1zM-3 2h4v1h-4zM7 -2h1v1h-1zM11 -2h1v1h-1zM7 -1h1v1h-1zM11 -1h1v1h-1zM7 0h1v1h-1zM9 0h1v1h-1zM11 0h1v1h-1zM7 1h1v1h-1zM9 1h1v1h-1zM11 1h1v1h-1zM8 2h4v1h-4zM14 -2h3v1h-3zM13 -1h1v1h-1zM17 -1h1v1h-1zM13 0h5v1h-5zM13 1h1v1h-1zM14 2h4v1h-4zM19 -4h1v1h-1zM19 -3h1v1h-1zM19 -2h1v1h-1zM19 -1h1v1h-1zM19 0h1v1h-1zM19 1h1v1h-1zM20 2h1v1h-1zM23 -2h3v1h-3zM22 -1h1v1h-1zM22 0h1v1h-1zM22 1h1v1h-1zM26 1h1v1h-1zM23 2h3v1h-3zM29 -2h3v1h-3zM28 -1h1v1h-1zM32 -1h1v1h-1zM28 0h1v1h-1zM32 0h1v1h-1zM28 1h1v1h-1zM32 1h1v1h-1zM29 2h3v1h-3zM34 -2h2v1h-2zM37 -2h1v1h-1zM34 -1h1v1h-1zM36 -1h1v1h-1zM38 -1h1v1h-1zM34 0h1v1h-1zM36 0h1v1h-1zM38 0h1v1h-1zM34 1h1v1h-1zM38 1h1v1h-1zM34 2h1v1h-1zM38 2h1v1h-1zM41 -2h3v1h-3zM40 -1h1v1h-1zM44 -1h1v1h-1zM40 0h5v1h-5zM40 1h1v1h-1zM41 2h4v1h-4zM46 -4h1v1h-1zM46 -3h1v1h-1zM46 -2h1v1h-1zM46 -1h1v1h-1zM46 0h1v1h-1zM46 2h1v1h-1z"/></g><g class="sp4"><path fill="#3F3F15" d="M-44 -3h1v1h-1zM-40 -3h1v1h-1zM-44 -2h2v1h-2zM-40 -2h1v1h-1zM-44 -1h1v1h-1zM-42 -1h1v1h-1zM-40 -1h1v1h-1zM-44 0h1v1h-1zM-41 0h2v1h-2zM-44 1h1v1h-1zM-40 1h1v1h-1zM-44 2h1v1h-1zM-40 2h1v1h-1zM-44 3h1v1h-1zM-40 3h1v1h-1zM-37 -1h3v1h-3zM-38 0h1v1h-1zM-34 0h1v1h-1zM-38 1h1v1h-1zM-34 1h1v1h-1zM-38 2h1v1h-1zM-34 2h1v1h-1zM-37 3h3v1h-3zM-32 -1h1v1h-1zM-28 -1h1v1h-1zM-32 0h1v1h-1zM-28 0h1v1h-1zM-32 1h1v1h-1zM-30 1h1v1h-1zM-28 1h1v1h-1zM-32 2h1v1h-1zM-30 2h1v1h-1zM-28 2h1v1h-1zM-31 3h4v1h-4zM-22 -1h1v1h-1zM-18 -1h1v1h-1zM-22 0h1v1h-1zM-18 0h1v1h-1zM-22 1h1v1h-1zM-20 1h1v1h-1zM-18 1h1v1h-1zM-22 2h1v1h-1zM-20 2h1v1h-1zM-18 2h1v1h-1zM-21 3h4v1h-4zM-16 -3h1v1h-1zM-16 -1h1v1h-1zM-16 0h1v1h-1zM-16 1h1v1h-1zM-16 2h1v1h-1zM-16 3h1v1h-1zM-13 -3h1v1h-1zM-13 -2h1v1h-1zM-14 -1h4v1h-4zM-13 0h1v1h-1zM-13 1h1v1h-1zM-13 2h1v1h-1zM-12 3h2v1h-2zM-9 -3h1v1h-1zM-9 -2h1v1h-1zM-9 -1h1v1h-1zM-7 -1h2v1h-2zM-9 0h2v1h-2zM-5 0h1v1h-1zM-9 1h1v1h-1zM-5 1h1v1h-1zM-9 2h1v1h-1zM-5 2h1v1h-1zM-9 3h1v1h-1zM-5 3h1v1h-1zM1 -3h1v1h-1zM1 -2h1v1h-1zM1 -1h1v1h-1zM1 0h1v1h-1zM1 1h1v1h-1zM1 2h1v1h-1zM2 3h1v1h-1zM4 -3h1v1h-1zM4 -1h1v1h-1zM4 0h1v1h-1zM4 1h1v1h-1zM4 2h1v1h-1zM4 3h1v1h-1zM6 -1h1v1h-1zM10 -1h1v1h-1zM6 0h1v1h-1zM10 0h1v1h-1zM6 1h1v1h-1zM10 1h1v1h-1zM7 2h1v1h-1zM9 2h1v1h-1zM8 3h1v1h-1zM13 -1h3v1h-3zM12 0h1v1h-1zM16 0h1v1h-1zM12 1h5v1h-5zM12 2h1v1h-1zM13 3h4v1h-4zM22 -1h4v1h-4zM22 0h1v1h-1zM26 0h1v1h-1zM22 1h1v1h-1zM26 1h1v1h-1zM22 2h1v1h-1zM26 2h1v1h-1zM22 3h1v1h-1zM26 3h1v1h-1zM29 -1h3v1h-3zM28 0h1v1h-1zM32 0h1v1h-1zM28 1h5v1h-5zM28 2h1v1h-1zM29 3h4v1h-4zM34 -1h1v1h-1zM38 -1h1v1h-1zM34 0h1v1h-1zM38 0h1v1h-1zM34 1h1v1h-1zM36 1h1v1h-1zM38 1h1v1h-1zM34 2h1v1h-1zM36 2h1v1h-1zM38 2h1v1h-1zM35 3h4v1h-4zM41 -1h4v1h-4zM40 0h1v1h-1zM41 1h3v1h-3zM44 2h1v1h-1zM40 3h4v1h-4zM46 -3h1v1h-1zM46 -2h1v1h-1zM46 -1h1v1h-1zM46 0h1v1h-1zM46 1h1v1h-1zM46 3h1v1h-1z"/><path fill="#FFFF55" d="M-45 -4h1v1h-1zM-41 -4h1v1h-1zM-45 -3h2v1h-2zM-41 -3h1v1h-1zM-45 -2h1v1h-1zM-43 -2h1v1h-1zM-41 -2h1v1h-1zM-45 -1h1v1h-1zM-42 -1h2v1h-2zM-45 0h1v1h-1zM-41 0h1v1h-1zM-45 1h1v1h-1zM-41 1h1v1h-1zM-45 2h1v1h-1zM-41 2h1v1h-1zM-38 -2h3v1h-3zM-39 -1h1v1h-1zM-35 -1h1v1h-1zM-39 0h1v1h-1zM-35 0h1v1h-1zM-39 1h1v1h-1zM-35 1h1v1h-1zM-38 2h3v1h-3zM-33 -2h1v1h-1zM-29 -2h1v1h-1zM-33 -1h1v1h-1zM-29 -1h1v1h-1zM-33 0h1v1h-1zM-31 0h1v1h-1zM-29 0h1v1h-1zM-33 1h1v1h-1zM-31 1h1v1h-1zM-29 1h1v1h-1zM-32 2h4v1h-4zM-23 -2h1v1h-1zM-19 -2h1v1h-1zM-23 -1h1v1h-1zM-19 -1h1v1h-1zM-23 0h1v1h-1zM-21 0h1v1h-1zM-19 0h1v1h-1zM-23 1h1v1h-1zM-21 1h1v1h-1zM-19 1h1v1h-1zM-22 2h4v1h-4zM-17 -4h1v1h-1zM-17 -2h1v1h-1zM-17 -1h1v1h-1zM-17 0h1v1h-1zM-17 1h1v1h-1zM-17 2h1v1h-1zM-14 -4h1v1h-1zM-14 -3h1v1h-1zM-15 -2h4v1h-4zM-14 -1h1v1h-1zM-14 0h1v1h-1zM-14 1h1v1h-1zM-13 2h2v1h-2zM-10 -4h1v1h-1zM-10 -3h1v1h-1zM-10 -2h1v1h-1zM-8 -2h2v1h-2zM-10 -1h2v1h-2zM-6 -1h1v1h-1zM-10 0h1v1h-1zM-6 0h1v1h-1zM-10 1h1v1h-1zM-6 1h1v1h-1zM-10 2h1v1h-1zM-6 2h1v1h-1zM0 -4h1v1h-1zM0 -3h1v1h-1zM0 -2h1v1h-1zM0 -1h1v1h-1zM0 0h1v1h-1zM0 1h1v1h-1zM1 2h1v1h-1zM3 -4h1v1h-1zM3 -2h1v1h-1zM3 -1h1v1h-1zM3 0h1v1h-1zM3 1h1v1h-1zM3 2h1v1h-1zM5 -2h1v1h-1zM9 -2h1v1h-1zM5 -1h1v1h-1zM9 -1h1v1h-1zM5 0h1v1h-1zM9 0h1v1h-1zM6 1h1v1h-1zM8 1h1v1h-1zM7 2h1v1h-1zM12 -2h3v1h-3zM11 -1h1v1h-1zM15 -1h1v1h-1zM11 0h5v1h-5zM11 1h1v1h-1zM12 2h4v1h-4zM21 -2h4v1h-4zM21 -1h1v1h-1zM25 -1h1v1h-1zM21 0h1v1h-1zM25 0h1v1h-1zM21 1h1v1h-1zM25 1h1v1h-1zM21 2h1v1h-1zM25 2h1v1h-1zM28 -2h3v1h-3zM27 -1h1v1h-1zM31 -1h1v1h-1zM27 0h5v1h-5zM27 1h1v1h-1zM28 2h4v1h-4zM33 -2h1v1h-1zM37 -2h1v1h-1zM33 -1h1v1h-1zM37 -1h1v1h-1zM33 0h1v1h-1zM35 0h1v1h-1zM37 0h1v1h-1zM33 1h1v1h-1zM35 1h1v1h-1zM37 1h1v1h-1zM34 2h4v1h-4zM40 -2h4v1h-4zM39 -1h1v1h-1zM40 0h3v1h-3zM43 1h1v1h-1zM39 2h4v1h-4zM45 -4h1v1h-1zM45 -3h1v1h-1zM45 -2h1v1h-1zM45 -1h1v1h-1zM45 0h1v1h-1zM45 2h1v1h-1z"/></g></g></g><path fill="#2C4A6B" d="M45 57h1v1h-1zM49 57h1v1h-1zM45 58h2v1h-2zM49 58h1v1h-1zM45 59h1v1h-1zM47 59h1v1h-1zM49 59h1v1h-1zM45 60h1v1h-1zM48 60h2v1h-2zM45 61h1v1h-1zM49 61h1v1h-1zM45 62h1v1h-1zM49 62h1v1h-1zM45 63h1v1h-1zM49 63h1v1h-1zM52 59h3v1h-3zM51 60h1v1h-1zM55 60h1v1h-1zM51 61h5v1h-5zM51 62h1v1h-1zM52 63h4v1h-4zM57 57h1v1h-1zM57 59h1v1h-1zM57 60h1v1h-1zM57 61h1v1h-1zM57 62h1v1h-1zM57 63h1v1h-1zM60 59h4v1h-4zM59 60h1v1h-1zM63 60h1v1h-1zM59 61h1v1h-1zM63 61h1v1h-1zM60 62h4v1h-4zM63 63h1v1h-1zM59 64h4v1h-4zM65 57h1v1h-1zM65 58h1v1h-1zM65 59h1v1h-1zM67 59h2v1h-2zM65 60h2v1h-2zM69 60h1v1h-1zM65 61h1v1h-1zM69 61h1v1h-1zM65 62h1v1h-1zM69 62h1v1h-1zM65 63h1v1h-1zM69 63h1v1h-1zM71 57h1v1h-1zM71 58h1v1h-1zM71 59h1v1h-1zM73 59h2v1h-2zM71 60h2v1h-2zM75 60h1v1h-1zM71 61h1v1h-1zM75 61h1v1h-1zM71 62h1v1h-1zM75 62h1v1h-1zM71 63h4v1h-4zM78 59h3v1h-3zM77 60h1v1h-1zM81 60h1v1h-1zM77 61h1v1h-1zM81 61h1v1h-1zM77 62h1v1h-1zM81 62h1v1h-1zM78 63h3v1h-3zM83 59h1v1h-1zM85 59h2v1h-2zM83 60h2v1h-2zM87 60h1v1h-1zM83 61h1v1h-1zM83 62h1v1h-1zM83 63h1v1h-1zM90 59h4v1h-4zM89 60h1v1h-1zM90 61h3v1h-3zM93 62h1v1h-1zM89 63h4v1h-4zM95 62h1v1h-1zM95 63h1v1h-1zM95 64h1v1h-1zM101 59h4v1h-4zM101 60h1v1h-1zM105 60h1v1h-1zM101 61h1v1h-1zM105 61h1v1h-1zM101 62h1v1h-1zM105 62h1v1h-1zM101 63h1v1h-1zM105 63h1v1h-1zM108 59h3v1h-3zM107 60h1v1h-1zM111 60h1v1h-1zM107 61h5v1h-5zM107 62h1v1h-1zM108 63h4v1h-4zM113 59h1v1h-1zM117 59h1v1h-1zM113 60h1v1h-1zM117 60h1v1h-1zM113 61h1v1h-1zM115 61h1v1h-1zM117 61h1v1h-1zM113 62h1v1h-1zM115 62h1v1h-1zM117 62h1v1h-1zM114 63h4v1h-4zM120 59h4v1h-4zM119 60h1v1h-1zM120 61h3v1h-3zM123 62h1v1h-1zM119 63h4v1h-4zM125 62h1v1h-1zM125 63h1v1h-1zM125 64h1v1h-1zM131 59h2v1h-2zM134 59h1v1h-1zM131 60h1v1h-1zM133 60h1v1h-1zM135 60h1v1h-1zM131 61h1v1h-1zM133 61h1v1h-1zM135 61h1v1h-1zM131 62h1v1h-1zM135 62h1v1h-1zM131 63h1v1h-1zM135 63h1v1h-1zM138 59h3v1h-3zM141 60h1v1h-1zM138 61h4v1h-4zM137 62h1v1h-1zM141 62h1v1h-1zM138 63h4v1h-4zM143 59h4v1h-4zM143 60h1v1h-1zM147 60h1v1h-1zM143 61h1v1h-1zM147 61h1v1h-1zM143 62h4v1h-4zM143 63h1v1h-1zM143 64h1v1h-1zM150 59h4v1h-4zM149 60h1v1h-1zM150 61h3v1h-3zM153 62h1v1h-1zM149 63h4v1h-4zM160 57h2v1h-2zM159 58h1v1h-1zM162 58h1v1h-1zM160 59h2v1h-2zM160 60h1v1h-1zM159 61h1v1h-1zM161 61h1v1h-1zM163 61h1v1h-1zM159 62h1v1h-1zM162 62h1v1h-1zM160 63h2v1h-2zM163 63h1v1h-1zM170 59h3v1h-3zM169 60h1v1h-1zM169 61h1v1h-1zM169 62h1v1h-1zM173 62h1v1h-1zM170 63h3v1h-3zM175 57h1v1h-1zM175 59h1v1h-1zM175 60h1v1h-1zM175 61h1v1h-1zM175 62h1v1h-1zM175 63h1v1h-1zM178 57h1v1h-1zM178 58h1v1h-1zM177 59h4v1h-4zM178 60h1v1h-1zM178 61h1v1h-1zM178 62h1v1h-1zM179 63h2v1h-2zM182 59h1v1h-1zM186 59h1v1h-1zM182 60h1v1h-1zM186 60h1v1h-1zM182 61h1v1h-1zM186 61h1v1h-1zM183 62h4v1h-4zM186 63h1v1h-1zM182 64h4v1h-4zM192 57h1v1h-1zM192 58h1v1h-1zM192 59h1v1h-1zM194 59h2v1h-2zM192 60h2v1h-2zM196 60h1v1h-1zM192 61h1v1h-1zM196 61h1v1h-1zM192 62h1v1h-1zM196 62h1v1h-1zM192 63h1v1h-1zM196 63h1v1h-1zM199 59h3v1h-3zM202 60h1v1h-1zM199 61h4v1h-4zM198 62h1v1h-1zM202 62h1v1h-1zM199 63h4v1h-4zM204 57h1v1h-1zM204 58h1v1h-1zM204 59h1v1h-1zM204 60h1v1h-1zM204 61h1v1h-1zM204 62h1v1h-1zM205 63h1v1h-1zM207 57h1v1h-1zM207 58h1v1h-1zM207 59h1v1h-1zM207 60h1v1h-1zM207 61h1v1h-1zM207 62h1v1h-1zM208 63h1v1h-1zM210 62h1v1h-1zM210 63h1v1h-1zM210 64h1v1h-1zM216 57h1v1h-1zM216 59h1v1h-1zM216 60h1v1h-1zM216 61h1v1h-1zM216 62h1v1h-1zM216 63h1v1h-1zM218 59h4v1h-4zM218 60h1v1h-1zM222 60h1v1h-1zM218 61h1v1h-1zM222 61h1v1h-1zM218 62h1v1h-1zM222 62h1v1h-1zM218 63h1v1h-1zM222 63h1v1h-1zM229 59h3v1h-3zM228 60h1v1h-1zM232 60h1v1h-1zM228 61h1v1h-1zM232 61h1v1h-1zM228 62h1v1h-1zM232 62h1v1h-1zM229 63h3v1h-3zM234 59h4v1h-4zM234 60h1v1h-1zM238 60h1v1h-1zM234 61h1v1h-1zM238 61h1v1h-1zM234 62h1v1h-1zM238 62h1v1h-1zM234 63h1v1h-1zM238 63h1v1h-1zM241 59h3v1h-3zM240 60h1v1h-1zM244 60h1v1h-1zM240 61h5v1h-5zM240 62h1v1h-1zM241 63h4v1h-4zM250 59h4v1h-4zM250 60h1v1h-1zM254 60h1v1h-1zM250 61h1v1h-1zM254 61h1v1h-1zM250 62h4v1h-4zM250 63h1v1h-1zM250 64h1v1h-1zM256 57h1v1h-1zM256 58h1v1h-1zM256 59h1v1h-1zM256 60h1v1h-1zM256 61h1v1h-1zM256 62h1v1h-1zM257 63h1v1h-1zM260 59h3v1h-3zM263 60h1v1h-1zM260 61h4v1h-4zM259 62h1v1h-1zM263 62h1v1h-1zM260 63h4v1h-4zM266 59h3v1h-3zM265 60h1v1h-1zM265 61h1v1h-1zM265 62h1v1h-1zM269 62h1v1h-1zM266 63h3v1h-3zM272 59h3v1h-3zM271 60h1v1h-1zM275 60h1v1h-1zM271 61h5v1h-5zM271 62h1v1h-1zM272 63h4v1h-4zM277 63h1v1h-1z"/><path fill="#FFFFFF" d="M44 56h1v1h-1zM48 56h1v1h-1zM44 57h2v1h-2zM48 57h1v1h-1zM44 58h1v1h-1zM46 58h1v1h-1zM48 58h1v1h-1zM44 59h1v1h-1zM47 59h2v1h-2zM44 60h1v1h-1zM48 60h1v1h-1zM44 61h1v1h-1zM48 61h1v1h-1zM44 62h1v1h-1zM48 62h1v1h-1zM51 58h3v1h-3zM50 59h1v1h-1zM54 59h1v1h-1zM50 60h5v1h-5zM50 61h1v1h-1zM51 62h4v1h-4zM56 56h1v1h-1zM56 58h1v1h-1zM56 59h1v1h-1zM56 60h1v1h-1zM56 61h1v1h-1zM56 62h1v1h-1zM59 58h4v1h-4zM58 59h1v1h-1zM62 59h1v1h-1zM58 60h1v1h-1zM62 60h1v1h-1zM59 61h4v1h-4zM62 62h1v1h-1zM58 63h4v1h-4zM64 56h1v1h-1zM64 57h1v1h-1zM64 58h1v1h-1zM66 58h2v1h-2zM64 59h2v1h-2zM68 59h1v1h-1zM64 60h1v1h-1zM68 60h1v1h-1zM64 61h1v1h-1zM68 61h1v1h-1zM64 62h1v1h-1zM68 62h1v1h-1zM70 56h1v1h-1zM70 57h1v1h-1zM70 58h1v1h-1zM72 58h2v1h-2zM70 59h2v1h-2zM74 59h1v1h-1zM70 60h1v1h-1zM74 60h1v1h-1zM70 61h1v1h-1zM74 61h1v1h-1zM70 62h4v1h-4zM77 58h3v1h-3zM76 59h1v1h-1zM80 59h1v1h-1zM76 60h1v1h-1zM80 60h1v1h-1zM76 61h1v1h-1zM80 61h1v1h-1zM77 62h3v1h-3zM82 58h1v1h-1zM84 58h2v1h-2zM82 59h2v1h-2zM86 59h1v1h-1zM82 60h1v1h-1zM82 61h1v1h-1zM82 62h1v1h-1zM89 58h4v1h-4zM88 59h1v1h-1zM89 60h3v1h-3zM92 61h1v1h-1zM88 62h4v1h-4zM94 61h1v1h-1zM94 62h1v1h-1zM94 63h1v1h-1zM100 58h4v1h-4zM100 59h1v1h-1zM104 59h1v1h-1zM100 60h1v1h-1zM104 60h1v1h-1zM100 61h1v1h-1zM104 61h1v1h-1zM100 62h1v1h-1zM104 62h1v1h-1zM107 58h3v1h-3zM106 59h1v1h-1zM110 59h1v1h-1zM106 60h5v1h-5zM106 61h1v1h-1zM107 62h4v1h-4zM112 58h1v1h-1zM116 58h1v1h-1zM112 59h1v1h-1zM116 59h1v1h-1zM112 60h1v1h-1zM114 60h1v1h-1zM116 60h1v1h-1zM112 61h1v1h-1zM114 61h1v1h-1zM116 61h1v1h-1zM113 62h4v1h-4zM119 58h4v1h-4zM118 59h1v1h-1zM119 60h3v1h-3zM122 61h1v1h-1zM118 62h4v1h-4zM124 61h1v1h-1zM124 62h1v1h-1zM124 63h1v1h-1zM130 58h2v1h-2zM133 58h1v1h-1zM130 59h1v1h-1zM132 59h1v1h-1zM134 59h1v1h-1zM130 60h1v1h-1zM132 60h1v1h-1zM134 60h1v1h-1zM130 61h1v1h-1zM134 61h1v1h-1zM130 62h1v1h-1zM134 62h1v1h-1zM137 58h3v1h-3zM140 59h1v1h-1zM137 60h4v1h-4zM136 61h1v1h-1zM140 61h1v1h-1zM137 62h4v1h-4zM142 58h4v1h-4zM142 59h1v1h-1zM146 59h1v1h-1zM142 60h1v1h-1zM146 60h1v1h-1zM142 61h4v1h-4zM142 62h1v1h-1zM142 63h1v1h-1zM149 58h4v1h-4zM148 59h1v1h-1zM149 60h3v1h-3zM152 61h1v1h-1zM148 62h4v1h-4zM159 56h2v1h-2zM158 57h1v1h-1zM161 57h1v1h-1zM159 58h2v1h-2zM159 59h1v1h-1zM158 60h1v1h-1zM160 60h1v1h-1zM162 60h1v1h-1zM158 61h1v1h-1zM161 61h1v1h-1zM159 62h2v1h-2zM162 62h1v1h-1zM169 58h3v1h-3zM168 59h1v1h-1zM168 60h1v1h-1zM168 61h1v1h-1zM172 61h1v1h-1zM169 62h3v1h-3zM174 56h1v1h-1zM174 58h1v1h-1zM174 59h1v1h-1zM174 60h1v1h-1zM174 61h1v1h-1zM174 62h1v1h-1zM177 56h1v1h-1zM177 57h1v1h-1zM176 58h4v1h-4zM177 59h1v1h-1zM177 60h1v1h-1zM177 61h1v1h-1zM178 62h2v1h-2zM181 58h1v1h-1zM185 58h1v1h-1zM181 59h1v1h-1zM185 59h1v1h-1zM181 60h1v1h-1zM185 60h1v1h-1zM182 61h4v1h-4zM185 62h1v1h-1zM181 63h4v1h-4zM191 56h1v1h-1zM191 57h1v1h-1zM191 58h1v1h-1zM193 58h2v1h-2zM191 59h2v1h-2zM195 59h1v1h-1zM191 60h1v1h-1zM195 60h1v1h-1zM191 61h1v1h-1zM195 61h1v1h-1zM191 62h1v1h-1zM195 62h1v1h-1zM198 58h3v1h-3zM201 59h1v1h-1zM198 60h4v1h-4zM197 61h1v1h-1zM201 61h1v1h-1zM198 62h4v1h-4zM203 56h1v1h-1zM203 57h1v1h-1zM203 58h1v1h-1zM203 59h1v1h-1zM203 60h1v1h-1zM203 61h1v1h-1zM204 62h1v1h-1zM206 56h1v1h-1zM206 57h1v1h-1zM206 58h1v1h-1zM206 59h1v1h-1zM206 60h1v1h-1zM206 61h1v1h-1zM207 62h1v1h-1zM209 61h1v1h-1zM209 62h1v1h-1zM209 63h1v1h-1zM215 56h1v1h-1zM215 58h1v1h-1zM215 59h1v1h-1zM215 60h1v1h-1zM215 61h1v1h-1zM215 62h1v1h-1zM217 58h4v1h-4zM217 59h1v1h-1zM221 59h1v1h-1zM217 60h1v1h-1zM221 60h1v1h-1zM217 61h1v1h-1zM221 61h1v1h-1zM217 62h1v1h-1zM221 62h1v1h-1zM228 58h3v1h-3zM227 59h1v1h-1zM231 59h1v1h-1zM227 60h1v1h-1zM231 60h1v1h-1zM227 61h1v1h-1zM231 61h1v1h-1zM228 62h3v1h-3zM233 58h4v1h-4zM233 59h1v1h-1zM237 59h1v1h-1zM233 60h1v1h-1zM237 60h1v1h-1zM233 61h1v1h-1zM237 61h1v1h-1zM233 62h1v1h-1zM237 62h1v1h-1zM240 58h3v1h-3zM239 59h1v1h-1zM243 59h1v1h-1zM239 60h5v1h-5zM239 61h1v1h-1zM240 62h4v1h-4zM249 58h4v1h-4zM249 59h1v1h-1zM253 59h1v1h-1zM249 60h1v1h-1zM253 60h1v1h-1zM249 61h4v1h-4zM249 62h1v1h-1zM249 63h1v1h-1zM255 56h1v1h-1zM255 57h1v1h-1zM255 58h1v1h-1zM255 59h1v1h-1zM255 60h1v1h-1zM255 61h1v1h-1zM256 62h1v1h-1zM259 58h3v1h-3zM262 59h1v1h-1zM259 60h4v1h-4zM258 61h1v1h-1zM262 61h1v1h-1zM259 62h4v1h-4zM265 58h3v1h-3zM264 59h1v1h-1zM264 60h1v1h-1zM264 61h1v1h-1zM268 61h1v1h-1zM265 62h3v1h-3zM271 58h3v1h-3zM270 59h1v1h-1zM274 59h1v1h-1zM270 60h5v1h-5zM270 61h1v1h-1zM271 62h4v1h-4zM276 62h1v1h-1z"/></svg>
