<svg xmlns="http://www.w3.org/2000/svg" viewBox="0 0 480 88" width="1200" height="220" shape-rendering="crispEdges" role="img" aria-label="Docket's pipeline agent as a mine track: crawl, ingest, research, write, verify, publish"><title>Docket's pipeline agent as a mine track: crawl, ingest, research, write, verify, publish</title><style>.fl{animation:fl .7s step-end infinite}@keyframes fl{50%{opacity:.55}}.g0{opacity:1;animation:g0 18s step-end infinite}@keyframes g0{0%{opacity:1}10%{opacity:0}}.g1{opacity:0;animation:g1 18s step-end infinite}@keyframes g1{0%{opacity:0}16.667%{opacity:1}26.667%{opacity:0}}.g2{opacity:0;animation:g2 18s step-end infinite}@keyframes g2{0%{opacity:0}33.333%{opacity:1}43.333%{opacity:0}}.g3{opacity:0;animation:g3 18s step-end infinite}@keyframes g3{0%{opacity:0}50%{opacity:1}60%{opacity:0}}.g4{opacity:0;animation:g4 18s step-end infinite}@keyframes g4{0%{opacity:0}66.667%{opacity:1}76.667%{opacity:0}}.g5{opacity:0;animation:g5 18s step-end infinite}@keyframes g5{0%{opacity:0}83.333%{opacity:1}93.333%{opacity:0}}.cart{animation:cart 18s linear infinite}@keyframes cart{0%{transform:translateX(0px)}10%{transform:translateX(0px)}16.667%{transform:translateX(80px)}26.667%{transform:translateX(80px)}33.333%{transform:translateX(160px)}43.333%{transform:translateX(160px)}50%{transform:translateX(240px)}60%{transform:translateX(240px)}66.667%{transform:translateX(320px)}76.667%{transform:translateX(320px)}83.333%{transform:translateX(400px)}93.333%{transform:translateX(400px)}100%{transform:translateX(480px)}}@media (prefers-reduced-motion: reduce){*{animation:none!important}}</style><defs><pattern id="stone" patternUnits="userSpaceOnUse" width="8" height="8"><path fill="#B5B5B5" d="M0 0h1v1h-1zM4 1h1v1h-1zM1 4h1v1h-1zM6 5h1v1h-1z"/><path fill="#9A9A9A" d="M1 0h6v1h-6zM0 1h2v1h-2zM3 1h1v1h-1zM5 1h2v1h-2zM0 2h3v1h-3zM4 2h3v1h-3zM0 4h1v1h-1zM2 4h1v1h-1zM5 4h3v1h-3zM0 5h3v1h-3zM4 5h2v1h-2zM7 5h1v1h-1zM0 6h1v1h-1zM2 6h1v1h-1zM4 6h1v1h-1zM6 6h2v1h-2z"/><path fill="#6E6E6E" d="M7 0h1v1h-1zM7 1h1v1h-1zM7 2h1v1h-1zM0 3h8v1h-8zM3 4h1v1h-1zM3 5h1v1h-1zM3 6h1v1h-1zM0 7h8v1h-8z"/><path fill="#858585" d="M2 1h1v1h-1zM3 2h1v1h-1zM4 4h1v1h-1zM1 6h1v1h-1zM5 6h1v1h-1z"/></pattern><pattern id="planks" patternUnits="userSpaceOnUse" width="8" height="8"><path fill="#C99A5B" d="M0 0h1v1h-1zM7 0h1v1h-1zM2 1h1v1h-1zM3 2h1v1h-1zM3 4h1v1h-1zM4 5h1v1h-1zM0 6h1v1h-1zM7 6h1v1h-1z"/><path fill="#B0834A" d="M1 0h4v1h-4zM6 0h1v1h-1zM0 1h2v1h-2zM3 1h2v1h-2zM6 1h2v1h-2zM0 2h3v1h-3zM4 2h1v1h-1zM6 2h2v1h-2zM0 4h1v1h-1zM2 4h1v1h-1zM4 4h4v1h-4zM0 5h1v1h-1zM2 5h2v1h-2zM5 5h3v1h-3zM2 6h5v1h-5z"/><path fill="#8A6336" d="M5 0h1v1h-1zM5 1h1v1h-1zM5 2h1v1h-1zM0 3h8v1h-8zM1 4h1v1h-1zM1 5h1v1h-1zM1 6h1v1h-1zM0 7h8v1h-8z"/></pattern></defs><rect x="0" y="0" width="480" height="88" fill="url(#stone)"/><rect x="0" y="0" width="480" height="72" fill="#000000" fill-opacity="0.55"/><rect x="77" y="26" width="7" height="7" fill="#F2A33A" fill-opacity="0.18"/><rect x="80" y="30" width="1" height="7" fill="#6B4A2E"/><g class="fl"><rect x="80" y="28" width="1" height="2" fill="#FFE680"/><rect x="79" y="29" width="3" height="1" fill="#F2A33A"/></g><rect x="157" y="26" width="7" height="7" fill="#F2A33A" fill-opacity="0.18"/><rect x="160" y="30" width="1" height="7" fill="#6B4A2E"/><g class="fl"><rect x="160" y="28" width="1" height="2" fill="#FFE680"/><rect x="159" y="29" width="3" height="1" fill="#F2A33A"/></g><rect x="237" y="26" width="7" height="7" fill="#F2A33A" fill-opacity="0.18"/><rect x="240" y="30" width="1" height="7" fill="#6B4A2E"/><g class="fl"><rect x="240" y="28" width="1" height="2" fill="#FFE680"/><rect x="239" y="29" width="3" height="1" fill="#F2A33A"/></g><rect x="317" y="26" width="7" height="7" fill="#F2A33A" fill-opacity="0.18"/><rect x="320" y="30" width="1" height="7" fill="#6B4A2E"/><g class="fl"><rect x="320" y="28" width="1" height="2" fill="#FFE680"/><rect x="319" y="29" width="3" height="1" fill="#F2A33A"/></g><rect x="397" y="26" width="7" height="7" fill="#F2A33A" fill-opacity="0.18"/><rect x="400" y="30" width="1" height="7" fill="#6B4A2E"/><g class="fl"><rect x="400" y="28" width="1" height="2" fill="#FFE680"/><rect x="399" y="29" width="3" height="1" fill="#F2A33A"/></g><g class="g0"><rect x="23" y="25" width="34" height="34" fill="#FFE680" fill-opacity="0.45"/><rect x="21" y="27" width="38" height="30" fill="#FFE680" fill-opacity="0.25"/></g><rect x="25" y="27" width="30" height="30" fill="#262626"/><rect x="26" y="28" width="28" height="28" fill="url(#planks)"/><rect x="28" y="30" width="24" height="24" fill="#5A3E22"/><g transform="translate(28 30) scale(2)"><path fill="#262626" d="M4 0h8v1h-8zM2 1h8v1h-8zM11 1h1v1h-1zM2 2h1v1h-1zM9 2h1v1h-1zM11 2h1v1h-1zM2 3h1v1h-1zM9 3h1v1h-1zM11 3h1v1h-1zM2 4h1v1h-1zM9 4h1v1h-1zM11 4h1v1h-1zM2 5h1v1h-1zM9 5h1v1h-1zM11 5h1v1h-1zM2 6h1v1h-1zM9 6h1v1h-1zM11 6h1v1h-1zM2 7h1v1h-1zM9 7h1v1h-1zM11 7h1v1h-1zM2 8h1v1h-1zM9 8h3v1h-3zM2 9h1v1h-1zM9 9h1v1h-1zM2 10h8v1h-8z"/><path fill="#FFFFFF" d="M3 2h6v1h-6zM3 3h1v1h-1zM8 3h1v1h-1zM3 4h6v1h-6zM3 5h1v1h-1zM8 5h1v1h-1zM3 6h6v1h-6zM3 7h1v1h-1zM7 7h2v1h-2zM3 8h6v1h-6zM3 9h1v1h-1zM6 9h3v1h-3z"/><path fill="#8DC2F5" d="M4 3h4v1h-4zM4 5h4v1h-4zM4 7h3v1h-3zM4 9h2v1h-2z"/></g><path fill="#3F3F3F" d="M28 4h3v1h-3zM27 5h1v1h-1zM31 5h1v1h-1zM27 6h1v1h-1zM27 7h1v1h-1zM27 8h1v1h-1zM27 9h1v1h-1zM31 9h1v1h-1zM28 10h3v1h-3zM33 4h4v1h-4zM33 5h1v1h-1zM37 5h1v1h-1zM33 6h1v1h-1zM37 6h1v1h-1zM33 7h4v1h-4zM33 8h1v1h-1zM35 8h1v1h-1zM33 9h1v1h-1zM36 9h1v1h-1zM33 10h1v1h-1zM37 10h1v1h-1zM40 4h3v1h-3zM39 5h1v1h-1zM43 5h1v1h-1zM39 6h1v1h-1zM43 6h1v1h-1zM39 7h5v1h-5zM39 8h1v1h-1zM43 8h1v1h-1zM39 9h1v1h-1zM43 9h1v1h-1zM39 10h1v1h-1zM43 10h1v1h-1zM45 4h1v1h-1zM49 4h1v1h-1zM45 5h1v1h-1zM49 5h1v1h-1zM45 6h1v1h-1zM49 6h1v1h-1zM45 7h1v1h-1zM47 7h1v1h-1zM49 7h1v1h-1zM45 8h1v1h-1zM47 8h1v1h-1zM49 8h1v1h-1zM45 9h2v1h-2zM48 9h2v1h-2zM45 10h1v1h-1zM49 10h1v1h-1zM51 4h1v1h-1zM51 5h1v1h-1zM51 6h1v1h-1zM51 7h1v1h-1zM51 8h1v1h-1zM51 9h1v1h-1zM51 10h5v1h-5z"/><path fill="#FFFFFF" d="M27 3h3v1h-3zM26 4h1v1h-1zM30 4h1v1h-1zM26 5h1v1h-1zM26 6h1v1h-1zM26 7h1v1h-1zM26 8h1v1h-1zM30 8h1v1h-1zM27 9h3v1h-3zM32 3h4v1h-4zM32 4h1v1h-1zM36 4h1v1h-1zM32 5h1v1h-1zM36 5h1v1h-1zM32 6h4v1h-4zM32 7h1v1h-1zM34 7h1v1h-1zM32 8h1v1h-1zM35 8h1v1h-1zM32 9h1v1h-1zM36 9h1v1h-1zM39 3h3v1h-3zM38 4h1v1h-1zM42 4h1v1h-1zM38 5h1v1h-1zM42 5h1v1h-1zM38 6h5v1h-5zM38 7h1v1h-1zM42 7h1v1h-1zM38 8h1v1h-1zM42 8h1v1h-1zM38 9h1v1h-1zM42 9h1v1h-1zM44 3h1v1h-1zM48 3h1v1h-1zM44 4h1v1h-1zM48 4h1v1h-1zM44 5h1v1h-1zM48 5h1v1h-1zM44 6h1v1h-1zM46 6h1v1h-1zM48 6h1v1h-1zM44 7h1v1h-1zM46 7h1v1h-1zM48 7h1v1h-1zM44 8h2v1h-2zM47 8h2v1h-2zM44 9h1v1h-1zM48 9h1v1h-1zM50 3h1v1h-1zM50 4h1v1h-1zM50 5h1v1h-1zM50 6h1v1h-1zM50 7h1v1h-1zM50 8h1v1h-1zM50 9h5v1h-5z"/><path fill="#1F1F1F" d="M15 16h1v1h-1zM17 16h2v1h-2zM15 17h2v1h-2zM19 17h1v1h-1zM15 18h1v1h-1zM15 19h1v1h-1zM15 20h1v1h-1zM22 16h3v1h-3zM21 17h1v1h-1zM25 17h1v1h-1zM21 18h1v1h-1zM25 18h1v1h-1zM21 19h1v1h-1zM25 19h1v1h-1zM22 20h3v1h-3zM27 14h1v1h-1zM27 15h1v1h-1zM27 16h1v1h-1zM29 16h2v1h-2zM27 17h2v1h-2zM31 17h1v1h-1zM27 18h1v1h-1zM31 18h1v1h-1zM27 19h1v1h-1zM31 19h1v1h-1zM27 20h4v1h-4zM34 16h3v1h-3zM33 17h1v1h-1zM37 17h1v1h-1zM33 18h1v1h-1zM37 18h1v1h-1zM33 19h1v1h-1zM37 19h1v1h-1zM34 20h3v1h-3zM40 14h1v1h-1zM40 15h1v1h-1zM39 16h4v1h-4zM40 17h1v1h-1zM40 18h1v1h-1zM40 19h1v1h-1zM41 20h2v1h-2zM45 16h4v1h-4zM44 17h1v1h-1zM45 18h3v1h-3zM48 19h1v1h-1zM44 20h4v1h-4zM50 20h1v1h-1zM53 14h1v1h-1zM53 15h1v1h-1zM52 16h4v1h-4zM53 17h1v1h-1zM53 18h1v1h-1zM53 19h1v1h-1zM54 20h2v1h-2zM57 16h1v1h-1zM61 16h1v1h-1zM58 17h1v1h-1zM60 17h1v1h-1zM59 18h1v1h-1zM58 19h1v1h-1zM60 19h1v1h-1zM57 20h1v1h-1zM61 20h1v1h-1zM64 14h1v1h-1zM64 15h1v1h-1zM63 16h4v1h-4zM64 17h1v1h-1zM64 18h1v1h-1zM64 19h1v1h-1zM65 20h2v1h-2z"/><path fill="#AAAAAA" d="M14 15h1v1h-1zM16 15h2v1h-2zM14 16h2v1h-2zM18 16h1v1h-1zM14 17h1v1h-1zM14 18h1v1h-1zM14 19h1v1h-1zM21 15h3v1h-3zM20 16h1v1h-1zM24 16h1v1h-1zM20 17h1v1h-1zM24 17h1v1h-1zM20 18h1v1h-1zM24 18h1v1h-1zM21 19h3v1h-3zM26 13h1v1h-1zM26 14h1v1h-1zM26 15h1v1h-1zM28 15h2v1h-2zM26 16h2v1h-2zM30 16h1v1h-1zM26 17h1v1h-1zM30 17h1v1h-1zM26 18h1v1h-1zM30 18h1v1h-1zM26 19h4v1h-4zM33 15h3v1h-3zM32 16h1v1h-1zM36 16h1v1h-1zM32 17h1v1h-1zM36 17h1v1h-1zM32 18h1v1h-1zM36 18h1v1h-1zM33 19h3v1h-3zM39 13h1v1h-1zM39 14h1v1h-1zM38 15h4v1h-4zM39 16h1v1h-1zM39 17h1v1h-1zM39 18h1v1h-1zM40 19h2v1h-2zM44 15h4v1h-4zM43 16h1v1h-1zM44 17h3v1h-3zM47 18h1v1h-1zM43 19h4v1h-4zM49 19h1v1h-1zM52 13h1v1h-1zM52 14h1v1h-1zM51 15h4v1h-4zM52 16h1v1h-1zM52 17h1v1h-1zM52 18h1v1h-1zM53 19h2v1h-2zM56 15h1v1h-1zM60 15h1v1h-1zM57 16h1v1h-1zM59 16h1v1h-1zM58 17h1v1h-1zM57 18h1v1h-1zM59 18h1v1h-1zM56 19h1v1h-1zM60 19h1v1h-1zM63 13h1v1h-1zM63 14h1v1h-1zM62 15h4v1h-4zM63 16h1v1h-1zM63 17h1v1h-1zM63 18h1v1h-1zM64 19h2v1h-2z"/><g class="g1"><rect x="103" y="25" width="34" height="34" fill="#FFE680" fill-opacity="0.45"/><rect x="101" y="27" width="38" height="30" fill="#FFE680" fill-opacity="0.25"/></g><rect x="105" y="27" width="30" height="30" fill="#262626"/><rect x="106" y="28" width="28" height="28" fill="url(#planks)"/><rect x="108" y="30" width="24" height="24" fill="#5A3E22"/><g transform="translate(108 30) scale(2)"><path fill="#262626" d="M0 1h12v1h-12zM0 2h1v1h-1zM11 2h1v1h-1zM0 3h1v1h-1zM11 3h1v1h-1zM0 4h5v1h-5zM7 4h5v1h-5zM0 5h1v1h-1zM11 5h1v1h-1zM0 6h1v1h-1zM11 6h1v1h-1zM0 7h1v1h-1zM11 7h1v1h-1zM0 8h1v1h-1zM11 8h1v1h-1zM0 9h1v1h-1zM11 9h1v1h-1zM0 10h12v1h-12z"/><path fill="#C99A5B" d="M1 2h10v1h-10zM1 5h4v1h-4zM7 5h4v1h-4zM1 7h10v1h-10z"/><path fill="#B0834A" d="M1 3h10v1h-10zM1 6h10v1h-10zM1 8h10v1h-10z"/><path fill="#B5B5B5" d="M5 4h2v1h-2zM5 5h2v1h-2z"/><path fill="#8A6336" d="M1 9h10v1h-10z"/></g><path fill="#3F3F3F" d="M105 4h3v1h-3zM106 5h1v1h-1zM106 6h1v1h-1zM106 7h1v1h-1zM106 8h1v1h-1zM106 9h1v1h-1zM105 10h3v1h-3zM109 4h1v1h-1zM113 4h1v1h-1zM109 5h2v1h-2zM113 5h1v1h-1zM109 6h1v1h-1zM111 6h1v1h-1zM113 6h1v1h-1zM109 7h1v1h-1zM112 7h2v1h-2zM109 8h1v1h-1zM113 8h1v1h-1zM109 9h1v1h-1zM113 9h1v1h-1zM109 10h1v1h-1zM113 10h1v1h-1zM116 4h4v1h-4zM115 5h1v1h-1zM115 6h1v1h-1zM115 7h1v1h-1zM118 7h2v1h-2zM115 8h1v1h-1zM119 8h1v1h-1zM115 9h1v1h-1zM119 9h1v1h-1zM116 10h3v1h-3zM121 4h5v1h-5zM121 5h1v1h-1zM121 6h1v1h-1zM121 7h4v1h-4zM121 8h1v1h-1zM121 9h1v1h-1zM121 10h5v1h-5zM128 4h4v1h-4zM127 5h1v1h-1zM127 6h1v1h-1zM128 7h3v1h-3zM131 8h1v1h-1zM131 9h1v1h-1zM127 10h4v1h-4zM133 4h5v1h-5zM135 5h1v1h-1zM135 6h1v1h-1zM135 7h1v1h-1zM135 8h1v1h-1zM135 9h1v1h-1zM135 10h1v1h-1z"/><path fill="#FFFFFF" d="M104 3h3v1h-3zM105 4h1v1h-1zM105 5h1v1h-1zM105 6h1v1h-1zM105 7h1v1h-1zM105 8h1v1h-1zM104 9h3v1h-3zM108 3h1v1h-1zM112 3h1v1h-1zM108 4h2v1h-2zM112 4h1v1h-1zM108 5h1v1h-1zM110 5h1v1h-1zM112 5h1v1h-1zM108 6h1v1h-1zM111 6h2v1h-2zM108 7h1v1h-1zM112 7h1v1h-1zM108 8h1v1h-1zM112 8h1v1h-1zM108 9h1v1h-1zM112 9h1v1h-1zM115 3h4v1h-4zM114 4h1v1h-1zM114 5h1v1h-1zM114 6h1v1h-1zM117 6h2v1h-2zM114 7h1v1h-1zM118 7h1v1h-1zM114 8h1v1h-1zM118 8h1v1h-1zM115 9h3v1h-3zM120 3h5v1h-5zM120 4h1v1h-1zM120 5h1v1h-1zM120 6h4v1h-4zM120 7h1v1h-1zM120 8h1v1h-1zM120 9h5v1h-5zM127 3h4v1h-4zM126 4h1v1h-1zM126 5h1v1h-1zM127 6h3v1h-3zM130 7h1v1h-1zM130 8h1v1h-1zM126 9h4v1h-4zM132 3h5v1h-5zM134 4h1v1h-1zM134 5h1v1h-1zM134 6h1v1h-1zM134 7h1v1h-1zM134 8h1v1h-1zM134 9h1v1h-1z"/><path fill="#1F1F1F" d="M90 16h3v1h-3zM89 17h1v1h-1zM89 18h1v1h-1zM89 19h1v1h-1zM93 19h1v1h-1zM90 20h3v1h-3zM95 14h1v1h-1zM95 15h1v1h-1zM95 16h1v1h-1zM97 16h2v1h-2zM95 17h2v1h-2zM99 17h1v1h-1zM95 18h1v1h-1zM99 18h1v1h-1zM95 19h1v1h-1zM99 19h1v1h-1zM95 20h1v1h-1zM99 20h1v1h-1zM101 16h1v1h-1zM105 16h1v1h-1zM101 17h1v1h-1zM105 17h1v1h-1zM101 18h1v1h-1zM105 18h1v1h-1zM101 19h1v1h-1zM105 19h1v1h-1zM102 20h4v1h-4zM107 16h4v1h-4zM107 17h1v1h-1zM111 17h1v1h-1zM107 18h1v1h-1zM111 18h1v1h-1zM107 19h1v1h-1zM111 19h1v1h-1zM107 20h1v1h-1zM111 20h1v1h-1zM113 14h1v1h-1zM113 15h1v1h-1zM113 16h1v1h-1zM116 16h1v1h-1zM113 17h1v1h-1zM115 17h1v1h-1zM113 18h2v1h-2zM113 19h1v1h-1zM115 19h1v1h-1zM113 20h1v1h-1zM116 20h1v1h-1zM120 15h1v1h-1zM120 16h1v1h-1zM118 17h5v1h-5zM120 18h1v1h-1zM120 19h1v1h-1zM125 16h3v1h-3zM124 17h1v1h-1zM128 17h1v1h-1zM124 18h5v1h-5zM124 19h1v1h-1zM125 20h4v1h-4zM130 16h2v1h-2zM133 16h1v1h-1zM130 17h1v1h-1zM132 17h1v1h-1zM134 17h1v1h-1zM130 18h1v1h-1zM132 18h1v1h-1zM134 18h1v1h-1zM130 19h1v1h-1zM134 19h1v1h-1zM130 20h1v1h-1zM134 20h1v1h-1zM136 14h1v1h-1zM136 15h1v1h-1zM136 16h1v1h-1zM138 16h2v1h-2zM136 17h2v1h-2zM140 17h1v1h-1zM136 18h1v1h-1zM140 18h1v1h-1zM136 19h1v1h-1zM140 19h1v1h-1zM136 20h4v1h-4zM143 16h3v1h-3zM142 17h1v1h-1zM146 17h1v1h-1zM142 18h5v1h-5zM142 19h1v1h-1zM143 20h4v1h-4zM152 14h1v1h-1zM152 15h1v1h-1zM149 16h2v1h-2zM152 16h1v1h-1zM148 17h1v1h-1zM151 17h2v1h-2zM148 18h1v1h-1zM152 18h1v1h-1zM148 19h1v1h-1zM152 19h1v1h-1zM149 20h4v1h-4z"/><path fill="#AAAAAA" d="M89 15h3v1h-3zM88 16h1v1h-1zM88 17h1v1h-1zM88 18h1v1h-1zM92 18h1v1h-1zM89 19h3v1h-3zM94 13h1v1h-1zM94 14h1v1h-1zM94 15h1v1h-1zM96 15h2v1h-2zM94 16h2v1h-2zM98 16h1v1h-1zM94 17h1v1h-1zM98 17h1v1h-1zM94 18h1v1h-1zM98 18h1v1h-1zM94 19h1v1h-1zM98 19h1v1h-1zM100 15h1v1h-1zM104 15h1v1h-1zM100 16h1v1h-1zM104 16h1v1h-1zM100 17h1v1h-1zM104 17h1v1h-1zM100 18h1v1h-1zM104 18h1v1h-1zM101 19h4v1h-4zM106 15h4v1h-4zM106 16h1v1h-1zM110 16h1v1h-1zM106 17h1v1h-1zM110 17h1v1h-1zM106 18h1v1h-1zM110 18h1v1h-1zM106 19h1v1h-1zM110 19h1v1h-1zM112 13h1v1h-1zM112 14h1v1h-1zM112 15h1v1h-1zM115 15h1v1h-1zM112 16h1v1h-1zM114 16h1v1h-1zM112 17h2v1h-2zM112 18h1v1h-1zM114 18h1v1h-1zM112 19h1v1h-1zM115 19h1v1h-1zM119 14h1v1h-1zM119 15h1v1h-1zM117 16h5v1h-5zM119 17h1v1h-1zM119 18h1v1h-1zM124 15h3v1h-3zM123 16h1v1h-1zM127 16h1v1h-1zM123 17h5v1h-5zM123 18h1v1h-1zM124 19h4v1h-4zM129 15h2v1h-2zM132 15h1v1h-1zM129 16h1v1h-1zM131 16h1v1h-1zM133 16h1v1h-1zM129 17h1v1h-1zM131 17h1v1h-1zM133 17h1v1h-1zM129 18h1v1h-1zM133 18h1v1h-1zM129 19h1v1h-1zM133 19h1v1h-1zM135 13h1v1h-1zM135 14h1v1h-1zM135 15h1v1h-1zM137 15h2v1h-2zM135 16h2v1h-2zM139 16h1v1h-1zM135 17h1v1h-1zM139 17h1v1h-1zM135 18h1v1h-1zM139 18h1v1h-1zM135 19h4v1h-4zM142 15h3v1h-3zM141 16h1v1h-1zM145 16h1v1h-1zM141 17h5v1h-5zM141 18h1v1h-1zM142 19h4v1h-4zM151 13h1v1h-1zM151 14h1v1h-1zM148 15h2v1h-2zM151 15h1v1h-1zM147 16h1v1h-1zM150 16h2v1h-2zM147 17h1v1h-1zM151 17h1v1h-1zM147 18h1v1h-1zM151 18h1v1h-1zM148 19h4v1h-4z"/><g class="g2"><rect x="183" y="25" width="34" height="34" fill="#FFE680" fill-opacity="0.45"/><rect x="181" y="27" width="38" height="30" fill="#FFE680" fill-opacity="0.25"/></g><rect x="185" y="27" width="30" height="30" fill="#262626"/><rect x="186" y="28" width="28" height="28" fill="url(#planks)"/><rect x="188" y="30" width="24" height="24" fill="#5A3E22"/><g transform="translate(188 30) scale(2)"><path fill="#262626" d="M2 0h4v1h-4zM1 1h1v1h-1zM6 1h1v1h-1zM0 2h1v1h-1zM7 2h1v1h-1zM0 3h1v1h-1zM7 3h1v1h-1zM0 4h1v1h-1zM7 4h1v1h-1zM0 5h1v1h-1zM7 5h1v1h-1zM1 6h1v1h-1zM6 6h1v1h-1zM2 7h5v1h-5zM6 8h1v1h-1zM7 9h1v1h-1zM8 10h1v1h-1zM9 11h2v1h-2z"/><path fill="#DDEBF6" d="M2 1h4v1h-4zM1 2h4v1h-4zM6 2h1v1h-1zM1 3h3v1h-3zM5 3h2v1h-2zM2 4h1v1h-1zM4 4h3v1h-3zM1 5h1v1h-1zM3 5h4v1h-4zM2 6h4v1h-4z"/><path fill="#2F6A31" d="M5 2h1v1h-1zM4 3h1v1h-1zM1 4h1v1h-1zM3 4h1v1h-1zM2 5h1v1h-1z"/><path fill="#865700" d="M7 7h1v1h-1zM7 8h2v1h-2zM8 9h2v1h-2zM9 10h2v1h-2z"/></g><path fill="#3F3F3F" d="M178 4h4v1h-4zM178 5h1v1h-1zM182 5h1v1h-1zM178 6h1v1h-1zM182 6h1v1h-1zM178 7h4v1h-4zM178 8h1v1h-1zM180 8h1v1h-1zM178 9h1v1h-1zM181 9h1v1h-1zM178 10h1v1h-1zM182 10h1v1h-1zM184 4h5v1h-5zM184 5h1v1h-1zM184 6h1v1h-1zM184 7h4v1h-4zM184 8h1v1h-1zM184 9h1v1h-1zM184 10h5v1h-5zM191 4h4v1h-4zM190 5h1v1h-1zM190 6h1v1h-1zM191 7h3v1h-3zM194 8h1v1h-1zM194 9h1v1h-1zM190 10h4v1h-4zM196 4h5v1h-5zM196 5h1v1h-1zM196 6h1v1h-1zM196 7h4v1h-4zM196 8h1v1h-1zM196 9h1v1h-1zM196 10h5v1h-5zM203 4h3v1h-3zM202 5h1v1h-1zM206 5h1v1h-1zM202 6h1v1h-1zM206 6h1v1h-1zM202 7h5v1h-5zM202 8h1v1h-1zM206 8h1v1h-1zM202 9h1v1h-1zM206 9h1v1h-1zM202 10h1v1h-1zM206 10h1v1h-1zM208 4h4v1h-4zM208 5h1v1h-1zM212 5h1v1h-1zM208 6h1v1h-1zM212 6h1v1h-1zM208 7h4v1h-4zM208 8h1v1h-1zM210 8h1v1h-1zM208 9h1v1h-1zM211 9h1v1h-1zM208 10h1v1h-1zM212 10h1v1h-1zM215 4h3v1h-3zM214 5h1v1h-1zM218 5h1v1h-1zM214 6h1v1h-1zM214 7h1v1h-1zM214 8h1v1h-1zM214 9h1v1h-1zM218 9h1v1h-1zM215 10h3v1h-3zM220 4h1v1h-1zM224 4h1v1h-1zM220 5h1v1h-1zM224 5h1v1h-1zM220 6h1v1h-1zM224 6h1v1h-1zM220 7h5v1h-5zM220 8h1v1h-1zM224 8h1v1h-1zM220 9h1v1h-1zM224 9h1v1h-1zM220 10h1v1h-1zM224 10h1v1h-1z"/><path fill="#FFFFFF" d="M177 3h4v1h-4zM177 4h1v1h-1zM181 4h1v1h-1zM177 5h1v1h-1zM181 5h1v1h-1zM177 6h4v1h-4zM177 7h1v1h-1zM179 7h1v1h-1zM177 8h1v1h-1zM180 8h1v1h-1zM177 9h1v1h-1zM181 9h1v1h-1zM183 3h5v1h-5zM183 4h1v1h-1zM183 5h1v1h-1zM183 6h4v1h-4zM183 7h1v1h-1zM183 8h1v1h-1zM183 9h5v1h-5zM190 3h4v1h-4zM189 4h1v1h-1zM189 5h1v1h-1zM190 6h3v1h-3zM193 7h1v1h-1zM193 8h1v1h-1zM189 9h4v1h-4zM195 3h5v1h-5zM195 4h1v1h-1zM195 5h1v1h-1zM195 6h4v1h-4zM195 7h1v1h-1zM195 8h1v1h-1zM195 9h5v1h-5zM202 3h3v1h-3zM201 4h1v1h-1zM205 4h1v1h-1zM201 5h1v1h-1zM205 5h1v1h-1zM201 6h5v1h-5zM201 7h1v1h-1zM205 7h1v1h-1zM201 8h1v1h-1zM205 8h1v1h-1zM201 9h1v1h-1zM205 9h1v1h-1zM207 3h4v1h-4zM207 4h1v1h-1zM211 4h1v1h-1zM207 5h1v1h-1zM211 5h1v1h-1zM207 6h4v1h-4zM207 7h1v1h-1zM209 7h1v1h-1zM207 8h1v1h-1zM210 8h1v1h-1zM207 9h1v1h-1zM211 9h1v1h-1zM214 3h3v1h-3zM213 4h1v1h-1zM217 4h1v1h-1zM213 5h1v1h-1zM213 6h1v1h-1zM213 7h1v1h-1zM213 8h1v1h-1zM217 8h1v1h-1zM214 9h3v1h-3zM219 3h1v1h-1zM223 3h1v1h-1zM219 4h1v1h-1zM223 4h1v1h-1zM219 5h1v1h-1zM223 5h1v1h-1zM219 6h5v1h-5zM219 7h1v1h-1zM223 7h1v1h-1zM219 8h1v1h-1zM223 8h1v1h-1zM219 9h1v1h-1zM223 9h1v1h-1z"/><path fill="#1F1F1F" d="M169 16h1v1h-1zM173 16h1v1h-1zM169 17h1v1h-1zM173 17h1v1h-1zM169 18h1v1h-1zM173 18h1v1h-1zM170 19h1v1h-1zM172 19h1v1h-1zM171 20h1v1h-1zM176 16h3v1h-3zM175 17h1v1h-1zM179 17h1v1h-1zM175 18h5v1h-5zM175 19h1v1h-1zM176 20h4v1h-4zM182 16h3v1h-3zM181 17h1v1h-1zM181 18h1v1h-1zM181 19h1v1h-1zM185 19h1v1h-1zM182 20h3v1h-3zM188 14h1v1h-1zM188 15h1v1h-1zM187 16h4v1h-4zM188 17h1v1h-1zM188 18h1v1h-1zM188 19h1v1h-1zM189 20h2v1h-2zM193 16h3v1h-3zM192 17h1v1h-1zM196 17h1v1h-1zM192 18h1v1h-1zM196 18h1v1h-1zM192 19h1v1h-1zM196 19h1v1h-1zM193 20h3v1h-3zM198 16h1v1h-1zM200 16h2v1h-2zM198 17h2v1h-2zM202 17h1v1h-1zM198 18h1v1h-1zM198 19h1v1h-1zM198 20h1v1h-1zM206 15h1v1h-1zM206 16h1v1h-1zM204 17h5v1h-5zM206 18h1v1h-1zM206 19h1v1h-1zM210 14h4v1h-4zM210 15h1v1h-1zM214 15h1v1h-1zM210 16h1v1h-1zM214 16h1v1h-1zM210 17h4v1h-4zM210 18h1v1h-1zM214 18h1v1h-1zM210 19h1v1h-1zM214 19h1v1h-1zM210 20h4v1h-4zM216 14h1v1h-1zM220 14h1v1h-1zM216 15h2v1h-2zM219 15h2v1h-2zM216 16h1v1h-1zM218 16h1v1h-1zM220 16h1v1h-1zM216 17h1v1h-1zM218 17h1v1h-1zM220 17h1v1h-1zM216 18h1v1h-1zM220 18h1v1h-1zM216 19h1v1h-1zM220 19h1v1h-1zM216 20h1v1h-1zM220 20h1v1h-1zM223 14h3v1h-3zM222 15h1v1h-1zM226 15h1v1h-1zM226 16h1v1h-1zM224 17h2v1h-2zM223 18h1v1h-1zM222 19h1v1h-1zM222 20h5v1h-5zM228 14h5v1h-5zM228 15h1v1h-1zM228 16h4v1h-4zM232 17h1v1h-1zM232 18h1v1h-1zM228 19h1v1h-1zM232 19h1v1h-1zM229 20h3v1h-3z"/><path fill="#AAAAAA" d="M168 15h1v1h-1zM172 15h1v1h-1zM168 16h1v1h-1zM172 16h1v1h-1zM168 17h1v1h-1zM172 17h1v1h-1zM169 18h1v1h-1zM171 18h1v1h-1zM170 19h1v1h-1zM175 15h3v1h-3zM174 16h1v1h-1zM178 16h1v1h-1zM174 17h5v1h-5zM174 18h1v1h-1zM175 19h4v1h-4zM181 15h3v1h-3zM180 16h1v1h-1zM180 17h1v1h-1zM180 18h1v1h-1zM184 18h1v1h-1zM181 19h3v1h-3zM187 13h1v1h-1zM187 14h1v1h-1zM186 15h4v1h-4zM187 16h1v1h-1zM187 17h1v1h-1zM187 18h1v1h-1zM188 19h2v1h-2zM192 15h3v1h-3zM191 16h1v1h-1zM195 16h1v1h-1zM191 17h1v1h-1zM195 17h1v1h-1zM191 18h1v1h-1zM195 18h1v1h-1zM192 19h3v1h-3zM197 15h1v1h-1zM199 15h2v1h-2zM197 16h2v1h-2zM201 16h1v1h-1zM197 17h1v1h-1zM197 18h1v1h-1zM197 19h1v1h-1zM205 14h1v1h-1zM205 15h1v1h-1zM203 16h5v1h-5zM205 17h1v1h-1zM205 18h1v1h-1zM209 13h4v1h-4zM209 14h1v1h-1zM213 14h1v1h-1zM209 15h1v1h-1zM213 15h1v1h-1zM209 16h4v1h-4zM209 17h1v1h-1zM213 17h1v1h-1zM209 18h1v1h-1zM213 18h1v1h-1zM209 19h4v1h-4zM215 13h1v1h-1zM219 13h1v1h-1zM215 14h2v1h-2zM218 14h2v1h-2zM215 15h1v1h-1zM217 15h1v1h-1zM219 15h1v1h-1zM215 16h1v1h-1zM217 16h1v1h-1zM219 16h1v1h-1zM215 17h1v1h-1zM219 17h1v1h-1zM215 18h1v1h-1zM219 18h1v1h-1zM215 19h1v1h-1zM219 19h1v1h-1zM222 13h3v1h-3zM221 14h1v1h-1zM225 14h1v1h-1zM225 15h1v1h-1zM223 16h2v1h-2zM222 17h1v1h-1zM221 18h1v1h-1zM221 19h5v1h-5zM227 13h5v1h-5zM227 14h1v1h-1zM227 15h4v1h-4zM231 16h1v1h-1zM231 17h1v1h-1zM227 18h1v1h-1zM231 18h1v1h-1zM228 19h3v1h-3z"/><g class="g3"><rect x="263" y="25" width="34" height="34" fill="#FFE680" fill-opacity="0.45"/><rect x="261" y="27" width="38" height="30" fill="#FFE680" fill-opacity="0.25"/></g><rect x="265" y="27" width="30" height="30" fill="#262626"/><rect x="266" y="28" width="28" height="28" fill="url(#planks)"/><rect x="268" y="30" width="24" height="24" fill="#5A3E22"/><g transform="translate(268 30) scale(2)"><path fill="#262626" d="M0 0h12v1h-12zM0 1h1v1h-1zM11 1h1v1h-1zM0 2h1v1h-1zM2 2h8v1h-8zM11 2h1v1h-1zM0 3h1v1h-1zM11 3h1v1h-1zM0 4h1v1h-1zM11 4h1v1h-1zM0 5h1v1h-1zM11 5h1v1h-1zM0 6h1v1h-1zM11 6h1v1h-1zM0 7h1v1h-1zM11 7h1v1h-1zM0 8h1v1h-1zM11 8h1v1h-1zM0 9h1v1h-1zM11 9h1v1h-1zM0 10h12v1h-12z"/><path fill="#FFFFFF" d="M1 1h10v1h-10zM1 2h1v1h-1zM10 2h1v1h-1zM1 3h10v1h-10zM1 4h1v1h-1zM5 4h2v1h-2zM9 4h2v1h-2zM1 5h1v1h-1zM5 5h6v1h-6zM1 6h1v1h-1zM5 6h2v1h-2zM9 6h2v1h-2zM1 7h10v1h-10zM1 8h1v1h-1zM6 8h1v1h-1zM9 8h2v1h-2zM1 9h10v1h-10z"/><path fill="#8DC2F5" d="M2 4h3v1h-3zM2 5h3v1h-3zM2 6h3v1h-3z"/><path fill="#7A7F85" d="M7 4h2v1h-2zM7 6h2v1h-2zM2 8h4v1h-4zM7 8h2v1h-2z"/></g><path fill="#3F3F3F" d="M268 4h1v1h-1zM272 4h1v1h-1zM268 5h1v1h-1zM272 5h1v1h-1zM268 6h1v1h-1zM272 6h1v1h-1zM268 7h1v1h-1zM270 7h1v1h-1zM272 7h1v1h-1zM268 8h1v1h-1zM270 8h1v1h-1zM272 8h1v1h-1zM268 9h2v1h-2zM271 9h2v1h-2zM268 10h1v1h-1zM272 10h1v1h-1zM274 4h4v1h-4zM274 5h1v1h-1zM278 5h1v1h-1zM274 6h1v1h-1zM278 6h1v1h-1zM274 7h4v1h-4zM274 8h1v1h-1zM276 8h1v1h-1zM274 9h1v1h-1zM277 9h1v1h-1zM274 10h1v1h-1zM278 10h1v1h-1zM280 4h3v1h-3zM281 5h1v1h-1zM281 6h1v1h-1zM281 7h1v1h-1zM281 8h1v1h-1zM281 9h1v1h-1zM280 10h3v1h-3zM284 4h5v1h-5zM286 5h1v1h-1zM286 6h1v1h-1zM286 7h1v1h-1zM286 8h1v1h-1zM286 9h1v1h-1zM286 10h1v1h-1zM290 4h5v1h-5zM290 5h1v1h-1zM290 6h1v1h-1zM290 7h4v1h-4zM290 8h1v1h-1zM290 9h1v1h-1zM290 10h5v1h-5z"/><path fill="#FFFFFF" d="M267 3h1v1h-1zM271 3h1v1h-1zM267 4h1v1h-1zM271 4h1v1h-1zM267 5h1v1h-1zM271 5h1v1h-1zM267 6h1v1h-1zM269 6h1v1h-1zM271 6h1v1h-1zM267 7h1v1h-1zM269 7h1v1h-1zM271 7h1v1h-1zM267 8h2v1h-2zM270 8h2v1h-2zM267 9h1v1h-1zM271 9h1v1h-1zM273 3h4v1h-4zM273 4h1v1h-1zM277 4h1v1h-1zM273 5h1v1h-1zM277 5h1v1h-1zM273 6h4v1h-4zM273 7h1v1h-1zM275 7h1v1h-1zM273 8h1v1h-1zM276 8h1v1h-1zM273 9h1v1h-1zM277 9h1v1h-1zM279 3h3v1h-3zM280 4h1v1h-1zM280 5h1v1h-1zM280 6h1v1h-1zM280 7h1v1h-1zM280 8h1v1h-1zM279 9h3v1h-3zM283 3h5v1h-5zM285 4h1v1h-1zM285 5h1v1h-1zM285 6h1v1h-1zM285 7h1v1h-1zM285 8h1v1h-1zM285 9h1v1h-1zM289 3h5v1h-5zM289 4h1v1h-1zM289 5h1v1h-1zM289 6h4v1h-4zM289 7h1v1h-1zM289 8h1v1h-1zM289 9h5v1h-5z"/><path fill="#1F1F1F" d="M251 16h3v1h-3zM250 17h1v1h-1zM250 18h1v1h-1zM250 19h1v1h-1zM254 19h1v1h-1zM251 20h3v1h-3zM256 14h1v1h-1zM256 16h1v1h-1zM256 17h1v1h-1zM256 18h1v1h-1zM256 19h1v1h-1zM256 20h1v1h-1zM259 14h1v1h-1zM259 15h1v1h-1zM258 16h4v1h-4zM259 17h1v1h-1zM259 18h1v1h-1zM259 19h1v1h-1zM260 20h2v1h-2zM264 16h3v1h-3zM263 17h1v1h-1zM267 17h1v1h-1zM263 18h5v1h-5zM263 19h1v1h-1zM264 20h4v1h-4zM273 14h1v1h-1zM273 15h1v1h-1zM270 16h2v1h-2zM273 16h1v1h-1zM269 17h1v1h-1zM272 17h2v1h-2zM269 18h1v1h-1zM273 18h1v1h-1zM269 19h1v1h-1zM273 19h1v1h-1zM270 20h4v1h-4zM283 14h1v1h-1zM283 15h1v1h-1zM280 16h2v1h-2zM283 16h1v1h-1zM279 17h1v1h-1zM282 17h2v1h-2zM279 18h1v1h-1zM283 18h1v1h-1zM279 19h1v1h-1zM283 19h1v1h-1zM280 20h4v1h-4zM285 16h1v1h-1zM287 16h2v1h-2zM285 17h2v1h-2zM289 17h1v1h-1zM285 18h1v1h-1zM285 19h1v1h-1zM285 20h1v1h-1zM292 16h3v1h-3zM295 17h1v1h-1zM292 18h4v1h-4zM291 19h1v1h-1zM295 19h1v1h-1zM292 20h4v1h-4zM299 14h2v1h-2zM298 15h1v1h-1zM297 16h4v1h-4zM298 17h1v1h-1zM298 18h1v1h-1zM298 19h1v1h-1zM298 20h1v1h-1zM303 14h1v1h-1zM303 15h1v1h-1zM302 16h4v1h-4zM303 17h1v1h-1zM303 18h1v1h-1zM303 19h1v1h-1zM304 20h2v1h-2zM308 16h4v1h-4zM307 17h1v1h-1zM308 18h3v1h-3zM311 19h1v1h-1zM307 20h4v1h-4z"/><path fill="#AAAAAA" d="M250 15h3v1h-3zM249 16h1v1h-1zM249 17h1v1h-1zM249 18h1v1h-1zM253 18h1v1h-1zM250 19h3v1h-3zM255 13h1v1h-1zM255 15h1v1h-1zM255 16h1v1h-1zM255 17h1v1h-1zM255 18h1v1h-1zM255 19h1v1h-1zM258 13h1v1h-1zM258 14h1v1h-1zM257 15h4v1h-4zM258 16h1v1h-1zM258 17h1v1h-1zM258 18h1v1h-1zM259 19h2v1h-2zM263 15h3v1h-3zM262 16h1v1h-1zM266 16h1v1h-1zM262 17h5v1h-5zM262 18h1v1h-1zM263 19h4v1h-4zM272 13h1v1h-1zM272 14h1v1h-1zM269 15h2v1h-2zM272 15h1v1h-1zM268 16h1v1h-1zM271 16h2v1h-2zM268 17h1v1h-1zM272 17h1v1h-1zM268 18h1v1h-1zM272 18h1v1h-1zM269 19h4v1h-4zM282 13h1v1h-1zM282 14h1v1h-1zM279 15h2v1h-2zM282 15h1v1h-1zM278 16h1v1h-1zM281 16h2v1h-2zM278 17h1v1h-1zM282 17h1v1h-1zM278 18h1v1h-1zM282 18h1v1h-1zM279 19h4v1h-4zM284 15h1v1h-1zM286 15h2v1h-2zM284 16h2v1h-2zM288 16h1v1h-1zM284 17h1v1h-1zM284 18h1v1h-1zM284 19h1v1h-1zM291 15h3v1h-3zM294 16h1v1h-1zM291 17h4v1h-4zM290 18h1v1h-1zM294 18h1v1h-1zM291 19h4v1h-4zM298 13h2v1h-2zM297 14h1v1h-1zM296 15h4v1h-4zM297 16h1v1h-1zM297 17h1v1h-1zM297 18h1v1h-1zM297 19h1v1h-1zM302 13h1v1h-1zM302 14h1v1h-1zM301 15h4v1h-4zM302 16h1v1h-1zM302 17h1v1h-1zM302 18h1v1h-1zM303 19h2v1h-2zM307 15h4v1h-4zM306 16h1v1h-1zM307 17h3v1h-3zM310 18h1v1h-1zM306 19h4v1h-4z"/><g class="g4"><rect x="343" y="25" width="34" height="34" fill="#FFE680" fill-opacity="0.45"/><rect x="341" y="27" width="38" height="30" fill="#FFE680" fill-opacity="0.25"/></g><rect x="345" y="27" width="30" height="30" fill="#262626"/><rect x="346" y="28" width="28" height="28" fill="url(#planks)"/><rect x="348" y="30" width="24" height="24" fill="#5A3E22"/><g transform="translate(348 30) scale(2)"><path fill="#262626" d="M1 0h10v1h-10zM0 1h1v1h-1zM11 1h1v1h-1zM0 2h1v1h-1zM11 2h1v1h-1zM0 3h1v1h-1zM11 3h1v1h-1zM0 4h1v1h-1zM11 4h1v1h-1zM0 5h1v1h-1zM11 5h1v1h-1zM0 6h1v1h-1zM11 6h1v1h-1zM0 7h1v1h-1zM11 7h1v1h-1zM0 8h1v1h-1zM11 8h1v1h-1zM1 9h10v1h-10zM2 10h2v1h-2zM2 11h1v1h-1z"/><path fill="#FFFFFF" d="M1 1h10v1h-10zM1 2h8v1h-8zM10 2h1v1h-1zM1 3h7v1h-7zM10 3h1v1h-1zM1 4h6v1h-6zM9 4h2v1h-2zM1 5h1v1h-1zM3 5h3v1h-3zM8 5h3v1h-3zM1 6h1v1h-1zM4 6h1v1h-1zM7 6h4v1h-4zM1 7h2v1h-2zM7 7h4v1h-4zM1 8h3v1h-3zM6 8h5v1h-5z"/><path fill="#2F6A31" d="M9 2h1v1h-1zM8 3h2v1h-2zM7 4h2v1h-2zM2 5h1v1h-1zM6 5h2v1h-2zM2 6h2v1h-2zM5 6h2v1h-2zM3 7h4v1h-4zM4 8h2v1h-2z"/></g><path fill="#3F3F3F" d="M345 4h1v1h-1zM349 4h1v1h-1zM345 5h1v1h-1zM349 5h1v1h-1zM345 6h1v1h-1zM349 6h1v1h-1zM345 7h1v1h-1zM349 7h1v1h-1zM346 8h1v1h-1zM348 8h1v1h-1zM346 9h1v1h-1zM348 9h1v1h-1zM347 10h1v1h-1zM351 4h5v1h-5zM351 5h1v1h-1zM351 6h1v1h-1zM351 7h4v1h-4zM351 8h1v1h-1zM351 9h1v1h-1zM351 10h5v1h-5zM357 4h4v1h-4zM357 5h1v1h-1zM361 5h1v1h-1zM357 6h1v1h-1zM361 6h1v1h-1zM357 7h4v1h-4zM357 8h1v1h-1zM359 8h1v1h-1zM357 9h1v1h-1zM360 9h1v1h-1zM357 10h1v1h-1zM361 10h1v1h-1zM363 4h3v1h-3zM364 5h1v1h-1zM364 6h1v1h-1zM364 7h1v1h-1zM364 8h1v1h-1zM364 9h1v1h-1zM363 10h3v1h-3zM367 4h5v1h-5zM367 5h1v1h-1zM367 6h1v1h-1zM367 7h4v1h-4zM367 8h1v1h-1zM367 9h1v1h-1zM367 10h1v1h-1zM373 4h1v1h-1zM377 4h1v1h-1zM373 5h1v1h-1zM377 5h1v1h-1zM374 6h1v1h-1zM376 6h1v1h-1zM375 7h1v1h-1zM375 8h1v1h-1zM375 9h1v1h-1zM375 10h1v1h-1z"/><path fill="#FFFFFF" d="M344 3h1v1h-1zM348 3h1v1h-1zM344 4h1v1h-1zM348 4h1v1h-1zM344 5h1v1h-1zM348 5h1v1h-1zM344 6h1v1h-1zM348 6h1v1h-1zM345 7h1v1h-1zM347 7h1v1h-1zM345 8h1v1h-1zM347 8h1v1h-1zM346 9h1v1h-1zM350 3h5v1h-5zM350 4h1v1h-1zM350 5h1v1h-1zM350 6h4v1h-4zM350 7h1v1h-1zM350 8h1v1h-1zM350 9h5v1h-5zM356 3h4v1h-4zM356 4h1v1h-1zM360 4h1v1h-1zM356 5h1v1h-1zM360 5h1v1h-1zM356 6h4v1h-4zM356 7h1v1h-1zM358 7h1v1h-1zM356 8h1v1h-1zM359 8h1v1h-1zM356 9h1v1h-1zM360 9h1v1h-1zM362 3h3v1h-3zM363 4h1v1h-1zM363 5h1v1h-1zM363 6h1v1h-1zM363 7h1v1h-1zM363 8h1v1h-1zM362 9h3v1h-3zM366 3h5v1h-5zM366 4h1v1h-1zM366 5h1v1h-1zM366 6h4v1h-4zM366 7h1v1h-1zM366 8h1v1h-1zM366 9h1v1h-1zM372 3h1v1h-1zM376 3h1v1h-1zM372 4h1v1h-1zM376 4h1v1h-1zM373 5h1v1h-1zM375 5h1v1h-1zM374 6h1v1h-1zM374 7h1v1h-1zM374 8h1v1h-1zM374 9h1v1h-1z"/><path fill="#1F1F1F" d="M326 14h2v1h-2zM325 15h1v1h-1zM324 16h4v1h-4zM325 17h1v1h-1zM325 18h1v1h-1zM325 19h1v1h-1zM325 20h1v1h-1zM330 16h3v1h-3zM333 17h1v1h-1zM330 18h4v1h-4zM329 19h1v1h-1zM333 19h1v1h-1zM330 20h4v1h-4zM336 16h3v1h-3zM335 17h1v1h-1zM335 18h1v1h-1zM335 19h1v1h-1zM339 19h1v1h-1zM336 20h3v1h-3zM342 14h1v1h-1zM342 15h1v1h-1zM341 16h4v1h-4zM342 17h1v1h-1zM342 18h1v1h-1zM342 19h1v1h-1zM343 20h2v1h-2zM347 16h4v1h-4zM346 17h1v1h-1zM347 18h3v1h-3zM350 19h1v1h-1zM346 20h4v1h-4zM356 16h1v1h-1zM360 16h1v1h-1zM356 17h1v1h-1zM360 17h1v1h-1zM356 18h1v1h-1zM360 18h1v1h-1zM357 19h1v1h-1zM359 19h1v1h-1zM358 20h1v1h-1zM363 16h3v1h-3zM362 17h1v1h-1zM366 17h1v1h-1zM362 18h5v1h-5zM362 19h1v1h-1zM363 20h4v1h-4zM368 16h1v1h-1zM370 16h2v1h-2zM368 17h2v1h-2zM372 17h1v1h-1zM368 18h1v1h-1zM368 19h1v1h-1zM368 20h1v1h-1zM374 14h1v1h-1zM374 15h1v1h-1zM374 16h1v1h-1zM376 16h2v1h-2zM374 17h2v1h-2zM378 17h1v1h-1zM374 18h1v1h-1zM378 18h1v1h-1zM374 19h1v1h-1zM378 19h1v1h-1zM374 20h4v1h-4zM381 16h3v1h-3zM384 17h1v1h-1zM381 18h4v1h-4zM380 19h1v1h-1zM384 19h1v1h-1zM381 20h4v1h-4zM387 14h1v1h-1zM387 15h1v1h-1zM386 16h4v1h-4zM387 17h1v1h-1zM387 18h1v1h-1zM387 19h1v1h-1zM388 20h2v1h-2zM391 14h1v1h-1zM391 16h1v1h-1zM391 17h1v1h-1zM391 18h1v1h-1zM391 19h1v1h-1zM391 20h1v1h-1zM393 16h2v1h-2zM396 16h1v1h-1zM393 17h1v1h-1zM395 17h1v1h-1zM397 17h1v1h-1zM393 18h1v1h-1zM395 18h1v1h-1zM397 18h1v1h-1zM393 19h1v1h-1zM397 19h1v1h-1zM393 20h1v1h-1zM397 20h1v1h-1z"/><path fill="#AAAAAA" d="M325 13h2v1h-2zM324 14h1v1h-1zM323 15h4v1h-4zM324 16h1v1h-1zM324 17h1v1h-1zM324 18h1v1h-1zM324 19h1v1h-1zM329 15h3v1h-3zM332 16h1v1h-1zM329 17h4v1h-4zM328 18h1v1h-1zM332 18h1v1h-1zM329 19h4v1h-4zM335 15h3v1h-3zM334 16h1v1h-1zM334 17h1v1h-1zM334 18h1v1h-1zM338 18h1v1h-1zM335 19h3v1h-3zM341 13h1v1h-1zM341 14h1v1h-1zM340 15h4v1h-4zM341 16h1v1h-1zM341 17h1v1h-1zM341 18h1v1h-1zM342 19h2v1h-2zM346 15h4v1h-4zM345 16h1v1h-1zM346 17h3v1h-3zM349 18h1v1h-1zM345 19h4v1h-4zM355 15h1v1h-1zM359 15h1v1h-1zM355 16h1v1h-1zM359 16h1v1h-1zM355 17h1v1h-1zM359 17h1v1h-1zM356 18h1v1h-1zM358 18h1v1h-1zM357 19h1v1h-1zM362 15h3v1h-3zM361 16h1v1h-1zM365 16h1v1h-1zM361 17h5v1h-5zM361 18h1v1h-1zM362 19h4v1h-4zM367 15h1v1h-1zM369 15h2v1h-2zM367 16h2v1h-2zM371 16h1v1h-1zM367 17h1v1h-1zM367 18h1v1h-1zM367 19h1v1h-1zM373 13h1v1h-1zM373 14h1v1h-1zM373 15h1v1h-1zM375 15h2v1h-2zM373 16h2v1h-2zM377 16h1v1h-1zM373 17h1v1h-1zM377 17h1v1h-1zM373 18h1v1h-1zM377 18h1v1h-1zM373 19h4v1h-4zM380 15h3v1h-3zM383 16h1v1h-1zM380 17h4v1h-4zM379 18h1v1h-1zM383 18h1v1h-1zM380 19h4v1h-4zM386 13h1v1h-1zM386 14h1v1h-1zM385 15h4v1h-4zM386 16h1v1h-1zM386 17h1v1h-1zM386 18h1v1h-1zM387 19h2v1h-2zM390 13h1v1h-1zM390 15h1v1h-1zM390 16h1v1h-1zM390 17h1v1h-1zM390 18h1v1h-1zM390 19h1v1h-1zM392 15h2v1h-2zM395 15h1v1h-1zM392 16h1v1h-1zM394 16h1v1h-1zM396 16h1v1h-1zM392 17h1v1h-1zM394 17h1v1h-1zM396 17h1v1h-1zM392 18h1v1h-1zM396 18h1v1h-1zM392 19h1v1h-1zM396 19h1v1h-1z"/><g class="g5"><rect x="423" y="25" width="34" height="34" fill="#FFE680" fill-opacity="0.45"/><rect x="421" y="27" width="38" height="30" fill="#FFE680" fill-opacity="0.25"/></g><rect x="425" y="27" width="30" height="30" fill="#262626"/><rect x="426" y="28" width="28" height="28" fill="url(#planks)"/><rect x="428" y="30" width="24" height="24" fill="#5A3E22"/><g transform="translate(428 30) scale(2)"><path fill="#262626" d="M6 1h3v1h-3zM5 2h1v1h-1zM9 2h1v1h-1zM4 3h1v1h-1zM8 3h1v1h-1zM11 3h1v1h-1zM3 4h1v1h-1zM9 4h1v1h-1zM2 5h1v1h-1zM10 5h1v1h-1zM1 6h1v1h-1zM9 6h1v1h-1zM1 7h1v1h-1zM2 8h1v1h-1z"/><path fill="#3D7CC9" d="M6 2h3v1h-3zM5 3h3v1h-3zM9 3h1v1h-1zM4 4h5v1h-5zM7 5h1v1h-1z"/><path fill="#F2A33A" d="M10 3h1v1h-1z"/><path fill="#2A5A99" d="M3 5h4v1h-4zM2 6h4v1h-4zM2 7h1v1h-1z"/><path fill="#DCE8F5" d="M8 5h2v1h-2zM6 6h3v1h-3zM4 7h4v1h-4z"/><path fill="#FFFFFF" d="M9 7h2v1h-2zM9 8h1v1h-1zM9 9h2v1h-2z"/><path fill="#5A3A1A" d="M5 8h1v1h-1zM7 8h1v1h-1z"/><path fill="#7A7F85" d="M10 8h1v1h-1z"/></g><path fill="#3F3F3F" d="M422 4h4v1h-4zM422 5h1v1h-1zM426 5h1v1h-1zM422 6h1v1h-1zM426 6h1v1h-1zM422 7h4v1h-4zM422 8h1v1h-1zM422 9h1v1h-1zM422 10h1v1h-1zM428 4h1v1h-1zM432 4h1v1h-1zM428 5h1v1h-1zM432 5h1v1h-1zM428 6h1v1h-1zM432 6h1v1h-1zM428 7h1v1h-1zM432 7h1v1h-1zM428 8h1v1h-1zM432 8h1v1h-1zM428 9h1v1h-1zM432 9h1v1h-1zM429 10h3v1h-3zM434 4h4v1h-4zM434 5h1v1h-1zM438 5h1v1h-1zM434 6h1v1h-1zM438 6h1v1h-1zM434 7h4v1h-4zM434 8h1v1h-1zM438 8h1v1h-1zM434 9h1v1h-1zM438 9h1v1h-1zM434 10h4v1h-4zM440 4h1v1h-1zM440 5h1v1h-1zM440 6h1v1h-1zM440 7h1v1h-1zM440 8h1v1h-1zM440 9h1v1h-1zM440 10h5v1h-5zM446 4h3v1h-3zM447 5h1v1h-1zM447 6h1v1h-1zM447 7h1v1h-1zM447 8h1v1h-1zM447 9h1v1h-1zM446 10h3v1h-3zM451 4h4v1h-4zM450 5h1v1h-1zM450 6h1v1h-1zM451 7h3v1h-3zM454 8h1v1h-1zM454 9h1v1h-1zM450 10h4v1h-4zM456 4h1v1h-1zM460 4h1v1h-1zM456 5h1v1h-1zM460 5h1v1h-1zM456 6h1v1h-1zM460 6h1v1h-1zM456 7h5v1h-5zM456 8h1v1h-1zM460 8h1v1h-1zM456 9h1v1h-1zM460 9h1v1h-1zM456 10h1v1h-1zM460 10h1v1h-1z"/><path fill="#FFFFFF" d="M421 3h4v1h-4zM421 4h1v1h-1zM425 4h1v1h-1zM421 5h1v1h-1zM425 5h1v1h-1zM421 6h4v1h-4zM421 7h1v1h-1zM421 8h1v1h-1zM421 9h1v1h-1zM427 3h1v1h-1zM431 3h1v1h-1zM427 4h1v1h-1zM431 4h1v1h-1zM427 5h1v1h-1zM431 5h1v1h-1zM427 6h1v1h-1zM431 6h1v1h-1zM427 7h1v1h-1zM431 7h1v1h-1zM427 8h1v1h-1zM431 8h1v1h-1zM428 9h3v1h-3zM433 3h4v1h-4zM433 4h1v1h-1zM437 4h1v1h-1zM433 5h1v1h-1zM437 5h1v1h-1zM433 6h4v1h-4zM433 7h1v1h-1zM437 7h1v1h-1zM433 8h1v1h-1zM437 8h1v1h-1zM433 9h4v1h-4zM439 3h1v1h-1zM439 4h1v1h-1zM439 5h1v1h-1zM439 6h1v1h-1zM439 7h1v1h-1zM439 8h1v1h-1zM439 9h5v1h-5zM445 3h3v1h-3zM446 4h1v1h-1zM446 5h1v1h-1zM446 6h1v1h-1zM446 7h1v1h-1zM446 8h1v1h-1zM445 9h3v1h-3zM450 3h4v1h-4zM449 4h1v1h-1zM449 5h1v1h-1zM450 6h3v1h-3zM453 7h1v1h-1zM453 8h1v1h-1zM449 9h4v1h-4zM455 3h1v1h-1zM459 3h1v1h-1zM455 4h1v1h-1zM459 4h1v1h-1zM455 5h1v1h-1zM459 5h1v1h-1zM455 6h5v1h-5zM455 7h1v1h-1zM459 7h1v1h-1zM455 8h1v1h-1zM459 8h1v1h-1zM455 9h1v1h-1zM459 9h1v1h-1z"/><path fill="#1F1F1F" d="M408 14h1v1h-1zM408 15h1v1h-1zM407 16h4v1h-4zM408 17h1v1h-1zM408 18h1v1h-1zM408 19h1v1h-1zM409 20h2v1h-2zM413 16h3v1h-3zM412 17h1v1h-1zM416 17h1v1h-1zM412 18h1v1h-1zM416 18h1v1h-1zM412 19h1v1h-1zM416 19h1v1h-1zM413 20h3v1h-3zM422 16h1v1h-1zM426 16h1v1h-1zM422 17h1v1h-1zM426 17h1v1h-1zM422 18h1v1h-1zM426 18h1v1h-1zM423 19h4v1h-4zM426 20h1v1h-1zM422 21h4v1h-4zM429 16h3v1h-3zM428 17h1v1h-1zM432 17h1v1h-1zM428 18h1v1h-1zM432 18h1v1h-1zM428 19h1v1h-1zM432 19h1v1h-1zM429 20h3v1h-3zM434 16h1v1h-1zM438 16h1v1h-1zM434 17h1v1h-1zM438 17h1v1h-1zM434 18h1v1h-1zM438 18h1v1h-1zM434 19h1v1h-1zM438 19h1v1h-1zM435 20h4v1h-4zM440 16h1v1h-1zM442 16h2v1h-2zM440 17h2v1h-2zM444 17h1v1h-1zM440 18h1v1h-1zM440 19h1v1h-1zM440 20h1v1h-1zM450 14h1v1h-1zM450 15h1v1h-1zM450 16h1v1h-1zM452 16h2v1h-2zM450 17h2v1h-2zM454 17h1v1h-1zM450 18h1v1h-1zM454 18h1v1h-1zM450 19h1v1h-1zM454 19h1v1h-1zM450 20h4v1h-4zM456 14h1v1h-1zM456 15h1v1h-1zM456 16h1v1h-1zM456 17h1v1h-1zM456 18h1v1h-1zM456 19h1v1h-1zM457 20h1v1h-1zM460 16h3v1h-3zM459 17h1v1h-1zM463 17h1v1h-1zM459 18h1v1h-1zM463 18h1v1h-1zM459 19h1v1h-1zM463 19h1v1h-1zM460 20h3v1h-3zM466 16h3v1h-3zM465 17h1v1h-1zM465 18h1v1h-1zM465 19h1v1h-1zM469 19h1v1h-1zM466 20h3v1h-3zM471 14h1v1h-1zM471 15h1v1h-1zM471 16h1v1h-1zM474 16h1v1h-1zM471 17h1v1h-1zM473 17h1v1h-1zM471 18h2v1h-2zM471 19h1v1h-1zM473 19h1v1h-1zM471 20h1v1h-1zM474 20h1v1h-1z"/><path fill="#AAAAAA" d="M407 13h1v1h-1zM407 14h1v1h-1zM406 15h4v1h-4zM407 16h1v1h-1zM407 17h1v1h-1zM407 18h1v1h-1zM408 19h2v1h-2zM412 15h3v1h-3zM411 16h1v1h-1zM415 16h1v1h-1zM411 17h1v1h-1zM415 17h1v1h-1zM411 18h1v1h-1zM415 18h1v1h-1zM412 19h3v1h-3zM421 15h1v1h-1zM425 15h1v1h-1zM421 16h1v1h-1zM425 16h1v1h-1zM421 17h1v1h-1zM425 17h1v1h-1zM422 18h4v1h-4zM425 19h1v1h-1zM421 20h4v1h-4zM428 15h3v1h-3zM427 16h1v1h-1zM431 16h1v1h-1zM427 17h1v1h-1zM431 17h1v1h-1zM427 18h1v1h-1zM431 18h1v1h-1zM428 19h3v1h-3zM433 15h1v1h-1zM437 15h1v1h-1zM433 16h1v1h-1zM437 16h1v1h-1zM433 17h1v1h-1zM437 17h1v1h-1zM433 18h1v1h-1zM437 18h1v1h-1zM434 19h4v1h-4zM439 15h1v1h-1zM441 15h2v1h-2zM439 16h2v1h-2zM443 16h1v1h-1zM439 17h1v1h-1zM439 18h1v1h-1zM439 19h1v1h-1zM449 13h1v1h-1zM449 14h1v1h-1zM449 15h1v1h-1zM451 15h2v1h-2zM449 16h2v1h-2zM453 16h1v1h-1zM449 17h1v1h-1zM453 17h1v1h-1zM449 18h1v1h-1zM453 18h1v1h-1zM449 19h4v1h-4zM455 13h1v1h-1zM455 14h1v1h-1zM455 15h1v1h-1zM455 16h1v1h-1zM455 17h1v1h-1zM455 18h1v1h-1zM456 19h1v1h-1zM459 15h3v1h-3zM458 16h1v1h-1zM462 16h1v1h-1zM458 17h1v1h-1zM462 17h1v1h-1zM458 18h1v1h-1zM462 18h1v1h-1zM459 19h3v1h-3zM465 15h3v1h-3zM464 16h1v1h-1zM464 17h1v1h-1zM464 18h1v1h-1zM468 18h1v1h-1zM465 19h3v1h-3zM470 13h1v1h-1zM470 14h1v1h-1zM470 15h1v1h-1zM473 15h1v1h-1zM470 16h1v1h-1zM472 16h1v1h-1zM470 17h2v1h-2zM470 18h1v1h-1zM472 18h1v1h-1zM470 19h1v1h-1zM473 19h1v1h-1z"/><rect x="0" y="72" width="480" height="1" fill="#262626"/><rect x="1" y="72" width="4" height="2" fill="#6B4A2E"/><rect x="7" y="72" width="4" height="2" fill="#6B4A2E"/><rect x="13" y="72" width="4" height="2" fill="#6B4A2E"/><rect x="19" y="72" width="4" height="2" fill="#6B4A2E"/><rect x="25" y="72" width="4" height="2" fill="#6B4A2E"/><rect x="31" y="72" width="4" height="2" fill="#6B4A2E"/><rect x="37" y="72" width="4" height="2" fill="#6B4A2E"/><rect x="43" y="72" width="4" height="2" fill="#6B4A2E"/><rect x="49" y="72" width="4" height="2" fill="#6B4A2E"/><rect x="55" y="72" width="4" height="2" fill="#6B4A2E"/><rect x="61" y="72" width="4" height="2" fill="#6B4A2E"/><rect x="67" y="72" width="4" height="2" fill="#6B4A2E"/><rect x="73" y="72" width="4" height="2" fill="#6B4A2E"/><rect x="79" y="72" width="4" height="2" fill="#6B4A2E"/><rect x="85" y="72" width="4" height="2" fill="#6B4A2E"/><rect x="91" y="72" width="4" height="2" fill="#6B4A2E"/><rect x="97" y="72" width="4" height="2" fill="#6B4A2E"/><rect x="103" y="72" width="4" height="2" fill="#6B4A2E"/><rect x="109" y="72" width="4" height="2" fill="#6B4A2E"/><rect x="115" y="72" width="4" height="2" fill="#6B4A2E"/><rect x="121" y="72" width="4" height="2" fill="#6B4A2E"/><rect x="127" y="72" width="4" height="2" fill="#6B4A2E"/><rect x="133" y="72" width="4" height="2" fill="#6B4A2E"/><rect x="139" y="72" width="4" height="2" fill="#6B4A2E"/><rect x="145" y="72" width="4" height="2" fill="#6B4A2E"/><rect x="151" y="72" width="4" height="2" fill="#6B4A2E"/><rect x="157" y="72" width="4" height="2" fill="#6B4A2E"/><rect x="163" y="72" width="4" height="2" fill="#6B4A2E"/><rect x="169" y="72" width="4" height="2" fill="#6B4A2E"/><rect x="175" y="72" width="4" height="2" fill="#6B4A2E"/><rect x="181" y="72" width="4" height="2" fill="#6B4A2E"/><rect x="187" y="72" width="4" height="2" fill="#6B4A2E"/><rect x="193" y="72" width="4" height="2" fill="#6B4A2E"/><rect x="199" y="72" width="4" height="2" fill="#6B4A2E"/><rect x="205" y="72" width="4" height="2" fill="#6B4A2E"/><rect x="211" y="72" width="4" height="2" fill="#6B4A2E"/><rect x="217" y="72" width="4" height="2" fill="#6B4A2E"/><rect x="223" y="72" width="4" height="2" fill="#6B4A2E"/><rect x="229" y="72" width="4" height="2" fill="#6B4A2E"/><rect x="235" y="72" width="4" height="2" fill="#6B4A2E"/><rect x="241" y="72" width="4" height="2" fill="#6B4A2E"/><rect x="247" y="72" width="4" height="2" fill="#6B4A2E"/><rect x="253" y="72" width="4" height="2" fill="#6B4A2E"/><rect x="259" y="72" width="4" height="2" fill="#6B4A2E"/><rect x="265" y="72" width="4" height="2" fill="#6B4A2E"/><rect x="271" y="72" width="4" height="2" fill="#6B4A2E"/><rect x="277" y="72" width="4" height="2" fill="#6B4A2E"/><rect x="283" y="72" width="4" height="2" fill="#6B4A2E"/><rect x="289" y="72" width="4" height="2" fill="#6B4A2E"/><rect x="295" y="72" width="4" height="2" fill="#6B4A2E"/><rect x="301" y="72" width="4" height="2" fill="#6B4A2E"/><rect x="307" y="72" width="4" height="2" fill="#6B4A2E"/><rect x="313" y="72" width="4" height="2" fill="#6B4A2E"/><rect x="319" y="72" width="4" height="2" fill="#6B4A2E"/><rect x="325" y="72" width="4" height="2" fill="#6B4A2E"/><rect x="331" y="72" width="4" height="2" fill="#6B4A2E"/><rect x="337" y="72" width="4" height="2" fill="#6B4A2E"/><rect x="343" y="72" width="4" height="2" fill="#6B4A2E"/><rect x="349" y="72" width="4" height="2" fill="#6B4A2E"/><rect x="355" y="72" width="4" height="2" fill="#6B4A2E"/><rect x="361" y="72" width="4" height="2" fill="#6B4A2E"/><rect x="367" y="72" width="4" height="2" fill="#6B4A2E"/><rect x="373" y="72" width="4" height="2" fill="#6B4A2E"/><rect x="379" y="72" width="4" height="2" fill="#6B4A2E"/><rect x="385" y="72" width="4" height="2" fill="#6B4A2E"/><rect x="391" y="72" width="4" height="2" fill="#6B4A2E"/><rect x="397" y="72" width="4" height="2" fill="#6B4A2E"/><rect x="403" y="72" width="4" height="2" fill="#6B4A2E"/><rect x="409" y="72" width="4" height="2" fill="#6B4A2E"/><rect x="415" y="72" width="4" height="2" fill="#6B4A2E"/><rect x="421" y="72" width="4" height="2" fill="#6B4A2E"/><rect x="427" y="72" width="4" height="2" fill="#6B4A2E"/><rect x="433" y="72" width="4" height="2" fill="#6B4A2E"/><rect x="439" y="72" width="4" height="2" fill="#6B4A2E"/><rect x="445" y="72" width="4" height="2" fill="#6B4A2E"/><rect x="451" y="72" width="4" height="2" fill="#6B4A2E"/><rect x="457" y="72" width="4" height="2" fill="#6B4A2E"/><rect x="463" y="72" width="4" height="2" fill="#6B4A2E"/><rect x="469" y="72" width="4" height="2" fill="#6B4A2E"/><rect x="475" y="72" width="4" height="2" fill="#6B4A2E"/><rect x="0" y="69" width="480" height="1" fill="#C6C6C6"/><rect x="0" y="70" width="480" height="2" fill="#7A7A7A"/><g transform="translate(33 61)"><g class="cart"><path fill="#FFFFFF" d="M3 0h6v1h-6zM3 1h1v1h-1zM8 1h1v1h-1z"/><path fill="#7A7F85" d="M4 1h4v1h-4z"/><path fill="#262626" d="M0 2h14v1h-14zM0 3h1v1h-1zM13 3h1v1h-1zM0 4h1v1h-1zM13 4h1v1h-1zM0 5h1v1h-1zM13 5h1v1h-1zM1 6h12v1h-12z"/><path fill="#8A8F96" d="M1 3h12v1h-12zM1 5h12v1h-12z"/><path fill="#6E737A" d="M1 4h12v1h-12z"/><path fill="#3A3A3A" d="M2 7h2v1h-2zM10 7h2v1h-2zM2 8h2v1h-2zM10 8h2v1h-2z"/></g></g></svg>
