<svg xmlns="http://www.w3.org/2000/svg" viewBox="0 0 32 32" shape-rendering="crispEdges"><rect x="4" y="0" width="24" height="1" fill="#102d3e"/><rect x="2" y="1" width="28" height="1" fill="#102d3e"/><rect x="1" y="2" width="30" height="1" fill="#102d3e"/><rect x="1" y="3" width="30" height="1" fill="#102d3e"/><rect x="0" y="4" width="32" height="1" fill="#102d3e"/><rect x="0" y="5" width="32" height="1" fill="#102d3e"/><rect x="0" y="6" width="8" height="1" fill="#102d3e"/><rect x="8" y="6" width="6" height="1" fill="#5a9fc4"/><rect x="14" y="6" width="4" height="1" fill="#edf1f3"/><rect x="18" y="6" width="14" height="1" fill="#102d3e"/><rect x="0" y="7" width="8" height="1" fill="#102d3e"/><rect x="8" y="7" width="6" height="1" fill="#5a9fc4"/><rect x="14" y="7" width="7" height="1" fill="#edf1f3"/><rect x="21" y="7" width="11" height="1" fill="#102d3e"/><rect x="0" y="8" width="8" height="1" fill="#102d3e"/><rect x="8" y="8" width="6" height="1" fill="#5a9fc4"/><rect x="14" y="8" width="8" height="1" fill="#edf1f3"/><rect x="22" y="8" width="10" height="1" fill="#102d3e"/><rect x="0" y="9" width="8" height="1" fill="#102d3e"/><rect x="8" y="9" width="6" height="1" fill="#5a9fc4"/><rect x="14" y="9" width="9" height="1" fill="#edf1f3"/><rect x="23" y="9" width="9" height="1" fill="#102d3e"/><rect x="0" y="10" width="8" height="1" fill="#102d3e"/><rect x="8" y="10" width="6" height="1" fill="#5a9fc4"/><rect x="14" y="10" width="10" height="1" fill="#edf1f3"/><rect x="24" y="10" width="8" height="1" fill="#102d3e"/><rect x="0" y="11" width="8" height="1" fill="#102d3e"/><rect x="8" y="11" width="6" height="1" fill="#5a9fc4"/><rect x="14" y="11" width="2" height="1" fill="#102d3e"/><rect x="16" y="11" width="4" height="1" fill="#f8f6ef"/><rect x="20" y="11" width="4" height="1" fill="#edf1f3"/><rect x="24" y="11" width="8" height="1" fill="#102d3e"/><rect x="0" y="12" width="8" height="1" fill="#102d3e"/><rect x="8" y="12" width="6" height="1" fill="#5a9fc4"/><rect x="14" y="12" width="2" height="1" fill="#f8f6ef"/><rect x="16" y="12" width="1" height="1" fill="#b9e2f2"/><rect x="17" y="12" width="3" height="1" fill="#75bddc"/><rect x="20" y="12" width="2" height="1" fill="#f8f6ef"/><rect x="22" y="12" width="3" height="1" fill="#edf1f3"/><rect x="25" y="12" width="7" height="1" fill="#102d3e"/><rect x="0" y="13" width="8" height="1" fill="#102d3e"/><rect x="8" y="13" width="5" height="1" fill="#5a9fc4"/><rect x="13" y="13" width="2" height="1" fill="#f8f6ef"/><rect x="15" y="13" width="1" height="1" fill="#b9e2f2"/><rect x="16" y="13" width="5" height="1" fill="#75bddc"/><rect x="21" y="13" width="2" height="1" fill="#f8f6ef"/><rect x="23" y="13" width="2" height="1" fill="#edf1f3"/><rect x="25" y="13" width="7" height="1" fill="#102d3e"/><rect x="0" y="14" width="8" height="1" fill="#102d3e"/><rect x="8" y="14" width="5" height="1" fill="#5a9fc4"/><rect x="13" y="14" width="1" height="1" fill="#f8f6ef"/><rect x="14" y="14" width="1" height="1" fill="#75bddc"/><rect x="15" y="14" width="5" height="1" fill="#102d3e"/><rect x="20" y="14" width="2" height="1" fill="#75bddc"/><rect x="22" y="14" width="1" height="1" fill="#f8f6ef"/><rect x="23" y="14" width="2" height="1" fill="#edf1f3"/><rect x="25" y="14" width="7" height="1" fill="#102d3e"/><rect x="0" y="15" width="8" height="1" fill="#102d3e"/><rect x="8" y="15" width="5" height="1" fill="#5a9fc4"/><rect x="13" y="15" width="1" height="1" fill="#f8f6ef"/><rect x="14" y="15" width="8" height="1" fill="#75bddc"/><rect x="22" y="15" width="1" height="1" fill="#f8f6ef"/><rect x="23" y="15" width="2" height="1" fill="#edf1f3"/><rect x="25" y="15" width="7" height="1" fill="#102d3e"/><rect x="0" y="16" width="8" height="1" fill="#102d3e"/><rect x="8" y="16" width="5" height="1" fill="#5a9fc4"/><rect x="13" y="16" width="1" height="1" fill="#f8f6ef"/><rect x="14" y="16" width="8" height="1" fill="#75bddc"/><rect x="22" y="16" width="1" height="1" fill="#f8f6ef"/><rect x="23" y="16" width="2" height="1" fill="#edf1f3"/><rect x="25" y="16" width="7" height="1" fill="#102d3e"/><rect x="0" y="17" width="8" height="1" fill="#102d3e"/><rect x="8" y="17" width="5" height="1" fill="#5a9fc4"/><rect x="13" y="17" width="1" height="1" fill="#f8f6ef"/><rect x="14" y="17" width="1" height="1" fill="#75bddc"/><rect x="15" y="17" width="4" height="1" fill="#102d3e"/><rect x="19" y="17" width="3" height="1" fill="#75bddc"/><rect x="22" y="17" width="1" height="1" fill="#f8f6ef"/><rect x="23" y="17" width="2" height="1" fill="#edf1f3"/><rect x="25" y="17" width="7" height="1" fill="#102d3e"/><rect x="0" y="18" width="8" height="1" fill="#102d3e"/><rect x="8" y="18" width="5" height="1" fill="#5a9fc4"/><rect x="13" y="18" width="2" height="1" fill="#f8f6ef"/><rect x="15" y="18" width="6" height="1" fill="#75bddc"/><rect x="21" y="18" width="2" height="1" fill="#f8f6ef"/><rect x="23" y="18" width="2" height="1" fill="#edf1f3"/><rect x="25" y="18" width="7" height="1" fill="#102d3e"/><rect x="0" y="19" width="8" height="1" fill="#102d3e"/><rect x="8" y="19" width="6" height="1" fill="#5a9fc4"/><rect x="14" y="19" width="2" height="1" fill="#f8f6ef"/><rect x="16" y="19" width="4" height="1" fill="#75bddc"/><rect x="20" y="19" width="1" height="1" fill="#f8f6ef"/><rect x="21" y="19" width="2" height="1" fill="#f2bc5b"/><rect x="23" y="19" width="2" height="1" fill="#edf1f3"/><rect x="25" y="19" width="7" height="1" fill="#102d3e"/><rect x="0" y="20" width="8" height="1" fill="#102d3e"/><rect x="8" y="20" width="6" height="1" fill="#5a9fc4"/><rect x="14" y="20" width="2" height="1" fill="#102d3e"/><rect x="16" y="20" width="4" height="1" fill="#f8f6ef"/><rect x="20" y="20" width="1" height="1" fill="#edf1f3"/><rect x="21" y="20" width="2" height="1" fill="#f2bc5b"/><rect x="23" y="20" width="1" height="1" fill="#d49a3a"/><rect x="24" y="20" width="8" height="1" fill="#102d3e"/><rect x="0" y="21" width="8" height="1" fill="#102d3e"/><rect x="8" y="21" width="6" height="1" fill="#5a9fc4"/><rect x="14" y="21" width="8" height="1" fill="#edf1f3"/><rect x="22" y="21" width="2" height="1" fill="#f2bc5b"/><rect x="24" y="21" width="1" height="1" fill="#d49a3a"/><rect x="25" y="21" width="7" height="1" fill="#102d3e"/><rect x="0" y="22" width="8" height="1" fill="#102d3e"/><rect x="8" y="22" width="6" height="1" fill="#5a9fc4"/><rect x="14" y="22" width="9" height="1" fill="#edf1f3"/><rect x="23" y="22" width="2" height="1" fill="#f2bc5b"/><rect x="25" y="22" width="1" height="1" fill="#d49a3a"/><rect x="26" y="22" width="6" height="1" fill="#102d3e"/><rect x="0" y="23" width="8" height="1" fill="#102d3e"/><rect x="8" y="23" width="6" height="1" fill="#5a9fc4"/><rect x="14" y="23" width="8" height="1" fill="#edf1f3"/><rect x="22" y="23" width="2" height="1" fill="#102d3e"/><rect x="24" y="23" width="1" height="1" fill="#f2bc5b"/><rect x="25" y="23" width="1" height="1" fill="#d49a3a"/><rect x="26" y="23" width="6" height="1" fill="#102d3e"/><rect x="0" y="24" width="8" height="1" fill="#102d3e"/><rect x="8" y="24" width="6" height="1" fill="#5a9fc4"/><rect x="14" y="24" width="7" height="1" fill="#edf1f3"/><rect x="21" y="24" width="11" height="1" fill="#102d3e"/><rect x="0" y="25" width="8" height="1" fill="#102d3e"/><rect x="8" y="25" width="6" height="1" fill="#5a9fc4"/><rect x="14" y="25" width="4" height="1" fill="#edf1f3"/><rect x="18" y="25" width="14" height="1" fill="#102d3e"/><rect x="0" y="26" width="32" height="1" fill="#102d3e"/><rect x="0" y="27" width="32" height="1" fill="#102d3e"/><rect x="1" y="28" width="30" height="1" fill="#102d3e"/><rect x="1" y="29" width="30" height="1" fill="#102d3e"/><rect x="2" y="30" width="28" height="1" fill="#102d3e"/><rect x="4" y="31" width="24" height="1" fill="#102d3e"/></svg>